<?xml version="1.0" encoding="UTF-8"?><svg id="Layer_2" xmlns="http://www.w3.org/2000/svg" viewBox="0 0 909.78 241.24"><g id="LOGO"><rect x="13.53" y="35.24" width="144.41" height="197.48" rx="15.92" ry="15.92" transform="translate(-21.96 16.92) rotate(-10)" style="fill:#565656;"/><rect x="33.98" y="17.26" width="144.41" height="197.48" rx="15.92" ry="15.92" transform="translate(-9.71 9.7) rotate(-5)" style="fill:#999;"/><path d="M190.95,44.92h-23.53c-8.44,0-15.28-6.84-15.28-15.28V6.37h-83.21c-1.82,0-3.52.51-4.97,1.39-.26.16-.52.33-.77.52-.49.37-.95.78-1.36,1.24-.1.11-.2.23-.3.35-.2.24-.38.48-.55.74-.26.38-.49.79-.69,1.2-.13.28-.26.57-.36.86-.38,1.03-.58,2.14-.58,3.3v165.51c0,1.16.21,2.27.58,3.3.11.29.23.58.36.86.07.14.14.28.21.41.22.41.47.8.75,1.17.09.12.19.24.28.36.29.36.61.69.95,1,.11.1.23.2.35.3.36.29.73.56,1.13.8,1.45.88,3.15,1.39,4.97,1.39h112.44c1.16,0,2.27-.21,3.3-.58.15-.05.29-.11.44-.17.43-.18.84-.39,1.24-.63.4-.24.77-.51,1.13-.8.12-.1.23-.2.35-.3.28-.25.54-.53.79-.81.15-.18.3-.36.45-.55.22-.29.42-.6.6-.91.28-.48.53-1,.72-1.53.38-1.03.58-2.14.58-3.3V44.92Z" style="fill:#fff;"/><path d="M167.41,38.56h19.14l-26.36-26.23-1.7-1.7v19.01c0,4.92,3.99,8.92,8.92,8.92Z" style="fill:#f2f2f2;"/><path d="M60.27,185.63c-.13-.28-.26-.57-.36-.86.11.29.23.58.36.86Z" style="fill:#181818;"/><path d="M61.23,187.21c-.28-.37-.53-.76-.75-1.17.22.41.47.8.75,1.17Z" style="fill:#181818;"/><path d="M59.91,12.66c.11-.29.23-.58.36-.86-.13.28-.26.57-.36.86Z" style="fill:#181818;"/><path d="M189.64,186.3c-.18.32-.38.62-.6.91.22-.29.42-.6.6-.91Z" style="fill:#181818;"/><path d="M187.45,188.87c-.36.29-.73.56-1.13.8.4-.24.77-.51,1.13-.8Z" style="fill:#181818;"/><path d="M63.94,189.67c-.4-.24-.77-.51-1.13-.8.36.29.73.56,1.13.8Z" style="fill:#181818;"/><path d="M152.13,6.37h-83.21c-1.82,0-3.52.51-4.97,1.39,1.45-.88,3.15-1.39,4.97-1.39h83.21Z" style="fill:#181818;"/><path d="M60.96,10.6c.17-.26.36-.5.55-.74-.2.24-.38.48-.55.74Z" style="fill:#181818;"/><path d="M61.52,187.57c.29.36.61.69.95,1-.34-.31-.66-.64-.95-1Z" style="fill:#181818;"/><path d="M187.8,188.57c.28-.25.54-.53.79-.81-.25.29-.51.56-.79.81Z" style="fill:#181818;"/><path d="M59.32,15.96c0-1.16.21-2.27.58-3.3-.38,1.03-.58,2.14-.58,3.3v165.51c0,1.16.21,2.27.58,3.3-.38-1.03-.58-2.14-.58-3.3V15.96Z" style="fill:#181818;"/><path d="M63.18,8.27c-.49.37-.95.78-1.36,1.24.41-.45.87-.87,1.36-1.24Z" style="fill:#181818;"/><path d="M196.69,39.65l-5.74-5.69-27.86-27.6h0l-5.81-5.75c-.4-.39-.93-.61-1.49-.61h-86.87c-8.8,0-15.96,7.16-15.96,15.96v165.51c0,8.8,7.16,15.96,15.96,15.96h112.44c8.8,0,15.96-7.16,15.96-15.96V41.16c0-.57-.23-1.11-.63-1.51ZM186.56,38.56h-19.14c-4.92,0-8.92-3.99-8.92-8.92V10.63l1.7,1.7,26.36,26.23ZM190.95,181.47c0,1.16-.21,2.27-.58,3.3-.2.53-.44,1.04-.72,1.53-.18.32-.38.62-.6.91-.14.19-.29.37-.45.55-.25.29-.51.56-.79.81-.11.1-.23.2-.35.3-.36.29-.73.56-1.13.8-.4.24-.81.45-1.24.63-.14.06-.29.12-.44.17-1.03.38-2.14.58-3.3.58h-112.44c-1.82,0-3.52-.51-4.97-1.39-.4-.24-.77-.51-1.13-.8-.12-.1-.23-.2-.35-.3-.34-.31-.66-.64-.95-1-.1-.12-.19-.24-.28-.36-.28-.37-.53-.76-.75-1.17-.07-.14-.14-.27-.21-.41-.13-.28-.26-.57-.36-.86-.38-1.03-.58-2.14-.58-3.3V15.96c0-1.16.21-2.27.58-3.3.11-.29.23-.58.36-.86.2-.42.43-.82.69-1.2.17-.26.36-.5.55-.74.1-.12.2-.23.3-.35.41-.45.87-.87,1.36-1.24.25-.18.5-.36.77-.52,1.45-.88,3.15-1.39,4.97-1.39h83.21v23.27c0,8.44,6.84,15.28,15.28,15.28h23.53v136.55Z" style="fill:#181818;"/><path d="M123.2,156.03c-19.14,2.05-35.28-11.29-38.8-29.89-4-5.99-6.65-12.52-6.36-19.77.59-14.76,10.89-27.49,24.23-33.25,3.95-1.71,7.95-2.61,12.23-3.51,8.53-4.11,17.94-5.35,27.3-3.47,15.46,4.36,25.3,16.35,25.8,32.63,5.86,11.64,4.87,25.1-2.69,35.85-5.94,8.44-15.17,13.7-25.33,15.68-5.17,2.8-10.39,5.09-16.39,5.74ZM160.53,89.6c-3.71-11.89-16.45-19.92-28.51-18.79,4.07,1.26,7.66,3,11.34,5.15,3.15,1.85,5.44,4.4,8.26,6.63l8.91,7.01ZM137.24,79.08c-4.87-3.56-21.78-6.97-25.39-1.12,12.66-3.16,14.17-1.09,25.39,1.12ZM84.42,113.04c1.21-8.97,4.84-16.33,10.16-22.96,2.27-3.82,4.61-7.16,7.32-10.82-11.87,5.52-21.78,21.32-17.48,33.77ZM101.29,98.1c3.9-7.15,9.97-12.18,16.83-15.93-6.96,1.12-14.23,4.57-18.15,10.63-3.57,5.53-3.67,12.76-3.1,19.21.97-4.83,1.76-9.42,4.42-13.91ZM149.13,118.43c1.44-1.98,3.17-4.59,2.99-6.96-.79-10.55-8.49-22.96-18.69-26.85-11.26-.15-21.15,5.8-26.94,15.2-4.63,7.52-5.41,15.89-2.69,24.23,1.53,4.69,4.72,7.93,9.79,8.95,12.54,2.52,27.9-4.03,35.54-14.56ZM147.09,87.67c2.29,2.91,4.28,5.78,6.26,8.91-.89-4.05-1.98-7.8-6.26-8.91ZM158.21,116.95c2.58-5.18,3.93-10.45,3.87-16.09-.02-1.68-1.54-3.37-2.7-4.58,1.03,5.71.89,10.96-.98,16.47-.4,1.18-.26,3.05-.2,4.2ZM98.66,130.51c-5.09-7.18-7.4-14.85-7.52-22.9-1.84,5.14-2.2,10.21-1.68,15.53,2.69,2.94,5.37,5.87,9.2,7.37ZM150.1,140.75c9.62-4.27,17.37-18.07,15.78-28.64-2.36,7.58-6.86,13.03-10.54,19.46l-5.24,9.18ZM148.9,129.79c1.39-1.65,2.49-3.17,2.22-5.35-7.13,7.58-15.9,12.09-25.9,13.97,8.88.5,17.17-2.78,23.69-8.62ZM119.44,147.63c-4.1-2.14-7.78-4.38-11.42-7.06-5.66-1.6-10.77-4.03-15.87-7.55,5.8,13.22,20.52,20.86,34.45,16.82-2.35-.54-4.59-1.25-7.16-2.21ZM142.79,140.3c-5.5,2.33-10.74,3.6-16.67,3.5,5.86,1.67,12.99,3.1,16.67-3.5Z"/><path d="M227.19,175.09l15.46-110.71h14.71l-6.84,49.34h55.28l6.83-49.34h14.71l-15.46,110.71h-14.71l6.84-48h-55.43l-6.69,48h-14.71Z" style="fill:#fff;"/><path d="M366.53,176.87c-5.94,0-11.07-1.39-15.38-4.16-4.31-2.77-7.41-6.69-9.29-11.74-1.88-5.05-2.38-11-1.49-17.83l6.84-48.15h13.97l-6.99,48.74c-.5,3.96-.15,7.43,1.04,10.4,1.19,2.97,3.07,5.28,5.65,6.91,2.57,1.63,5.74,2.45,9.51,2.45s7.38-.87,10.55-2.6c3.17-1.73,5.82-4.18,7.95-7.36,2.13-3.17,3.54-6.93,4.24-11.29l6.54-47.26h13.97l-11.15,80.1h-13.52l2.08-15.6,2.08,1.78c-2.68,5.05-6.34,8.92-11,11.59-4.66,2.67-9.86,4.01-15.6,4.01Z" style="fill:#fff;"/><path d="M465.19,176.87c-7.43,0-14-1.69-19.69-5.05-5.7-3.37-10.16-8-13.38-13.9-3.22-5.89-4.83-12.61-4.83-20.14,0-6.04,1.04-11.74,3.12-17.09,2.08-5.35,5-10.11,8.77-14.27,3.76-4.16,8.17-7.4,13.23-9.73,5.05-2.33,10.55-3.49,16.5-3.49,7.63,0,14.07,1.69,19.32,5.05,5.25,3.37,9.26,7.75,12.04,13.15,2.77,5.4,4.16,11.27,4.16,17.61,0,1.69-.15,3.47-.45,5.35-.3,1.88-.59,3.52-.89,4.9h-65.69l.75-12.04h57.81l-7.13,5.2c1.39-4.95,1.34-9.46-.15-13.52-1.49-4.06-3.99-7.31-7.51-9.73-3.52-2.43-7.65-3.64-12.41-3.64-5.95,0-10.92,1.49-14.93,4.46s-7.04,7.04-9.06,12.19c-2.03,5.15-3.05,11.1-3.05,17.83,0,4.96,1.06,9.27,3.19,12.93,2.13,3.67,4.98,6.46,8.55,8.4s7.53,2.9,11.89,2.9c5.45,0,10.13-1.26,14.04-3.79,3.91-2.53,7.11-5.72,9.58-9.59l11.44,6.39c-1.88,3.67-4.56,6.99-8.03,9.96-3.47,2.97-7.53,5.33-12.18,7.06-4.66,1.73-9.66,2.6-15.01,2.6Z" style="fill:#fff;"/><path d="M524.74,175.09v-110.71h42.5c7.63,0,14.39,1.34,20.29,4.01,5.89,2.68,10.53,6.64,13.9,11.89,3.37,5.25,5.05,11.74,5.05,19.47s-1.71,13.92-5.13,19.17c-3.42,5.25-8.08,9.24-13.97,11.96-5.9,2.73-12.61,4.09-20.14,4.09h-19.47v40.12h-23.04ZM547.77,114.9h19.62c3.27,0,6.09-.64,8.47-1.93,2.38-1.29,4.24-3.07,5.57-5.35,1.34-2.28,2.01-4.9,2.01-7.88s-.67-5.74-2.01-8.02c-1.34-2.28-3.19-4.06-5.57-5.35-2.38-1.29-5.2-1.93-8.47-1.93h-19.62v30.46Z" style="fill:#fff;"/><path d="M619.4,175.09v-81.14h20.8v19.47l-1.49-2.82c1.78-6.84,4.73-11.47,8.84-13.9,4.11-2.43,8.99-3.64,14.64-3.64h4.76v19.32h-6.98c-5.45,0-9.86,1.66-13.23,4.98-3.37,3.32-5.05,8-5.05,14.04v43.69h-22.29Z" style="fill:#fff;"/><path d="M716.03,176.87c-8.62,0-16.1-1.91-22.44-5.72-6.34-3.81-11.25-8.94-14.71-15.38-3.47-6.44-5.2-13.57-5.2-21.4s1.81-15.36,5.42-21.7c3.62-6.34,8.5-11.34,14.64-15.01,6.14-3.66,13.08-5.5,20.8-5.5,6.44,0,12.14,1.02,17.09,3.05,4.95,2.03,9.14,4.88,12.56,8.55,3.42,3.67,6.02,7.9,7.8,12.71,1.78,4.81,2.68,10.03,2.68,15.68,0,1.59-.08,3.15-.22,4.68-.15,1.54-.42,2.85-.82,3.94h-60.78v-16.35h48.15l-10.55,7.73c.99-4.26.94-8.05-.15-11.37-1.09-3.32-3-5.94-5.72-7.88-2.73-1.93-6.07-2.9-10.03-2.9s-7.18.94-9.96,2.82c-2.78,1.88-4.86,4.66-6.24,8.32-1.39,3.67-1.93,8.12-1.63,13.37-.4,4.56.15,8.57,1.63,12.04,1.49,3.47,3.76,6.17,6.84,8.1,3.07,1.93,6.78,2.9,11.15,2.9,3.96,0,7.36-.79,10.18-2.38,2.82-1.58,5.03-3.76,6.61-6.54l17.83,8.47c-1.59,3.96-4.09,7.43-7.5,10.4s-7.46,5.28-12.11,6.91c-4.66,1.63-9.76,2.45-15.31,2.45Z" style="fill:#fff;"/><path d="M799.96,176.87c-8.92,0-16.67-2.1-23.26-6.32-6.59-4.21-11.07-9.88-13.45-17.02l16.35-7.73c2.08,4.36,4.91,7.78,8.47,10.25,3.57,2.48,7.53,3.72,11.89,3.72,3.17,0,5.6-.64,7.28-1.93,1.68-1.29,2.52-3.07,2.52-5.35,0-1.19-.3-2.2-.89-3.05-.59-.84-1.49-1.61-2.68-2.3-1.19-.69-2.68-1.29-4.46-1.78l-13.82-3.86c-6.64-1.88-11.74-4.93-15.31-9.14-3.57-4.21-5.35-9.19-5.35-14.93,0-5.05,1.29-9.46,3.86-13.23,2.57-3.76,6.19-6.71,10.85-8.84,4.66-2.13,10.01-3.2,16.05-3.2,7.93,0,14.88,1.86,20.88,5.57,5.99,3.72,10.23,8.94,12.71,15.68l-16.5,7.73c-1.19-3.37-3.34-6.07-6.46-8.1-3.12-2.03-6.66-3.05-10.63-3.05-2.87,0-5.13.59-6.76,1.78-1.63,1.19-2.45,2.82-2.45,4.9,0,1.09.3,2.08.89,2.97s1.56,1.69,2.9,2.38c1.34.69,2.99,1.34,4.98,1.93l12.93,3.86c6.74,1.98,11.89,4.98,15.46,8.99s5.35,8.94,5.35,14.79c0,5.05-1.31,9.46-3.94,13.23-2.63,3.77-6.27,6.71-10.92,8.84-4.66,2.13-10.16,3.19-16.5,3.19Z" style="fill:#fff;"/><path d="M878.13,176.87c-8.92,0-16.67-2.1-23.26-6.32-6.59-4.21-11.07-9.88-13.45-17.02l16.35-7.73c2.08,4.36,4.91,7.78,8.47,10.25,3.57,2.48,7.53,3.72,11.89,3.72,3.17,0,5.6-.64,7.28-1.93,1.68-1.29,2.52-3.07,2.52-5.35,0-1.19-.3-2.2-.89-3.05-.59-.84-1.49-1.61-2.68-2.3-1.19-.69-2.68-1.29-4.46-1.78l-13.82-3.86c-6.64-1.88-11.74-4.93-15.31-9.14-3.57-4.21-5.35-9.19-5.35-14.93,0-5.05,1.29-9.46,3.86-13.23,2.57-3.76,6.19-6.71,10.85-8.84,4.66-2.13,10.01-3.2,16.05-3.2,7.93,0,14.88,1.86,20.88,5.57,5.99,3.72,10.23,8.94,12.71,15.68l-16.5,7.73c-1.19-3.37-3.34-6.07-6.46-8.1-3.12-2.03-6.66-3.05-10.63-3.05-2.87,0-5.13.59-6.76,1.78-1.63,1.19-2.45,2.82-2.45,4.9,0,1.09.3,2.08.89,2.97s1.56,1.69,2.9,2.38c1.34.69,2.99,1.34,4.98,1.93l12.93,3.86c6.74,1.98,11.89,4.98,15.46,8.99s5.35,8.94,5.35,14.79c0,5.05-1.31,9.46-3.94,13.23-2.63,3.77-6.27,6.71-10.92,8.84-4.66,2.13-10.16,3.19-16.5,3.19Z" style="fill:#fff;"/></g></svg>