<?xml version="1.0" encoding="UTF-8"?><svg id="Layer_2" xmlns="http://www.w3.org/2000/svg" viewBox="0 0 23.78 23.16"><g id="LOGO"><path d="M11.51,23.11c-4.87.52-8.98-2.87-9.88-7.61C.61,13.97-.07,12.31,0,10.46.16,6.7,2.78,3.46,6.18,2c1.01-.43,2.02-.67,3.12-.89C11.46.05,13.86-.26,16.24.22c3.94,1.11,6.44,4.16,6.57,8.31,1.49,2.97,1.24,6.39-.68,9.13-1.51,2.15-3.86,3.49-6.45,3.99-1.32.71-2.65,1.3-4.17,1.46ZM21.01,6.19c-.94-3.03-4.19-5.07-7.26-4.78,1.04.32,1.95.76,2.89,1.31.8.47,1.38,1.12,2.1,1.69l2.27,1.79ZM15.08,3.51c-1.24-.91-5.55-1.78-6.47-.29,3.22-.8,3.61-.28,6.47.29ZM1.63,12.16c.31-2.28,1.23-4.16,2.59-5.85.58-.97,1.17-1.82,1.86-2.75C3.06,4.97.54,8.99,1.63,12.16ZM5.92,8.36c.99-1.82,2.54-3.1,4.29-4.06-1.77.29-3.62,1.16-4.62,2.71-.91,1.41-.94,3.25-.79,4.89.25-1.23.45-2.4,1.13-3.54ZM18.11,13.53c.37-.5.81-1.17.76-1.77-.2-2.69-2.16-5.85-4.76-6.84-2.87-.04-5.39,1.48-6.86,3.87-1.18,1.91-1.38,4.05-.68,6.17.39,1.19,1.2,2.02,2.49,2.28,3.19.64,7.11-1.03,9.05-3.71ZM17.59,5.7c.58.74,1.09,1.47,1.59,2.27-.23-1.03-.51-1.98-1.59-2.27ZM20.42,13.16c.66-1.32,1-2.66.99-4.1,0-.43-.39-.86-.69-1.17.26,1.45.23,2.79-.25,4.19-.1.3-.07.78-.05,1.07ZM5.25,16.61c-1.3-1.83-1.88-3.78-1.91-5.83-.47,1.31-.56,2.6-.43,3.95.68.75,1.37,1.49,2.34,1.88ZM18.35,19.22c2.45-1.09,4.42-4.6,4.02-7.29-.6,1.93-1.75,3.32-2.68,4.95l-1.34,2.34ZM18.05,16.42c.35-.42.63-.81.56-1.36-1.82,1.93-4.05,3.08-6.6,3.56,2.26.13,4.37-.71,6.03-2.19ZM10.55,20.97c-1.04-.54-1.98-1.11-2.91-1.8-1.44-.41-2.74-1.03-4.04-1.92,1.48,3.37,5.22,5.31,8.77,4.28-.6-.14-1.17-.32-1.82-.56ZM16.49,19.1c-1.4.59-2.73.92-4.24.89,1.49.42,3.31.79,4.24-.89Z"/></g></svg>