<svg xmlns="http://www.w3.org/2000/svg" viewBox="0 0 1080 1080" width="1080" height="1080">
  <!-- 
    Instagram Highlight Cover: The Vault
    Using Lucide "Sparkles" icon for a friendly feel
  -->
  
  <!-- Background -->
  <rect width="1080" height="1080" fill="#0F766E"/>
  
  <!-- Sparkles Icon (Lucide exact path, scaled and centered) -->
  <g transform="translate(540, 540) scale(12)" stroke="#FFFFFF" stroke-width="2" fill="none" stroke-linecap="round" stroke-linejoin="round">
    <!-- Main sparkle -->
    <path d="m12 3-1.912 5.813a2 2 0 0 1-1.275 1.275L3 12l5.813 1.912a2 2 0 0 1 1.275 1.275L12 21l1.912-5.813a2 2 0 0 1 1.275-1.275L21 12l-5.813-1.912a2 2 0 0 1-1.275-1.275L12 3Z" transform="translate(-12, -12)"/>
    <!-- Small sparkle top right -->
    <path d="M5 3v4" transform="translate(-12, -12)"/>
    <path d="M3 5h4" transform="translate(-12, -12)"/>
    <!-- Small sparkle bottom right -->
    <path d="M19 17v4" transform="translate(-12, -12)"/>
    <path d="M17 19h4" transform="translate(-12, -12)"/>
  </g>
</svg>
