<?xml version="1.0" encoding="UTF-8"?>
<svg id="Layer_1" xmlns="http://www.w3.org/2000/svg" version="1.1" viewBox="0 0 898 1536">
  <!-- Generator: Adobe Illustrator 30.1.0, SVG Export Plug-In . SVG Version: 2.1.1 Build 136)  -->
  <defs>
    <style>
      .st0 {
        fill: #010101;
      }
    </style>
  </defs>
  <path class="st0" d="M312.3,726.5c0,0,0-.1,0-.2,0,0,0,0-.1,0-15.6.2-30.7,0-45.2-.9-16.8-.9-29.7-7-37.5-22.3-6.7-13.2-11.2-27.2-15.3-40.8-6.7-22.2-18.6-59-25.7-86.6-8.5-33.3-15.5-59.2-21.8-88.1-2.7-12.4-6.1-27.9-10.3-46.5-.5-2.4-3.4-19.1-8.6-50.2-.1-.9-.3-3-.6-6.2-.6-7.8.5-15.2,3.4-22.1,1.4-3.2,3.8-7.5,7.4-12.8,2.7-4,7.2-9,13.6-14.9,7.1-6.7,19.2-18,28.6-25.6,16.7-13.5,27.1-21.9,31.5-25.2,9.9-7.6,19-13.9,27.4-18.8,3.1-1.9,7.5-3.8,13.1-5.9,5.8-2.1,11.1-3.8,15.9-5.1,20.2-5.5,39.4-9.8,57.6-12.9,1.1-.2,2.2-.8,2.9-1.7,6.1-7.8,13.2-14.2,22.4-17.8.6-.2.9-.9.7-1.5-3.8-12.1-8.7-23.6-14.6-34.4-20.5-37.5-61.6-58.7-102.3-37.3-11.3,6-21.8,16.3-30.3,26.6-.4.5-.4,1.2,0,1.6,3.3,4,5.8,8.4,7.4,13.3,3.9,11.8,2.9,23.2-3.2,34-6.4,11.3-18.7,19.4-31.9,20.1-20.2,1.1-36.8-8.6-43.5-28.1-6.4-18.6,2.5-41.9,20.8-50,10-4.4,20.2-5.3,30.7-2.7.9.2,1.9-.1,2.5-.9,11-15.6,24.8-27.9,42.3-36.2,6.4-3.1,12.8-5.1,19.2-6.3,4.6-.8,11-2.1,16-2.4,28.9-1.7,57.7,13.2,76,34.9,4.2,5,8.4,10.9,12.5,17.7,8.5,14.1,15,28.9,19.5,44.3.1.5.6.8,1.1.8,12.9-.2,24.3,2.9,34.4,9.4.8.5,1.7.7,2.6.7,4.6-.2,8.8-1.2,13.7-1.8,20.2-2.7,40.9-4.9,62.1-6.7,30.3-2.6,52.2-4.4,78.5-5.3,10.8-.4,20.7,0,29.4,1.1,15.9,2,26.9,13.4,32.4,27.8,5.5,14.4,9.9,27.5,13.2,39.3,2.1,7.8,6.1,21.5,12,41.1,10,33.6,18.4,70.1,27.4,105.2,2.3,9.1,7.8,32.3,16.4,69.5,2.7,11.5,5.1,24.7,8,37.4,1.3,5.9,2.4,12.5,3.2,19.8,1.1,9.7-1.2,18.6-6.9,26.8-5.8,8.4-10.7,14.8-14.7,19.3-5.8,6.4-10.8,12.1-15.1,16.9-2.3,2.6-4.8,5.2-7.5,7.8-.2.2-.2.5,0,.8,0,0,.2.2.3.2,12.5,1.7,24,3.6,34.4,5.8,12.8,2.7,24.6,7.6,35.3,14.8,9.2,6.1,15.5,14.6,19,25.2,1.6,5,3,9.5,4.1,13.6.2.9.9,1.7,1.8,2.1,3.2,1.5,6.6,2.9,10,4.5,7.8,3.4,15,8.3,21.7,14.7,6,5.8,11.1,12.9,15.2,21.3,4.9,10,8,20.3,9.2,30.9,1,8,.4,16.8-1.7,26.6-3.2,14.8-9.8,27.9-19.8,39.5-1.4,1.6-2.1,3.6-2,5.9,1,25.2.7,52.1-.8,80.8-.6,11.2-2.1,24.8-3.3,38.6-.5,5-1.6,9.4-1.5,14,0,3.1,2.3,7.9,2.6,11.1,1.1,9.1.7,17.2-1.2,24.2-1.9,6.9-5.6,14.1-11,21.7-.7,1-3.4,4.3-8,10-.3.3-.4.7-.3,1.1.2,1.3.6,7.4,1.2,18.2.8,14.3-4.7,24.6-16.6,30.9-11.3,6-22.8,10.8-34.6,14.4-1.1.3-1.8,1.2-2,2.4-2.6,19.5-4.8,39.3-6.7,59.4-1.7,18.8-2.5,38.6-2.4,59.4,0,12.4.6,22.5,1.4,30.5,3,29,5,46.5,5.9,52.5,1.4,9.4,2.8,19.4,4.2,30.2.3,2.6,1.2,5.7,2.2,8.6,3.3,9.6,5.3,15.9,6,18.9,2.4,10.3,4.4,20.8,6.1,31.6,1.2,7.6,1.3,15,.4,22.2-.8,5.8-8.3,10.1-13.3,11.7-8,2.7-15.7,4.8-23.2,6.5-23.3,5.1-47.6,9.2-71.7,9.5-15,.2-22.7.3-23,.3-16.4-.2-33.1-1.9-50.2-5.3-14-2.8-21.1-8.5-20.5-23.6.4-10.1,3.2-19.8,8.4-29.1,3-5.3,5.6-9.5,7.8-12.5,9.5-12.5,22.3-22.7,35.9-31.5.6-.4,1-1.1.9-1.8-1-8.1-2.8-17-3.9-26.3-1.4-11.5-2.8-24.2-4.3-37.9-1.5-13.8-2.4-24.9-2.6-33.2-.4-13.6-1-25-.8-36.7.5-28.3,2.4-56,5.9-82.9,0-.4-.2-.7-.6-.8,0,0,0,0,0,0h-52.9c-.2,0-.4.2-.4.4,0,0,0,0,0,0,3.2,17.2,6.5,37.1,9.6,59.7,1,7.1,2.9,17.7-6.2,20.6-.9.3-3.8.6-8.6.8-6.4.3-12.9.6-19.5.8-.4,0-.7.3-.8.7-1.6,15.9-1.9,31.8-.7,47.6,1.1,14,2.5,29.8,4.4,47.4,1.3,12.7,2.3,24.1,2.9,34.4,0,.8.2,1.5.4,2.3,4.5,13.9,7.5,28.5,9.1,43.8,1,9.3,1.7,15.9,1.2,23.5-1,15.1-16.8,16.3-28.6,18.4-29.7,5.1-55.5,8.2-77.3,9.3-22.1,1.1-43.7.5-64.8-1.8-10.5-1.1-20.6-2.9-29.9-6.7-8.6-3.5-11.1-10.9-10.7-19.5.6-12,4.2-22.8,10.8-32.5,9.6-14.2,21.9-25.5,36.9-33.9,5.1-2.8,11.3-5.8,18.7-8.9.3-.1.5-.5.5-.8-3.1-26.3-5.2-53.5-6.3-81.6-.5-11.9-.3-23.8,0-34.9,0-.4-.3-.8-.7-.8,0,0,0,0,0,0-15.6.3-31.3.8-47,1.3-54.1,1.8-108.3,3.4-162.8,4.8-10.3.2-13.1-5.8-14.2-15.2,0,0-.8-5-2.5-14.8-2.5-15.1-4.4-26.2-5.6-33.5-1-5.9-2.5-14-4.5-24.4-3-15.5-5.5-31.4-9.1-46.1,0-.3-.4-.6-.7-.5-4.1.3-8.5.2-13.1-.3-10.3-1.1-22.3-6.8-27.9-15.6-5-7.8-6.3-16.5-5.1-25.4,0-.8-.2-1.5-.8-2-9.7-8.4-15.5-20.1-14.7-33.1.3-4.3.9-8.9,1.9-13.6.1-.5,0-1-.3-1.4-7.9-9.4-9.1-20.2-8.2-32,.8-11.3,6.5-18.6,14.8-26.4,5.5-5.1,10.6-8,15.4-8.8.4,0,.7-.4.7-.9-.2-2.2-.6-4.4-1.3-6.7-9.1-31.7-15.1-52-18-60.9-4.4-13.3-8.1-25.3-11.2-36-2-6.8,0-11.7,5.8-14.7.6-.3,1.2-.5,1.9-.6,9.1-1,18.4-1.7,27.7-2.2,58.7-2.8,89.5-5,168.5-9.7.5,0,.8-.4.9-.8,2.8-24.5,17.1-45.2,37.6-58.4ZM180.6,187.3c-8.4,6.7-9.6,19.2-2.7,27.8,6.9,8.6,19.3,10.1,27.7,3.4,0,0,0,0,0,0,8.4-6.7,9.6-19.2,2.7-27.8-6.9-8.6-19.3-10.1-27.7-3.4,0,0,0,0,0,0ZM194.2,346.3c21.3-4.3,43.7-9.7,66.2-13.9,23.7-4.4,49.1-8.8,76.2-13.2,28.6-4.6,62.1-9.5,95-12.4,5.8-.5,18.8-1.7,38.9-3.5,7-.6,14.1-.6,19.8-1.2,3.3-.4,8.2-.5,14.8-.4,3.4,0,8.6,0,15.8-.4,3.1-.1,5.8.6,8.3,2.1.3.2.8.2,1.1-.1,4.8-4.3,9.8-8.9,14.8-13.7,13.6-13.1,27.2-25.3,41.6-38.4,7-6.4,12.8-11.4,17.2-15.1,0,0,.1-.2,0-.3,0,0,0,0-.2,0-7-.9-14.4-1.2-22.1-.8-43.7,1.8-88,5.7-132.7,11.6-.5,0-.9.5-.8,1,0,0,0,.2,0,.3,1.9,4.1,5,12.2,4.1,16.6-1.7,8.1-13.3,15.4-20.1,19-25,13-54.5,18.7-81.9,11.4-7.4-2-11.2-9.3-11.2-16.7,0-3.1.1-6.8.4-11.1,0-.3-.2-.6-.5-.6,0,0,0,0,0,0-1.5,0-3,.1-4.6.5-16.9,3.3-33.9,7.7-51.1,13.1-11.2,3.5-22,10.7-31.6,17.7-20.4,14.7-39.8,31.5-57.6,47.9-.1.1-.1.3,0,.5,0,0,.2.1.3,0ZM388.8,239.2c-8.4,1.9-15.5,5.5-20.8,12.5-4.9,6.4-7.2,13.7-6.9,21.9,0,.6.5,1.2,1.1,1.3,11.8,2.4,22.8,1.5,34.4-1,11.6-2.6,21.9-6.5,31.5-13.7.5-.4.7-1,.4-1.6-3.2-7.6-8.4-13.2-15.6-16.9-7.8-4-15.7-4.3-24.2-2.4ZM633,639.2c7.7-6.8,15.6-14.4,23.9-22.8,6.8-6.9,18.2-19.8,30.7-32.8,4.5-4.7,8.6-10,12.4-15.9,3.2-5,5-8,4.4-13.2-.5-4.8-1-8.2-1.4-10-3.6-15.9-6.7-30.2-9.2-42.9-6.8-34-14.6-61.8-21.9-92.6-2.6-11-4.6-19-5.9-24-5.7-21.3-9.3-37.3-16.2-59.6-3-9.6-7.7-25.4-14.1-47.3-2.1-7.3-5.9-17.7-11.2-31.3-.1-.3-.4-.5-.8-.5-1,0-2,.5-2.9,1.4-6.3,6-14.7,13.6-25,22.8-14.5,12.8-28.3,25.9-41.7,38-.3.3-2.1,2-5.3,5.2-.5.5-.7,1.3-.4,1.9,2.9,6.8,5.3,12.8,7.1,17.9,2.7,7.5,6.2,18.4,10.4,32.7,9.6,32.4,18.9,65.9,27.8,100.5,5.1,19.7,8.5,35.6,13.2,54.4,6.6,26.3,11.4,48.8,18,78.7,2.8,12.9,5.2,25.9,7.1,39.2,0,.3.3.6.7.5.1,0,.2,0,.3-.2ZM170.6,377.8c0,2.3,0,4.5.2,6.8.4,5.1,1.2,10.8,2.4,17.4,3.9,21.1,7.5,39.9,10.9,56.3,3.5,16.8,8.8,36.4,12.5,53,2.9,13.2,6.2,26.4,9.8,39.6,7.6,28.3,11.6,43.1,11.9,44.3.2.8,4.5,15.1,12.9,42.8,3.5,11.5,7.9,23.5,12.1,36.4.8,2.5,1.9,5.5,3.2,8.9,3.1,7.8,5.2,14.4,12.9,16.9,2.9.9,5.9,1.5,9.1,1.8,25.1,1.8,52.8.9,74.7-.5,36.8-2.3,71.2-4.9,106.8-10.1,24.9-3.7,41.9-6.3,50.9-8.1,32.4-6.2,65.8-13.9,100.1-23.2,5.4-1.5,9.8-5.5,10.2-11.4.2-2.6.1-4.8-.2-6.6-3.2-18-5.8-34.4-9.3-50.2-10.1-46.8-21.3-91.5-34.4-143.7-7.6-30.1-15.5-55.5-24.8-88-2.6-9.1-5.9-18.9-9.9-29.4-1-2.6-2.1-5.8-4.8-6.7-2-.6-4.5-1-7.5-1.2-13.2-.8-28.9-.4-47,1.1-64.6,5.4-128.4,13.8-191.4,25.2-9.4,1.7-19,3.6-29.1,5.7-27.5,5.7-42.5,9-67.1,15.1-5.6,1.4-11.1,2.6-14.9,6.9-.3.3-.4.6-.4,1ZM708.1,653.1c-6-1.6-12.5-2.8-19.6-3.8-9.1-1.3-17.7-2.6-26-4.1-.3,0-.6,0-.8.2-4,3.3-8.2,7-12.6,11.1-3.1,2.9-5.5,4.9-7.2,6.2-7.1,5.2-12.6,9.9-19.6,13.3-7.7,3.8-14.7,6.5-21,8.1-.3,0-.6.3-.8.7-8,18.4-25,33.7-42.4,43.1-12.1,6.5-23.9,11.4-35.5,14.6-11.9,3.4-25.7,5.6-41.3,6.7-12.9.9-26.4,0-40.5-2.9-10-2-17.9-4.7-23.6-8.2-7.4-4.4-13.6-9.9-18.7-16.6-.1-.2-.3-.3-.6-.2l-40,3.3c0,0-.2,0-.3,0-1.3.5-2.6,1.6-3.8,3.2-4.9,6.3-8.4,13.7-10.6,21.9-2.7,10.3-3.9,20.5-3.7,30.7,0,.4.3.7.7.7,0,0,0,0,0,0,2.5-.1,5.6,0,7.6-.2,51.2-3.2,87.5-5.5,108.9-6.8,8.9-.5,15.4-1.7,18,7.6,7.2,26.1,14.5,54.7,22.1,86,.2.6.7,1.1,1.4,1.1,9.1,0,16.5,2.1,24.8,4.9,11.3,3.8,22.3,10.6,29.8,17.8,3,2.9,7.7,8.5,14.1,16.9,2.3,2.9,7,5,9.3,6.9,2.1,1.8,4.1,3.7,6.1,5.7,1,1,2.3,1.6,3.7,1.8l57.1,4.4c.5,0,.9-.3.9-.8,0,0,0,0,0-.1-2.1-20.9-4.9-50-8.3-87.2-1.3-14.1-2.3-27.3-3-39.5-1.2-20.3-1.9-35.8,0-53.7,2.5-22.7,11.5-42.5,26.9-59.4,7.5-8.3,15.5-15.1,23.7-20.3,7.7-4.9,15.9-9.1,24.6-12.8.1,0,.2-.2.1-.3,0,0,0-.1-.2-.1ZM752.2,681.4c-.5-1.5-2.1-4.4-4.7-8.6-2.3-3.8-5.2-6.4-8.8-7.7-.3-.1-.6-.2-1-.2-1.4-.1-3.1,0-5.1.7-13.4,4-26,9.9-37.7,17.5-9.3,6.1-16.5,12.2-21.7,18.4-6.4,7.7-11.2,15.9-14.3,24.6-4.4,12.4-6.7,25-6.8,37.7,0,13.6.3,25.7,1.3,36.5,3.1,35.1,4.9,56.3,5.4,63.5,1.6,21.8,3.8,39.5,6,64.2,0,.4.4.8.8.8l31.6,1.4c.5,0,1-.4,1.1-.9.2-.8.3-2.2.5-4.2.8-10.2,1.9-26.6,3.4-49.1,1-15.8,1.5-30.3,1.5-43.4,0-1.1-.4-2.2-1.2-2.9-11.3-11.3-18.8-22.5-23.4-37.9-6.8-22.5-4.8-44.7,6-66.5,7.1-14.4,18-27.2,32.2-34.1,8.2-4,18-6.8,29.5-8.5.7,0,2.3-.3,5-.7.3,0,.4-.3.4-.5,0,0,0,0,0-.1ZM565.6,693.3c-24.1,6.1-48.7,11.4-74,16-6.2,1.1-23.4,3.6-51.6,7.5-3.2.4-7.4.5-10.1.8-.4,0-.6.4-.6.7,0,.2.2.4.4.5,5.8,2.7,11.3,4.5,16.6,5.4,14.8,2.5,29.1,2.9,42.9,1.1,15.2-2,29.3-5.3,42.2-10,7.1-2.6,13.9-6.1,20.2-10.3,4.6-3.1,9.4-6.8,14.3-11.2.1-.1.1-.3,0-.5,0,0-.2-.1-.3,0ZM710.7,801.7c2.4-3.6,4.9-5.4,8.9-8.4,17-12.7,41.3-14.3,61.1-8.5,8.2,2.4,15.2,6.7,21,13,.2.2.6.3.9,0,0,0,0,0,.1-.1,9.2-16,11.4-34.4,5.6-51.8-6.1-18.5-21.2-32.7-40.1-38-12.6-3.5-24.4-2.8-35.6,2.4-18.1,8.3-29,22.7-32.8,43-3.2,17.4-.8,34.2,9.8,48.5.2.3.6.3.8.1,0,0,0,0,.1-.1ZM318.8,750.7c-10.1,6-15.6,16.1-19.4,26.9-.7,1.8-1,3.6-1,5.3,0,.5.4.9.9.9,0,0,0,0,0,0l16-.6c.4,0,.7-.3.7-.7,0-10.2,1.2-20.6,3.8-31,0-.4-.1-.8-.5-.9-.2,0-.4,0-.5,0ZM484,907.7c-6-27-12.7-55.1-20-84.3-1.6-6.5-3.4-12.9-5.2-19.2-.7-2.6-1.1-6.4-1.7-8.3-.1-.4-.5-.6-.9-.6-4.2,0-10.8,1.2-15.9,1.4-38.2,2-70.7,4.6-115,7.5-17.7,1.2-38.5,2.4-62.2,3.8-66.3,3.9-103,6-110,6.3-23.1,1.2-40.8,2.1-53,2.8-2.6.1-4.7.3-6.4.5-.3,0-.6.3-.5.7,0,0,0,.1,0,.2,7.1,17.3,12.3,37.2,17.4,53.1,6.4,20.3,9.6,32.6,15.8,55.2.4,1.4.8,2.7,1.3,3.7.1.3.4.5.8.4,11.9-1.1,26.8.4,37.3,6.7,7.3,4.3,11.2,11,11.8,20,.5,6.8,0,14-1.2,21.6,0,.6,0,1.1.3,1.6,7.4,10.9,9.8,25.3,4,37.6-.3.7-.3,1.6.2,2.2,4.7,7,7.2,14.3,6,23.1-2,14.8-13.1,22.4-26.6,27.1-.4.1-.6.5-.5.9,1,4.5,1.9,8.6,2.6,12.4,6.9,37.6,13.3,68.5,18.7,104.1.1.7.7,1.1,1.3,1.1,19-.6,44.2-1.3,75.7-2.1,42.5-1.1,90-3.2,133.3-4.8,33.1-1.2,63.7-2.4,91.9-3.6,20.2-.8,36.1-1.4,47.7-1.7.5,0,.9-.4.9-.9h0c0-1.2-.1-2.4-.3-3.7-1.6-10-3.4-21.6-5.7-34.7-5.1-30-8.1-47.7-9-53-2.1-12.4-3.6-20.7-4.4-24.8-.1-.6-.6-1-1.3-1-13.6.5-27.5.2-40.8-3.7-7.3-2.1-12.7-4.9-16.2-8.4-7.8-7.8-9.8-19.7-6.9-30.6.2-.6,0-1.2-.5-1.6-3-2.4-5.4-4.1-7.3-7-6.6-10.3-8.1-22.9-3.3-34.6.1-.3.2-.7,0-1,0-.2-.7-1.2-1.8-3-3.8-6-6.3-12.4-7.5-19.2-2.2-12.9.7-23.4,11.1-30.7,2.7-1.9,7.1-3.6,12.9-5.2,10.6-2.8,21.5-4.9,32.6-6.2.2,0,.3-.1.3-.3,0,0,0,0,0,0ZM784.2,937.6c.2,0,.5,0,.6-.3,0,0,0-.1,0-.2,0-1.8,0-3.4.1-4.8,4-41.1,4.3-79.9,3.4-118.5,0-.6-.3-1.1-.8-1.3-3.6-2-6.8-2.9-11.4-4.5-13.5-4.6-27-3.9-40.4,2.1-2.6,1.2-5.2,2.8-7.8,4.9-.7.5-1,1.3-1.1,2.1-.2,16.6-.8,36.8-1.7,60.5-.5,13.4-1.4,27.1-2.8,40.9,0,.4.3.8.7.8,0,0,.1,0,.2,0,16.5-2.3,32.3.6,47.3,8.6,3.7,2,7.7,4.8,12.1,8.5.6.5,1.2.9,1.6,1.1ZM534.3,904.5c.6,0,1-.4,1.1-1,0-.3-.2-.7-.4-.9-6.5-4.7-13.6-8.4-21.2-11.1-4.2-1.5-7.7-2.4-10.3-2.5-.7,0-1.4.5-1.4,1.3,0,.1,0,.2,0,.3l2.8,14c.2,1,1.2,1.7,2.3,1.6,9.7-1.4,18.8-2,27.2-1.7ZM544.6,1031.3c18.7-7.6,29.7-21,33.8-40.9,3.5-17-.8-35.3-9.8-50.1-6.8-11.2-23.4-15.6-35.7-16-.6,0-1.1.5-1.1,1.1,0,.1,0,.3,0,.4,2.5,7.7,3.7,15.3,3.4,22.9-.2,3.8-1.1,7.7-1.7,10.9-.1.5,0,1.1.2,1.6,4.8,11,7.1,21.2,4.8,33-.7,3.5-1.2,6.3-1.6,8.5,0,.5,0,.9.2,1.3,4.1,6.7,6.7,12.6,6.6,20.7,0,2.9,0,4.9.1,6.1,0,.3.3.5.6.5,0,0,0,0,.1,0ZM512.9,951.3c.3-.1.5-.4.5-.7,1.8-7,2-18.3-4.9-22.7-.3-.2-.6-.3-1-.3-3.6-.2-7.5-.2-11.5.1-8.5.6-17.1,1.6-25.7,3.1-7.2,1.2-14,3.5-20.6,6.8-1,.5-1.6,1.6-1.6,2.7.1,3.6,1,13.6,4,15.8.3.2.6.3.9.3,4.3.2,8.7,0,13.4-.2,17.2-1.1,26.4-1.6,27.5-1.7,7.1-.6,13-1.5,17.5-2.7.5-.1,1-.3,1.4-.5ZM104.2,936.7c-4.7,2.8-10.5,8.5-12.4,13.9-1.4,3.9-1.6,8.2-.6,12.8,1.3,6,5.3,8.7,11,9.5,11.6,1.7,23.4,2.3,35.4,1.8,4.2-.2,8.3-.8,12.3-1.9,2.4-.7,3.8-1.1,4.6-3.6,1.2-3.9,1.3-7.7.1-11.5-1.3-4.2-6.5-5.3-10.6-5.8-9.7-1.1-19.7-1.6-30.1-1.3-3.3,0-5.5-.2-6.6-.8-5.3-2.8-3.9-7.7-2.1-12.3.1-.3,0-.7-.4-.9-.2,0-.4,0-.6,0ZM717.3,942.2c14.6,17.8,21.9,40.4,19.4,63.7-.5,4.4-2.1,8.7-3,13.4,0,.3.1.6.4.7,6.3,1.4,12.4,2.4,18.5.9,6.7-1.6,12.7-4.5,18.3-8.5,1.6-1.2,3.7-3.4,6.2-6.8,7-9.2,9.6-19.2,7.8-29.7-.5-2.6-1.2-4.7-2.1-6.2-2.9-4.5-7.1-10.6-11.1-14.1-8.9-8-20.1-12.2-32.5-14.6-4.9-.9-10.8-.9-17.7.2-1,.2-2.2.2-3.7,0-.3,0-.6.2-.7.6,0,.2,0,.3.1.4ZM596.2,946.7c1,3.9,2.5,8,3.4,12.9,2.7,14.2,2.3,28.4-1.2,42.6-.9,3.8-2.9,7.4-3.9,11.2-.2.8.2,1.6,1,1.8,0,0,.2,0,.3,0,12.2,1.1,25.2,2,39,3,26.3,1.8,49.1,1.8,73.1.8.8,0,1.6-.5,2.1-1.2,1.4-2.3,2.5-4.8,3.1-7.5,4.1-18.3.7-35-10.2-50.3-2.1-3-4.2-5.2-6.2-6.7-.5-.4-1.1-.6-1.8-.7-3.2-.5-5.1-.7-5.6-.7-34.1-1.8-59.1-3.4-74.9-4.7-5.4-.4-11.2-.8-17.6-1.2-.3,0-.6.2-.6.5,0,0,0,.1,0,.2ZM516.4,995.6c1.4-4,2.1-8.1,2.4-12.1,0-1.3-.7-4-2.2-8.1-.6-1.5-1.3-3.1-3.3-2.7-16.6,3-32.2,4.1-50.5,4.6-3.1,0-5.7,1.1-7.9,3-.2.2-.4.5-.5.8-.7,3.3-1.7,11.2,1.4,13.3,2.4,1.7,4.8,1.8,7.7,2.3,12.6,1.9,25,2.6,37.6.9,5.9-.8,10.8-1.3,14.6-1.4.3,0,.6-.2.7-.6ZM163,1005.3c-.3-1.8-1.8-10.6-4.2-12.3-.3-.2-.7-.3-1.1-.2-7.8,1.8-12.8,2.9-15.2,3.2-12.9,2-26.6.4-40.2-1.3-.6,0-1.5,0-2.7.1-.7,0-1.2.6-1.2,1.3-.5,6.4,0,17.4,7.9,19.3,14.8,3.4,29.4,1,44-2,5.2-1.1,9.4-3.5,12.5-7.2.2-.2.3-.6.2-.9ZM520.6,1016.3c-1.6-.2-3.3-.1-5.1.2-14.9,2.4-30.1,3-45.4,1.8-.5,0-1,.2-1.2.7-.8,1.7-1.4,3.7-1.6,6.1-.4,3.8,1,6.5,4.4,8,3.7,1.7,7.8,2.9,12.5,3.5,12.5,1.7,24.9,1.2,37.3-1.5.5-.1.8-.5.9-.9,1-5.8.7-11.5-1.1-17.2,0-.3-.4-.5-.7-.6ZM161.2,1031.9c-3,.9-6.9,1.8-11.8,2.9-11.6,2.4-23,3-34.1,1.6-.6,0-1.1.3-1.2.9-.7,3.2-.5,6.5.6,9.8.2.5.4.9.8,1.3,3.1,3.1,6.5,4.8,10.3,5.4,10,1.4,20.4-.2,31.1-4.8,3-1.3,5.8-3.1,8.3-5.5.5-.4.7-1,.6-1.7-.3-3.4-1.5-6.6-3.5-9.4-.2-.3-.7-.5-1.1-.4ZM534.1,1056.3c.6,4.5,1.9,12.9,3.9,25.2.6,3.8,1.4,7.3,2.2,10.5.1.5.6.9,1.1.9,1.6.2,3.7.3,6,.3,48.6,0,83.8-.4,105.5-1,.8,0,2.6-.2,5.4-.6.6,0,1-.6.9-1.2l-4.2-46.9c0-.5-.4-.8-.9-.9-21.6-1.4-44.3-3.2-68.3-5.2-2.5-.2-7.7-1.7-10.2.2-1.1.9-3.1,2.6-5.9,5-2,1.7-5.5,3.7-10.5,6-8.1,3.6-16.3,6-24.8,7.2-.2,0-.4.2-.4.5,0,0,0,0,0,0ZM678.8,1088.3c0,.2.2.4.4.4,0,0,0,0,0,0,8.2-2.7,19-6.2,32.3-10.6,15.5-5.2,24.5-8.8,40.5-14.6,3.7-1.3,10.8-5.1,11.6-8.7.9-4.1,1.1-8.3.4-12.5,0-.3-.3-.4-.5-.4,0,0,0,0,0,0-6.9,2.4-14.5,3.4-22.8,2.9-7.6-.4-13.6-2.3-21.5-3.8-.5,0-1.1-.1-1.6,0-13.3,1.1-27,1.6-41.3,1.4-.5,0-.9.4-.9.8,0,0,0,0,0,0l3.4,45.1ZM710.2,1103.6c-.8,0-1.6.2-2.1.4-11.2,4-21.3,7-30.4,9.2-6,1.4-13.2,2.4-18.5,2.4-14.3-.1-26.8-.1-37.5,0-.4,0-.7.3-.7.7-1,9.6-2,18.6-3,27-2.9,24.5-3.3,48.4-3.2,72.2,0,.7.5,1.2,1.1,1.4,27.1,5.4,54,5.3,80.8-.4,2.3-.5,4.5-1.2,6.5-2.1.4-.2.7-.7.7-1.1-.5-10.9-.6-21.6,0-33,1.4-25.5,3.6-51,6.6-76.3,0-.2-.1-.4-.3-.4,0,0,0,0,0,0ZM408.3,1203.8l.2,4.7c0,.5.3,1,.8,1.2,2.1.9,3.8,1.5,5.1,1.8,19.1,4.2,38.7,6.1,58.3,4.1,7.1-.7,13.3-1.6,18.5-2.6.7-.1,1.8-.6,3.3-1.3.3-.1.5-.4.5-.7l.8-10.4c0-.1,0-.3-.2-.3,0,0,0,0,0,0l-86.8,3.3c-.2,0-.3.2-.3.3,0,0,0,0,0,0ZM408.3,1232.2c-.1,2.6.1,11.2.7,26,.3,8.7,1,17.3,2,25.9,1.4,12.3,2.6,24.4,3.6,36.4,0,.4.3.8.7.9,3.1.9,6.5,1.7,10.1,2.3,24.9,4.3,50.4,3.5,75.4-.5.4,0,.6-.4.6-.8-2-25.1-4.5-49.8-5.8-67.2-.6-8.1-.9-14.7-1-19.8,0-.3-.3-.6-.6-.6,0,0,0,0,0,0-10.8,1.9-21.9,2.8-33.2,2.8-11,0-20.1,0-29.3-1.7-6.7-1.1-14.2-2.5-22.6-4.1-.2,0-.4,0-.4.3,0,0,0,0,0,0ZM615.7,1239c1.8,21.5,3.6,43.4,6.8,64.5,1.7,11.2,3,19.8,3.8,25.9,0,.4.3.8.6,1,1.1.8,2.5,1.3,4.3,1.6,21.8,4,43.5,3.9,65.5,1.5,5.5-.6,11-1.7,16.3-3.2.4-.1.7-.4.8-.8.1-.5,0-2.7-.5-6.6-1.8-16.5-3.7-31.6-5.5-45.2-.7-5-1.9-18.4-3.7-40.2,0-.3-.2-.4-.5-.4,0,0,0,0,0,0-24.3,5-48.4,6.3-72.1,4-4-.4-9.2-1.2-15.4-2.4-.2,0-.4,0-.4.3,0,0,0,0,0,0ZM349.3,1397.4c2.8.8,5.9,1.4,9.5,1.8,26.4,3.5,51.8,4.5,76.3,2.9,10.5-.7,23.3-2,38.5-3.9,13.2-1.6,25.9-3.8,38.1-6.6.7-.2,1.3-.9,1.2-1.6-1.3-14.5-3.5-29-6.7-43.6,0-.3-.3-.5-.7-.6-.8,0-1.9,0-3.3.2-5.5.7-16.1,2.7-23.8,3.4-24.3,2-48.2-.3-71.6-7-1-.3-2.1-.2-3,.1-15.6,5.9-29.5,14.6-41.5,26.2-7.7,7.4-12.4,16.5-13.9,27.2-.1.7.3,1.3,1,1.5ZM721.1,1352.9c-.1-.3-.5-.5-.8-.4-31.9,7.6-64,8-96.5,1.3-4-.8-11.8,4.1-15,6.2-14.4,9.8-27.8,24.1-33.1,41.1-.7,2.2-1.1,4.6-1.2,7.1,0,.3.2.6.5.8,1.5.6,2.7.9,3.4,1.1,13,2.6,26.3,4.1,39.9,4.5,19,.5,38.9.4,57.2-2.3,15.3-2.2,30.6-5.4,45.7-9.6,4.2-1.2,6.9-2.1,8.1-2.7.3-.1.5-.4.4-.8-.3-8.8-1.6-18.3-3.8-28.3-1.3-6-2.5-12.7-4.8-18.2Z"/>
  <path class="st0" d="M428.7,427.7c.2-.1.3-.4.1-.6,0,0,0,0,0-.1-5-4.2-9.7-8.6-14.1-13.4-4.5-4.9-5.9-11.2-1.1-16.4,3.5-3.8,8.1-3.9,12.5-1.9,1.1.5,2.5,1.6,4.2,3.4,11.3,11.5,25,19.7,41,24.7,17.8,5.6,35.8,7.1,54.5,7,5.3,0,10.2,3.6,10.9,8.8.9,6.5-2.4,12.3-9.6,11.9-.6,0-1.1.4-1.1,1,0,.2,0,.4.2.6,11.5,19.1,16.2,39.7,14.2,61.7-.8,8.4-3.4,17.5-8,27.2-9.4,20.1-27.4,32.4-49.5,34.6-19.5,2-37.8-6.1-52.9-19-7.1-6.1-12.9-13.2-17.4-21.3-17.7-32.4-17-71.9,7.4-100.6,2.7-3.1,5.6-5.7,8.7-7.6ZM477,554.6c-.1,0-.2.2-.2.3,0,.1.1.2.3.2,11.2-.3,20.7-4.1,28.4-11.4,6-5.7,11.2-15.2,12.8-23.2,4.3-21.7,0-45.5-14.2-63.2-2.2-2.7-4.1-5.1-6.7-5.4-15.9-2.3-30.6-7.2-45.8-12.5-.3,0-.5-.1-.8-.1-3.8,0-9,3.2-11.6,5.7-10.6,10.2-16.5,22.3-17.5,37.3-1.2,17.1,2.1,32.3,11.8,46.5,0,.1.3.2.4,0,0,0,.1-.2.1-.3-1.1-13.2,2.8-25.1,15.1-31.5,13.1-6.7,27.7-1,36.1,10.2,5.2,6.9,7.1,16.6,6.4,25-.7,8.3-6.3,19.1-14.6,22.2Z"/>
  <path class="st0" d="M225.9,495.3c-3.5,1.3-8,1.1-11.2-.6-4.6-2.5-6.8-8.7-4.8-13.4,1.5-3.6,4.4-6,8.7-7.1,9.4-2.5,17.5-5.4,24.3-8.9,3.9-2,9.1-5.3,15.5-10,13.5-9.8,23.7-22.2,30.4-37.3,1.3-2.8,2.4-4.7,3.5-5.6,5-4.3,12.3-2.6,15.5,2.6,4.7,7.5-3.1,19.6-6.8,25.9-.3.5-.1,1.2.4,1.6,0,0,.1,0,.2,0,17.6,6.8,31.9,17.2,41.8,33.6,9.1,15,13.8,31.1,14.1,48.4.4,20.1-4,40-16.5,55.5-5.3,6.6-15,13.2-23.1,16.4-19.6,7.6-39.2,4.3-56.1-7.6-5.2-3.7-9.6-7.5-13.3-11.6-19.6-21.6-26.9-48.3-23.3-77.1.1-1,1.3-4.4,1.3-4.4,0-.3-.4-.5-.8-.4,0,0,0,0,0,0ZM260.9,557.9c0-2.3-.8-4.5-.9-7-.5-11.8,4.2-22.8,14.5-28.7,11.9-6.8,27.9-2.3,35.8,8.9,9.8,13.8,10.9,34.2-3.3,45.5-.2.1-.2.3-.2.5,0,.3.3.5.6.4,0,0,0,0,.1,0,11.3-4.4,19.4-12.4,24.3-23.9,3.5-8.3,5.3-16.1,5.2-23.6,0-20.9-6.7-42.1-22.6-56.6-7.6-6.9-16.5-10.7-27-11.5-1.2,0-2.4.3-3.3,1.2-9,8.5-19.4,15.3-30.1,22-1.8,1.1-3.5,2.8-4.2,4.5-7.1,18.7-6,39.8,3.4,57.3,1.9,3.5,4.1,7.2,6.6,11.1.2.2.5.3.7.1.1,0,.2-.3.2-.4Z"/>
  <path class="st0" d="M501.3,642.8c1.9,9.5-7.9,15.7-15.8,10.4-4.1-2.8-8.4-5.3-12.8-7.7-17.1-9.1-35.4-12.9-55-11.5-5.7.4-10.9,1.1-15.6,2.2-15.8,3.4-29.5,10.6-40.9,21.6-5,4.8-9.6,13.4-17.4,11.3-6.6-1.8-10.8-10.7-6.5-16.5,6-8.2,11.4-14,16-17.5,15.9-11.9,34.5-19.5,54.4-21.9,16.1-1.9,31.6-1.4,46.6,2.7,5.1,1.4,8.4,2.3,9.9,2.8,9.3,3,18.4,7.4,27.3,13.1,4.9,3.2,8.7,5.8,9.7,10.9Z"/>
</svg>