<?xml version="1.0" encoding="UTF-8"?>
<svg id="Layer_1" xmlns="http://www.w3.org/2000/svg" version="1.1" viewBox="0 0 932 257.1">
  <!-- Generator: Adobe Illustrator 30.1.0, SVG Export Plug-In . SVG Version: 2.1.1 Build 136)  -->
  <defs>
    <style>
      .st0 {
        fill: #231f20;
      }

      .st1 {
        fill: #fff;
      }

      .st2 {
        fill: #565656;
      }

      .st3 {
        fill: #181818;
      }

      .st4 {
        fill: #f2f2f2;
      }

      .st5 {
        fill: #999;
      }
    </style>
  </defs>
  <g>
    <rect class="st2" x="27.9" y="44.2" width="144.4" height="197.5" rx="15.9" ry="15.9" transform="translate(-23.3 19.6) rotate(-10)"/>
    <rect class="st5" x="48.4" y="26.2" width="144.4" height="197.5" rx="15.9" ry="15.9" transform="translate(-10.4 11) rotate(-5)"/>
    <path class="st1" d="M205.3,53.9h-23.5c-8.4,0-15.3-6.8-15.3-15.3V15.3h-83.2c-1.8,0-3.5.5-5,1.4-.3.2-.5.3-.8.5-.5.4-.9.8-1.4,1.2-.1.1-.2.2-.3.3-.2.2-.4.5-.6.7-.3.4-.5.8-.7,1.2-.1.3-.3.6-.4.9-.4,1-.6,2.1-.6,3.3v165.5c0,1.2.2,2.3.6,3.3.1.3.2.6.4.9,0,.1.1.3.2.4.2.4.5.8.7,1.2,0,.1.2.2.3.4.3.4.6.7,1,1s.2.2.3.3c.4.3.7.6,1.1.8,1.5.9,3.2,1.4,5,1.4h112.4c1.2,0,2.3-.2,3.3-.6.1,0,.3-.1.4-.2.4-.2.8-.4,1.2-.6.4-.2.8-.5,1.1-.8.1,0,.2-.2.3-.3.3-.3.5-.5.8-.8.2-.2.3-.4.4-.5.2-.3.4-.6.6-.9.3-.5.5-1,.7-1.5.4-1,.6-2.1.6-3.3V53.9Z"/>
    <path class="st4" d="M181.8,47.5h19.1l-26.4-26.2-1.7-1.7v19c0,4.9,4,8.9,8.9,8.9Z"/>
    <path class="st3" d="M74.6,194.6c-.1-.3-.3-.6-.4-.9.1.3.2.6.4.9Z"/>
    <path class="st3" d="M75.6,196.1c-.3-.4-.5-.8-.7-1.2.2.4.5.8.7,1.2Z"/>
    <path class="st3" d="M74.3,21.6c.1-.3.2-.6.4-.9-.1.3-.3.6-.4.9Z"/>
    <path class="st3" d="M204,195.2c-.2.3-.4.6-.6.9.2-.3.4-.6.6-.9Z"/>
    <path class="st3" d="M201.8,197.8c-.4.3-.7.6-1.1.8.4-.2.8-.5,1.1-.8Z"/>
    <path class="st3" d="M78.3,198.6c-.4-.2-.8-.5-1.1-.8.4.3.7.6,1.1.8Z"/>
    <path class="st3" d="M166.5,15.3h-83.2c-1.8,0-3.5.5-5,1.4,1.5-.9,3.2-1.4,5-1.4h83.2Z"/>
    <path class="st3" d="M75.3,19.5c.2-.3.4-.5.6-.7-.2.2-.4.5-.6.7Z"/>
    <path class="st3" d="M75.9,196.5c.3.4.6.7,1,1-.3-.3-.7-.6-1-1Z"/>
    <line class="st3" x1="177.5" y1="15.3" x2="177.5" y2="15.3"/>
    <path class="st3" d="M202.2,197.5c.3-.3.5-.5.8-.8-.2.3-.5.6-.8.8Z"/>
    <path class="st3" d="M73.7,24.9c0-1.2.2-2.3.6-3.3-.4,1-.6,2.1-.6,3.3v165.5c0,1.2.2,2.3.6,3.3-.4-1-.6-2.1-.6-3.3V24.9Z"/>
    <path class="st3" d="M77.5,17.2c-.5.4-.9.8-1.4,1.2.4-.5.9-.9,1.4-1.2Z"/>
    <path class="st3" d="M211.1,48.6l-5.7-5.7-27.9-27.6h0l-5.8-5.8c-.4-.4-.9-.6-1.5-.6h-86.9c-8.8,0-16,7.2-16,16v165.5c0,8.8,7.2,16,16,16h112.4c8.8,0,16-7.2,16-16V50.1c0-.6-.2-1.1-.6-1.5ZM200.9,47.5h-19.1c-4.9,0-8.9-4-8.9-8.9v-19l1.7,1.7,26.4,26.2ZM205.3,190.4c0,1.2-.2,2.3-.6,3.3-.2.5-.4,1-.7,1.5-.2.3-.4.6-.6.9-.1.2-.3.4-.4.5-.2.3-.5.6-.8.8-.1.1-.2.2-.3.3-.4.3-.7.6-1.1.8-.4.2-.8.5-1.2.6-.1,0-.3.1-.4.2-1,.4-2.1.6-3.3.6h-112.4c-1.8,0-3.5-.5-5-1.4-.4-.2-.8-.5-1.1-.8-.1,0-.2-.2-.3-.3-.3-.3-.7-.6-1-1,0-.1-.2-.2-.3-.4-.3-.4-.5-.8-.7-1.2,0-.1-.1-.3-.2-.4-.1-.3-.3-.6-.4-.9-.4-1-.6-2.1-.6-3.3V24.9c0-1.2.2-2.3.6-3.3.1-.3.2-.6.4-.9.2-.4.4-.8.7-1.2.2-.3.4-.5.6-.7,0-.1.2-.2.3-.3.4-.5.9-.9,1.4-1.2.2-.2.5-.4.8-.5,1.5-.9,3.2-1.4,5-1.4h83.2v23.3c0,8.4,6.8,15.3,15.3,15.3h23.5v136.5Z"/>
    <path d="M137.6,165c-19.1,2.1-35.3-11.3-38.8-29.9-4-6-6.7-12.5-6.4-19.8.6-14.8,10.9-27.5,24.2-33.2,3.9-1.7,8-2.6,12.2-3.5,8.5-4.1,17.9-5.3,27.3-3.5,15.5,4.4,25.3,16.3,25.8,32.6,5.9,11.6,4.9,25.1-2.7,35.8s-15.2,13.7-25.3,15.7c-5.2,2.8-10.4,5.1-16.4,5.7ZM174.9,98.5c-3.7-11.9-16.4-19.9-28.5-18.8,4.1,1.3,7.7,3,11.3,5.2s5.4,4.4,8.3,6.6l8.9,7ZM151.6,88c-4.9-3.6-21.8-7-25.4-1.1,12.7-3.2,14.2-1.1,25.4,1.1ZM98.8,122c1.2-9,4.8-16.3,10.2-23,2.3-3.8,4.6-7.2,7.3-10.8-11.9,5.5-21.8,21.3-17.5,33.8ZM115.7,107c3.9-7.2,10-12.2,16.8-15.9-7,1.1-14.2,4.6-18.2,10.6-3.6,5.5-3.7,12.8-3.1,19.2,1-4.8,1.8-9.4,4.4-13.9ZM163.5,127.4c1.4-2,3.2-4.6,3-7-.8-10.6-8.5-23-18.7-26.9-11.3-.2-21.2,5.8-26.9,15.2s-5.4,15.9-2.7,24.2c1.5,4.7,4.7,7.9,9.8,8.9,12.5,2.5,27.9-4,35.5-14.6ZM161.5,96.6c2.3,2.9,4.3,5.8,6.3,8.9-.9-4-2-7.8-6.3-8.9ZM172.6,125.9c2.6-5.2,3.9-10.4,3.9-16.1s-1.5-3.4-2.7-4.6c1,5.7.9,11-1,16.5-.4,1.2-.3,3-.2,4.2ZM113,139.4c-5.1-7.2-7.4-14.8-7.5-22.9-1.8,5.1-2.2,10.2-1.7,15.5,2.7,2.9,5.4,5.9,9.2,7.4ZM164.5,149.7c9.6-4.3,17.4-18.1,15.8-28.6-2.4,7.6-6.9,13-10.5,19.5l-5.2,9.2ZM163.3,138.7c1.4-1.7,2.5-3.2,2.2-5.4-7.1,7.6-15.9,12.1-25.9,14,8.9.5,17.2-2.8,23.7-8.6ZM133.8,156.6c-4.1-2.1-7.8-4.4-11.4-7.1-5.7-1.6-10.8-4-15.9-7.6,5.8,13.2,20.5,20.9,34.5,16.8-2.4-.5-4.6-1.2-7.2-2.2ZM157.2,149.2c-5.5,2.3-10.7,3.6-16.7,3.5,5.9,1.7,13,3.1,16.7-3.5Z"/>
  </g>
  <g>
    <path class="st0" d="M241.6,184l15.5-110.7h14.7l-6.8,49.3h55.3l6.8-49.3h14.7l-15.5,110.7h-14.7l6.8-48h-55.4l-6.7,48h-14.7Z"/>
    <path class="st0" d="M380.9,185.8c-5.9,0-11.1-1.4-15.4-4.2-4.3-2.8-7.4-6.7-9.3-11.7-1.9-5.1-2.4-11-1.5-17.8l6.8-48.1h14l-7,48.7c-.5,4-.1,7.4,1,10.4,1.2,3,3.1,5.3,5.6,6.9,2.6,1.6,5.7,2.5,9.5,2.5s7.4-.9,10.6-2.6c3.2-1.7,5.8-4.2,8-7.4,2.1-3.2,3.5-6.9,4.2-11.3l6.5-47.3h14l-11.1,80.1h-13.5l2.1-15.6,2.1,1.8c-2.7,5.1-6.3,8.9-11,11.6-4.7,2.7-9.9,4-15.6,4Z"/>
    <path class="st0" d="M479.6,185.8c-7.4,0-14-1.7-19.7-5.1-5.7-3.4-10.2-8-13.4-13.9-3.2-5.9-4.8-12.6-4.8-20.1s1-11.7,3.1-17.1c2.1-5.3,5-10.1,8.8-14.3,3.8-4.2,8.2-7.4,13.2-9.7,5.1-2.3,10.6-3.5,16.5-3.5s14.1,1.7,19.3,5.1c5.3,3.4,9.3,7.8,12,13.2,2.8,5.4,4.2,11.3,4.2,17.6s-.1,3.5-.4,5.4c-.3,1.9-.6,3.5-.9,4.9h-65.7l.7-12h57.8l-7.1,5.2c1.4-5,1.3-9.5-.1-13.5-1.5-4.1-4-7.3-7.5-9.7-3.5-2.4-7.7-3.6-12.4-3.6s-10.9,1.5-14.9,4.5-7,7-9.1,12.2c-2,5.2-3,11.1-3,17.8s1.1,9.3,3.2,12.9c2.1,3.7,5,6.5,8.5,8.4s7.5,2.9,11.9,2.9,10.1-1.3,14-3.8c3.9-2.5,7.1-5.7,9.6-9.6l11.4,6.4c-1.9,3.7-4.6,7-8,10-3.5,3-7.5,5.3-12.2,7.1-4.7,1.7-9.7,2.6-15,2.6Z"/>
    <path class="st0" d="M539.1,184v-110.7h42.5c7.6,0,14.4,1.3,20.3,4,5.9,2.7,10.5,6.6,13.9,11.9,3.4,5.3,5.1,11.7,5.1,19.5s-1.7,13.9-5.1,19.2c-3.4,5.3-8.1,9.2-14,12-5.9,2.7-12.6,4.1-20.1,4.1h-19.5v40.1h-23ZM562.1,123.8h19.6c3.3,0,6.1-.6,8.5-1.9,2.4-1.3,4.2-3.1,5.6-5.4,1.3-2.3,2-4.9,2-7.9s-.7-5.7-2-8c-1.3-2.3-3.2-4.1-5.6-5.4-2.4-1.3-5.2-1.9-8.5-1.9h-19.6v30.5Z"/>
    <path class="st0" d="M633.8,184v-81.1h20.8v19.5l-1.5-2.8c1.8-6.8,4.7-11.5,8.8-13.9,4.1-2.4,9-3.6,14.6-3.6h4.8v19.3h-7c-5.5,0-9.9,1.7-13.2,5-3.4,3.3-5.1,8-5.1,14v43.7h-22.3Z"/>
    <path class="st0" d="M730.4,185.8c-8.6,0-16.1-1.9-22.4-5.7-6.3-3.8-11.2-8.9-14.7-15.4-3.5-6.4-5.2-13.6-5.2-21.4s1.8-15.4,5.4-21.7c3.6-6.3,8.5-11.3,14.6-15,6.1-3.7,13.1-5.5,20.8-5.5s12.1,1,17.1,3c5,2,9.1,4.9,12.6,8.5,3.4,3.7,6,7.9,7.8,12.7,1.8,4.8,2.7,10,2.7,15.7s0,3.1-.2,4.7c-.1,1.5-.4,2.8-.8,3.9h-60.8v-16.3h48.1l-10.6,7.7c1-4.3.9-8-.2-11.4-1.1-3.3-3-5.9-5.7-7.9-2.7-1.9-6.1-2.9-10-2.9s-7.2.9-10,2.8c-2.8,1.9-4.9,4.7-6.2,8.3-1.4,3.7-1.9,8.1-1.6,13.4-.4,4.6.1,8.6,1.6,12,1.5,3.5,3.8,6.2,6.8,8.1,3.1,1.9,6.8,2.9,11.1,2.9s7.4-.8,10.2-2.4c2.8-1.6,5-3.8,6.6-6.5l17.8,8.5c-1.6,4-4.1,7.4-7.5,10.4s-7.5,5.3-12.1,6.9c-4.7,1.6-9.8,2.5-15.3,2.5Z"/>
    <path class="st0" d="M814.3,185.8c-8.9,0-16.7-2.1-23.3-6.3-6.6-4.2-11.1-9.9-13.4-17l16.3-7.7c2.1,4.4,4.9,7.8,8.5,10.3,3.6,2.5,7.5,3.7,11.9,3.7s5.6-.6,7.3-1.9c1.7-1.3,2.5-3.1,2.5-5.4s-.3-2.2-.9-3c-.6-.8-1.5-1.6-2.7-2.3-1.2-.7-2.7-1.3-4.5-1.8l-13.8-3.9c-6.6-1.9-11.7-4.9-15.3-9.1-3.6-4.2-5.3-9.2-5.3-14.9s1.3-9.5,3.9-13.2c2.6-3.8,6.2-6.7,10.8-8.8,4.7-2.1,10-3.2,16-3.2s14.9,1.9,20.9,5.6c6,3.7,10.2,8.9,12.7,15.7l-16.5,7.7c-1.2-3.4-3.3-6.1-6.5-8.1-3.1-2-6.7-3-10.6-3s-5.1.6-6.8,1.8c-1.6,1.2-2.5,2.8-2.5,4.9s.3,2.1.9,3,1.6,1.7,2.9,2.4c1.3.7,3,1.3,5,1.9l12.9,3.9c6.7,2,11.9,5,15.5,9s5.4,8.9,5.4,14.8-1.3,9.5-3.9,13.2c-2.6,3.8-6.3,6.7-10.9,8.8-4.7,2.1-10.2,3.2-16.5,3.2Z"/>
    <path class="st0" d="M892.5,185.8c-8.9,0-16.7-2.1-23.3-6.3-6.6-4.2-11.1-9.9-13.4-17l16.3-7.7c2.1,4.4,4.9,7.8,8.5,10.3,3.6,2.5,7.5,3.7,11.9,3.7s5.6-.6,7.3-1.9c1.7-1.3,2.5-3.1,2.5-5.4s-.3-2.2-.9-3c-.6-.8-1.5-1.6-2.7-2.3-1.2-.7-2.7-1.3-4.5-1.8l-13.8-3.9c-6.6-1.9-11.7-4.9-15.3-9.1-3.6-4.2-5.3-9.2-5.3-14.9s1.3-9.5,3.9-13.2c2.6-3.8,6.2-6.7,10.8-8.8,4.7-2.1,10-3.2,16-3.2s14.9,1.9,20.9,5.6c6,3.7,10.2,8.9,12.7,15.7l-16.5,7.7c-1.2-3.4-3.3-6.1-6.5-8.1-3.1-2-6.7-3-10.6-3s-5.1.6-6.8,1.8c-1.6,1.2-2.5,2.8-2.5,4.9s.3,2.1.9,3,1.6,1.7,2.9,2.4c1.3.7,3,1.3,5,1.9l12.9,3.9c6.7,2,11.9,5,15.5,9s5.4,8.9,5.4,14.8-1.3,9.5-3.9,13.2c-2.6,3.8-6.3,6.7-10.9,8.8-4.7,2.1-10.2,3.2-16.5,3.2Z"/>
  </g>
</svg>