<?xml version="1.0" encoding="UTF-8"?>
<svg xmlns="http://www.w3.org/2000/svg" version="1.1" viewBox="0 0 595.3 841.9">
  <!-- Generator: Adobe Illustrator 30.1.0, SVG Export Plug-In . SVG Version: 2.1.1 Build 136)  -->
  <defs>
    <style>
      .st0, .st1 {
        fill: none;
      }

      .st2 {
        fill: #231f20;
      }

      .st3, .st4 {
        fill: #fcfcfc;
        stroke: #e6e6e6;
      }

      .st3, .st1 {
        stroke-width: .5px;
      }

      .st4 {
        stroke-width: .4px;
      }

      .st1 {
        stroke: #c8c8c8;
      }

      .st5 {
        fill: #303030;
      }

      .st6 {
        fill: #fff;
      }

      .st7 {
        fill: #565656;
      }

      .st8 {
        fill: #f2f2f2;
      }

      .st9 {
        fill: #181818;
      }

      .st10 {
        fill: #999;
      }
    </style>
  </defs>
  <g id="Layer_1">
    <rect class="st6" y="0" width="595.3" height="841.9"/>
    <line class="st1" x1="113" y1="145" x2="482" y2="145"/>
    <rect class="st3" x="57" y="184" width="482" height="74" rx="6" ry="6"/>
    <rect class="st4" x="57" y="435.8" width="482" height="66.8" rx="5.1" ry="5.1"/>
    <rect class="st4" x="57" y="543.5" width="482" height="66.8" rx="5.1" ry="5.1"/>
    <path class="st5" d="M86.5,557.1h2.4c.6,0,1,0,1.4.3.4,0,.7.3,1,.7.3.3.5.6.7,1,0,.4.2.8.3,1.4v4.8c0,.6,0,1-.3,1.4,0,.4-.4.7-.7,1-.3.3-.6.5-1,.7-.4,0-.8.2-1.4.3h-4.8c-.6,0-1,0-1.4-.3-.4,0-.7-.4-1-.7s-.5-.6-.7-1c0-.4-.2-.8-.3-1.4v-4.8c0-.6,0-1,.3-1.4,0-.4.4-.7.7-1,.3-.3.6-.5,1-.7.4,0,.8-.2,1.4-.3h2.4ZM86.5,560c-1.6,0-2.9,1.3-2.9,2.9s1.3,2.9,2.9,2.9,2.9-1.3,2.9-2.9-1.3-2.9-2.9-2.9ZM90.3,559.8c0-.4-.3-.7-.7-.7s-.7.3-.7.7.3.7.7.7.7-.3.7-.7ZM86.5,561.2c1,0,1.7.8,1.7,1.7s-.8,1.7-1.7,1.7-1.7-.8-1.7-1.7.8-1.7,1.7-1.7Z"/>
    <path class="st5" d="M284.5,557.1c-3.2,0-5.8,2.6-5.8,5.8s2.1,5.3,4.9,5.8v-4.1h-1.5v-1.7h1.5v-1.3c0-1.5.9-2.3,2.2-2.3s1.3,0,1.3,0v1.4h-.7c-.7,0-1,.4-1,.9v1.1h1.6l-.3,1.7h-1.4v4.1c2.8-.4,4.9-2.9,4.9-5.8s-2.6-5.8-5.8-5.8h0Z"/>
    <path class="st5" d="M86.5,582.1c-3.2,0-5.8,2.6-5.8,5.8s1.5,4.6,3.8,5.5v-1.7c0-.5.6-2.7.6-2.7,0,0-.2-.3-.2-.8,0-.8.4-1.3,1-1.3s.7.4.7.8-.3,1.2-.4,1.8c0,.5.3,1,.8,1,1,0,1.7-1,1.7-2.5s-1-2.2-2.3-2.2-2.7,1.3-2.7,2.6.2,1.1.4,1.3v.2l-.2.7q0,0-.2,0c-.7-.3-1.2-1.4-1.2-2.2,0-1.8,1.3-3.5,3.8-3.5s3.5,1.4,3.5,3.3-1.2,3.6-3,3.6-1.1-.3-1.3-.7l-.4,1.4c0,.5-.5,1.1-.7,1.5.5.2,1.1.3,1.7.3,3.2,0,5.8-2.6,5.8-5.8s-2.4-6.2-5.6-6.2l.2-.2Z"/>
    <path class="st5" d="M284.5,582.1c-3.2,0-5.8,2.6-5.8,5.8s2.6,5.8,5.8,5.8,5.8-2.6,5.8-5.8-2.6-5.8-5.8-5.8ZM283.9,592.5c-2.3-.3-4.1-2.2-4.1-4.6s0-.7.1-1l2.8,2.8v.6c0,.6.5,1.2,1.2,1.2v1.1h0ZM287.9,591.1c-.2-.5-.6-.8-1.1-.8h-.6v-1.7c0-.3-.3-.6-.6-.6h-3.5v-1.2h1.2c.3,0,.6-.3.6-.6v-1.2h1.2c.6,0,1.2-.5,1.2-1.2v-.2c1.7.7,2.9,2.4,2.9,4.3s-.5,2.3-1.2,3.1h-.1Z"/>
    <rect class="st4" x="57" y="662.1" width="482" height="66.8" rx="5.1" ry="5.1"/>
    <rect class="st3" x="57" y="301.1" width="482" height="91" rx="6" ry="6"/>
    <g>
      <rect class="st6" x="83" y="310.9" width="56.2" height="56.2"/>
      <g>
        <path d="M84.3,369.4h53.8c1.8,0,3.3-1.5,3.3-3.3v-53.8c0-2-1.5-3.5-3.3-3.5h-54.1c-1.8,0-3.3,1.5-3.3,3.3v53.8c0,2,1.5,3.5,3.3,3.5,0,0,.3,0,.3,0ZM83.3,313.8c0-1.5,1.3-2.5,2.5-2.5h50.6c1.5,0,2.5,1.3,2.5,2.5v50.6c0,1.5-1.3,2.5-2.5,2.5h-50.6c-1.5,0-2.5-1.3-2.5-2.5,0,0,0-50.6,0-50.6Z"/>
        <path d="M83.3,384.5h55.6c1.3,0,2.5-1,2.5-2.5v-7.6c0-1.3-1-2.5-2.5-2.5h-25.3l-2.5-2.5-2.5,2.5h-25.3c-1.3,0-2.5,1-2.5,2.5v7.6c0,1.5,1,2.5,2.5,2.5h0Z"/>
      </g>
      <g>
        <rect x="98.6" y="314.8" width="1.5" height="1.5"/>
        <rect x="101.5" y="314.8" width="1.5" height="1.5"/>
        <rect x="104.4" y="314.8" width="1.5" height="1.5"/>
        <rect x="110.3" y="314.8" width="1.5" height="1.5"/>
        <rect x="116.2" y="314.8" width="1.5" height="1.5"/>
        <rect x="117.7" y="314.8" width="1.5" height="1.5"/>
        <rect x="120.6" y="314.8" width="1.5" height="1.5"/>
        <rect x="122.1" y="314.8" width="1.5" height="1.5"/>
        <rect x="98.6" y="316.2" width="1.5" height="1.5"/>
        <rect x="104.4" y="316.2" width="1.5" height="1.5"/>
        <rect x="105.9" y="316.2" width="1.5" height="1.5"/>
        <rect x="107.4" y="316.2" width="1.5" height="1.5"/>
        <rect x="108.9" y="316.2" width="1.5" height="1.5"/>
        <rect x="110.3" y="316.2" width="1.5" height="1.5"/>
        <rect x="113.3" y="316.2" width="1.5" height="1.5"/>
        <rect x="114.7" y="316.2" width="1.5" height="1.5"/>
        <rect x="122.1" y="316.2" width="1.5" height="1.5"/>
        <rect x="98.6" y="317.7" width="1.5" height="1.5"/>
        <rect x="100" y="317.7" width="1.5" height="1.5"/>
        <rect x="103" y="317.7" width="1.5" height="1.5"/>
        <rect x="104.4" y="317.7" width="1.5" height="1.5"/>
        <rect x="107.4" y="317.7" width="1.5" height="1.5"/>
        <rect x="108.9" y="317.7" width="1.5" height="1.5"/>
        <rect x="111.8" y="317.7" width="1.5" height="1.5"/>
        <rect x="113.3" y="317.7" width="1.5" height="1.5"/>
        <rect x="116.2" y="317.7" width="1.5" height="1.5"/>
        <rect x="117.7" y="317.7" width="1.5" height="1.5"/>
        <rect x="119.2" y="317.7" width="1.5" height="1.5"/>
        <rect x="120.6" y="317.7" width="1.5" height="1.5"/>
        <rect x="122.1" y="317.7" width="1.5" height="1.5"/>
        <rect x="101.5" y="319.2" width="1.5" height="1.5"/>
        <rect x="104.4" y="319.2" width="1.5" height="1.5"/>
        <rect x="105.9" y="319.2" width="1.5" height="1.5"/>
        <rect x="107.4" y="319.2" width="1.5" height="1.5"/>
        <rect x="108.9" y="319.2" width="1.5" height="1.5"/>
        <rect x="111.8" y="319.2" width="1.5" height="1.5"/>
        <rect x="113.3" y="319.2" width="1.5" height="1.5"/>
        <rect x="116.2" y="319.2" width="1.5" height="1.5"/>
        <rect x="119.2" y="319.2" width="1.5" height="1.5"/>
        <rect x="120.6" y="319.2" width="1.5" height="1.5"/>
        <rect x="100" y="320.7" width="1.5" height="1.5"/>
        <rect x="101.5" y="320.7" width="1.5" height="1.5"/>
        <rect x="103" y="320.7" width="1.5" height="1.5"/>
        <rect x="104.4" y="320.7" width="1.5" height="1.5"/>
        <rect x="105.9" y="320.7" width="1.5" height="1.5"/>
        <rect x="107.4" y="320.7" width="1.5" height="1.5"/>
        <rect x="108.9" y="320.7" width="1.5" height="1.5"/>
        <rect x="111.8" y="320.7" width="1.5" height="1.5"/>
        <rect x="113.3" y="320.7" width="1.5" height="1.5"/>
        <rect x="119.2" y="320.7" width="1.5" height="1.5"/>
        <rect x="122.1" y="320.7" width="1.5" height="1.5"/>
        <rect x="98.6" y="322.1" width="1.5" height="1.5"/>
        <rect x="100" y="322.1" width="1.5" height="1.5"/>
        <rect x="101.5" y="322.1" width="1.5" height="1.5"/>
        <rect x="103" y="322.1" width="1.5" height="1.5"/>
        <rect x="107.4" y="322.1" width="1.5" height="1.5"/>
        <rect x="111.8" y="322.1" width="1.5" height="1.5"/>
        <rect x="117.7" y="322.1" width="1.5" height="1.5"/>
        <rect x="98.6" y="323.6" width="1.5" height="1.5"/>
        <rect x="101.5" y="323.6" width="1.5" height="1.5"/>
        <rect x="104.4" y="323.6" width="1.5" height="1.5"/>
        <rect x="107.4" y="323.6" width="1.5" height="1.5"/>
        <rect x="110.3" y="323.6" width="1.5" height="1.5"/>
        <rect x="113.3" y="323.6" width="1.5" height="1.5"/>
        <rect x="116.2" y="323.6" width="1.5" height="1.5"/>
        <rect x="119.2" y="323.6" width="1.5" height="1.5"/>
        <rect x="122.1" y="323.6" width="1.5" height="1.5"/>
        <rect x="98.6" y="325.1" width="1.5" height="1.5"/>
        <rect x="101.5" y="325.1" width="1.5" height="1.5"/>
        <rect x="103" y="325.1" width="1.5" height="1.5"/>
        <rect x="105.9" y="325.1" width="1.5" height="1.5"/>
        <rect x="110.3" y="325.1" width="1.5" height="1.5"/>
        <rect x="111.8" y="325.1" width="1.5" height="1.5"/>
        <rect x="114.7" y="325.1" width="1.5" height="1.5"/>
        <rect x="117.7" y="325.1" width="1.5" height="1.5"/>
        <rect x="119.2" y="325.1" width="1.5" height="1.5"/>
        <rect x="122.1" y="325.1" width="1.5" height="1.5"/>
        <rect x="89.7" y="326.5" width="1.5" height="1.5"/>
        <rect x="91.2" y="326.5" width="1.5" height="1.5"/>
        <rect x="92.7" y="326.5" width="1.5" height="1.5"/>
        <rect x="95.6" y="326.5" width="1.5" height="1.5"/>
        <rect x="98.6" y="326.5" width="1.5" height="1.5"/>
        <rect x="100" y="326.5" width="1.5" height="1.5"/>
        <rect x="101.5" y="326.5" width="1.5" height="1.5"/>
        <rect x="103" y="326.5" width="1.5" height="1.5"/>
        <rect x="104.4" y="326.5" width="1.5" height="1.5"/>
        <rect x="108.9" y="326.5" width="1.5" height="1.5"/>
        <rect x="110.3" y="326.5" width="1.5" height="1.5"/>
        <rect x="111.8" y="326.5" width="1.5" height="1.5"/>
        <rect x="113.3" y="326.5" width="1.5" height="1.5"/>
        <rect x="114.7" y="326.5" width="1.5" height="1.5"/>
        <rect x="119.2" y="326.5" width="1.5" height="1.5"/>
        <rect x="122.1" y="326.5" width="1.5" height="1.5"/>
        <rect x="123.6" y="326.5" width="1.5" height="1.5"/>
        <rect x="125" y="326.5" width="1.5" height="1.5"/>
        <rect x="126.5" y="326.5" width="1.5" height="1.5"/>
        <rect x="130.9" y="326.5" width="1.5" height="1.5"/>
        <rect x="132.4" y="326.5" width="1.5" height="1.5"/>
        <rect x="133.9" y="326.5" width="1.5" height="1.5"/>
        <rect x="89.7" y="328" width="1.5" height="1.5"/>
        <rect x="91.2" y="328" width="1.5" height="1.5"/>
        <rect x="94.2" y="328" width="1.5" height="1.5"/>
        <rect x="100" y="328" width="1.5" height="1.5"/>
        <rect x="103" y="328" width="1.5" height="1.5"/>
        <rect x="104.4" y="328" width="1.5" height="1.5"/>
        <rect x="105.9" y="328" width="1.5" height="1.5"/>
        <rect x="111.8" y="328" width="1.5" height="1.5"/>
        <rect x="116.2" y="328" width="1.5" height="1.5"/>
        <rect x="120.6" y="328" width="1.5" height="1.5"/>
        <rect x="123.6" y="328" width="1.5" height="1.5"/>
        <rect x="125" y="328" width="1.5" height="1.5"/>
        <rect x="130.9" y="328" width="1.5" height="1.5"/>
        <rect x="132.4" y="328" width="1.5" height="1.5"/>
        <rect x="133.9" y="328" width="1.5" height="1.5"/>
        <rect x="86.8" y="329.5" width="1.5" height="1.5"/>
        <rect x="91.2" y="329.5" width="1.5" height="1.5"/>
        <rect x="94.2" y="329.5" width="1.5" height="1.5"/>
        <rect x="95.6" y="329.5" width="1.5" height="1.5"/>
        <rect x="97.1" y="329.5" width="1.5" height="1.5"/>
        <rect x="98.6" y="329.5" width="1.5" height="1.5"/>
        <rect x="100" y="329.5" width="1.5" height="1.5"/>
        <rect x="107.4" y="329.5" width="1.5" height="1.5"/>
        <rect x="108.9" y="329.5" width="1.5" height="1.5"/>
        <rect x="110.3" y="329.5" width="1.5" height="1.5"/>
        <rect x="111.8" y="329.5" width="1.5" height="1.5"/>
        <rect x="114.7" y="329.5" width="1.5" height="1.5"/>
        <rect x="119.2" y="329.5" width="1.5" height="1.5"/>
        <rect x="122.1" y="329.5" width="1.5" height="1.5"/>
        <rect x="126.5" y="329.5" width="1.5" height="1.5"/>
        <rect x="129.5" y="329.5" width="1.5" height="1.5"/>
        <rect x="132.4" y="329.5" width="1.5" height="1.5"/>
        <rect x="86.8" y="330.9" width="1.5" height="1.5"/>
        <rect x="88.3" y="330.9" width="1.5" height="1.5"/>
        <rect x="91.2" y="330.9" width="1.5" height="1.5"/>
        <rect x="92.7" y="330.9" width="1.5" height="1.5"/>
        <rect x="97.1" y="330.9" width="1.5" height="1.5"/>
        <rect x="104.4" y="330.9" width="1.5" height="1.5"/>
        <rect x="105.9" y="330.9" width="1.5" height="1.5"/>
        <rect x="113.3" y="330.9" width="1.5" height="1.5"/>
        <rect x="114.7" y="330.9" width="1.5" height="1.5"/>
        <rect x="120.6" y="330.9" width="1.5" height="1.5"/>
        <rect x="129.5" y="330.9" width="1.5" height="1.5"/>
        <rect x="130.9" y="330.9" width="1.5" height="1.5"/>
        <rect x="86.8" y="332.4" width="1.5" height="1.5"/>
        <rect x="92.7" y="332.4" width="1.5" height="1.5"/>
        <rect x="94.2" y="332.4" width="1.5" height="1.5"/>
        <rect x="95.6" y="332.4" width="1.5" height="1.5"/>
        <rect x="97.1" y="332.4" width="1.5" height="1.5"/>
        <rect x="100" y="332.4" width="1.5" height="1.5"/>
        <rect x="103" y="332.4" width="1.5" height="1.5"/>
        <rect x="105.9" y="332.4" width="1.5" height="1.5"/>
        <rect x="110.3" y="332.4" width="1.5" height="1.5"/>
        <rect x="114.7" y="332.4" width="1.5" height="1.5"/>
        <rect x="117.7" y="332.4" width="1.5" height="1.5"/>
        <rect x="119.2" y="332.4" width="1.5" height="1.5"/>
        <rect x="123.6" y="332.4" width="1.5" height="1.5"/>
        <rect x="126.5" y="332.4" width="1.5" height="1.5"/>
        <rect x="133.9" y="332.4" width="1.5" height="1.5"/>
        <rect x="91.2" y="333.9" width="1.5" height="1.5"/>
        <rect x="92.7" y="333.9" width="1.5" height="1.5"/>
        <rect x="94.2" y="333.9" width="1.5" height="1.5"/>
        <rect x="100" y="333.9" width="1.5" height="1.5"/>
        <rect x="107.4" y="333.9" width="1.5" height="1.5"/>
        <rect x="108.9" y="333.9" width="1.5" height="1.5"/>
        <rect x="111.8" y="333.9" width="1.5" height="1.5"/>
        <rect x="113.3" y="333.9" width="1.5" height="1.5"/>
        <rect x="120.6" y="333.9" width="1.5" height="1.5"/>
        <rect x="123.6" y="333.9" width="1.5" height="1.5"/>
        <rect x="125" y="333.9" width="1.5" height="1.5"/>
        <rect x="128" y="333.9" width="1.5" height="1.5"/>
        <rect x="129.5" y="333.9" width="1.5" height="1.5"/>
        <rect x="133.9" y="333.9" width="1.5" height="1.5"/>
        <rect x="89.7" y="335.4" width="1.5" height="1.5"/>
        <rect x="92.7" y="335.4" width="1.5" height="1.5"/>
        <rect x="95.6" y="335.4" width="1.5" height="1.5"/>
        <rect x="97.1" y="335.4" width="1.5" height="1.5"/>
        <rect x="98.6" y="335.4" width="1.5" height="1.5"/>
        <rect x="100" y="335.4" width="1.5" height="1.5"/>
        <rect x="103" y="335.4" width="1.5" height="1.5"/>
        <rect x="105.9" y="335.4" width="1.5" height="1.5"/>
        <rect x="107.4" y="335.4" width="1.5" height="1.5"/>
        <rect x="110.3" y="335.4" width="1.5" height="1.5"/>
        <rect x="114.7" y="335.4" width="1.5" height="1.5"/>
        <rect x="119.2" y="335.4" width="1.5" height="1.5"/>
        <rect x="126.5" y="335.4" width="1.5" height="1.5"/>
        <rect x="128" y="335.4" width="1.5" height="1.5"/>
        <rect x="132.4" y="335.4" width="1.5" height="1.5"/>
        <rect x="86.8" y="336.8" width="1.5" height="1.5"/>
        <rect x="88.3" y="336.8" width="1.5" height="1.5"/>
        <rect x="91.2" y="336.8" width="1.5" height="1.5"/>
        <rect x="94.2" y="336.8" width="1.5" height="1.5"/>
        <rect x="100" y="336.8" width="1.5" height="1.5"/>
        <rect x="101.5" y="336.8" width="1.5" height="1.5"/>
        <rect x="105.9" y="336.8" width="1.5" height="1.5"/>
        <rect x="107.4" y="336.8" width="1.5" height="1.5"/>
        <rect x="113.3" y="336.8" width="1.5" height="1.5"/>
        <rect x="116.2" y="336.8" width="1.5" height="1.5"/>
        <rect x="117.7" y="336.8" width="1.5" height="1.5"/>
        <rect x="119.2" y="336.8" width="1.5" height="1.5"/>
        <rect x="125" y="336.8" width="1.5" height="1.5"/>
        <rect x="128" y="336.8" width="1.5" height="1.5"/>
        <rect x="129.5" y="336.8" width="1.5" height="1.5"/>
        <rect x="133.9" y="336.8" width="1.5" height="1.5"/>
        <rect x="86.8" y="338.3" width="1.5" height="1.5"/>
        <rect x="89.7" y="338.3" width="1.5" height="1.5"/>
        <rect x="91.2" y="338.3" width="1.5" height="1.5"/>
        <rect x="95.6" y="338.3" width="1.5" height="1.5"/>
        <rect x="97.1" y="338.3" width="1.5" height="1.5"/>
        <rect x="100" y="338.3" width="1.5" height="1.5"/>
        <rect x="104.4" y="338.3" width="1.5" height="1.5"/>
        <rect x="105.9" y="338.3" width="1.5" height="1.5"/>
        <rect x="107.4" y="338.3" width="1.5" height="1.5"/>
        <rect x="110.3" y="338.3" width="1.5" height="1.5"/>
        <rect x="111.8" y="338.3" width="1.5" height="1.5"/>
        <rect x="113.3" y="338.3" width="1.5" height="1.5"/>
        <rect x="114.7" y="338.3" width="1.5" height="1.5"/>
        <rect x="123.6" y="338.3" width="1.5" height="1.5"/>
        <rect x="128" y="338.3" width="1.5" height="1.5"/>
        <rect x="130.9" y="338.3" width="1.5" height="1.5"/>
        <rect x="133.9" y="338.3" width="1.5" height="1.5"/>
        <rect x="86.8" y="339.8" width="1.5" height="1.5"/>
        <rect x="88.3" y="339.8" width="1.5" height="1.5"/>
        <rect x="89.7" y="339.8" width="1.5" height="1.5"/>
        <rect x="92.7" y="339.8" width="1.5" height="1.5"/>
        <rect x="94.2" y="339.8" width="1.5" height="1.5"/>
        <rect x="101.5" y="339.8" width="1.5" height="1.5"/>
        <rect x="104.4" y="339.8" width="1.5" height="1.5"/>
        <rect x="110.3" y="339.8" width="1.5" height="1.5"/>
        <rect x="114.7" y="339.8" width="1.5" height="1.5"/>
        <rect x="116.2" y="339.8" width="1.5" height="1.5"/>
        <rect x="117.7" y="339.8" width="1.5" height="1.5"/>
        <rect x="120.6" y="339.8" width="1.5" height="1.5"/>
        <rect x="122.1" y="339.8" width="1.5" height="1.5"/>
        <rect x="125" y="339.8" width="1.5" height="1.5"/>
        <rect x="86.8" y="341.2" width="1.5" height="1.5"/>
        <rect x="91.2" y="341.2" width="1.5" height="1.5"/>
        <rect x="92.7" y="341.2" width="1.5" height="1.5"/>
        <rect x="94.2" y="341.2" width="1.5" height="1.5"/>
        <rect x="95.6" y="341.2" width="1.5" height="1.5"/>
        <rect x="97.1" y="341.2" width="1.5" height="1.5"/>
        <rect x="98.6" y="341.2" width="1.5" height="1.5"/>
        <rect x="101.5" y="341.2" width="1.5" height="1.5"/>
        <rect x="103" y="341.2" width="1.5" height="1.5"/>
        <rect x="111.8" y="341.2" width="1.5" height="1.5"/>
        <rect x="113.3" y="341.2" width="1.5" height="1.5"/>
        <rect x="114.7" y="341.2" width="1.5" height="1.5"/>
        <rect x="128" y="341.2" width="1.5" height="1.5"/>
        <rect x="130.9" y="341.2" width="1.5" height="1.5"/>
        <rect x="88.3" y="342.7" width="1.5" height="1.5"/>
        <rect x="91.2" y="342.7" width="1.5" height="1.5"/>
        <rect x="94.2" y="342.7" width="1.5" height="1.5"/>
        <rect x="97.1" y="342.7" width="1.5" height="1.5"/>
        <rect x="100" y="342.7" width="1.5" height="1.5"/>
        <rect x="101.5" y="342.7" width="1.5" height="1.5"/>
        <rect x="104.4" y="342.7" width="1.5" height="1.5"/>
        <rect x="108.9" y="342.7" width="1.5" height="1.5"/>
        <rect x="110.3" y="342.7" width="1.5" height="1.5"/>
        <rect x="111.8" y="342.7" width="1.5" height="1.5"/>
        <rect x="116.2" y="342.7" width="1.5" height="1.5"/>
        <rect x="117.7" y="342.7" width="1.5" height="1.5"/>
        <rect x="119.2" y="342.7" width="1.5" height="1.5"/>
        <rect x="120.6" y="342.7" width="1.5" height="1.5"/>
        <rect x="122.1" y="342.7" width="1.5" height="1.5"/>
        <rect x="123.6" y="342.7" width="1.5" height="1.5"/>
        <rect x="128" y="342.7" width="1.5" height="1.5"/>
        <rect x="129.5" y="342.7" width="1.5" height="1.5"/>
        <rect x="130.9" y="342.7" width="1.5" height="1.5"/>
        <rect x="132.4" y="342.7" width="1.5" height="1.5"/>
        <rect x="133.9" y="342.7" width="1.5" height="1.5"/>
        <rect x="89.7" y="344.2" width="1.5" height="1.5"/>
        <rect x="94.2" y="344.2" width="1.5" height="1.5"/>
        <rect x="95.6" y="344.2" width="1.5" height="1.5"/>
        <rect x="98.6" y="344.2" width="1.5" height="1.5"/>
        <rect x="101.5" y="344.2" width="1.5" height="1.5"/>
        <rect x="103" y="344.2" width="1.5" height="1.5"/>
        <rect x="104.4" y="344.2" width="1.5" height="1.5"/>
        <rect x="105.9" y="344.2" width="1.5" height="1.5"/>
        <rect x="110.3" y="344.2" width="1.5" height="1.5"/>
        <rect x="111.8" y="344.2" width="1.5" height="1.5"/>
        <rect x="113.3" y="344.2" width="1.5" height="1.5"/>
        <rect x="116.2" y="344.2" width="1.5" height="1.5"/>
        <rect x="122.1" y="344.2" width="1.5" height="1.5"/>
        <rect x="128" y="344.2" width="1.5" height="1.5"/>
        <rect x="129.5" y="344.2" width="1.5" height="1.5"/>
        <rect x="132.4" y="344.2" width="1.5" height="1.5"/>
        <rect x="86.8" y="345.7" width="1.5" height="1.5"/>
        <rect x="89.7" y="345.7" width="1.5" height="1.5"/>
        <rect x="94.2" y="345.7" width="1.5" height="1.5"/>
        <rect x="97.1" y="345.7" width="1.5" height="1.5"/>
        <rect x="98.6" y="345.7" width="1.5" height="1.5"/>
        <rect x="103" y="345.7" width="1.5" height="1.5"/>
        <rect x="107.4" y="345.7" width="1.5" height="1.5"/>
        <rect x="110.3" y="345.7" width="1.5" height="1.5"/>
        <rect x="117.7" y="345.7" width="1.5" height="1.5"/>
        <rect x="123.6" y="345.7" width="1.5" height="1.5"/>
        <rect x="129.5" y="345.7" width="1.5" height="1.5"/>
        <rect x="130.9" y="345.7" width="1.5" height="1.5"/>
        <rect x="133.9" y="345.7" width="1.5" height="1.5"/>
        <rect x="86.8" y="347.1" width="1.5" height="1.5"/>
        <rect x="92.7" y="347.1" width="1.5" height="1.5"/>
        <rect x="95.6" y="347.1" width="1.5" height="1.5"/>
        <rect x="101.5" y="347.1" width="1.5" height="1.5"/>
        <rect x="103" y="347.1" width="1.5" height="1.5"/>
        <rect x="104.4" y="347.1" width="1.5" height="1.5"/>
        <rect x="110.3" y="347.1" width="1.5" height="1.5"/>
        <rect x="111.8" y="347.1" width="1.5" height="1.5"/>
        <rect x="113.3" y="347.1" width="1.5" height="1.5"/>
        <rect x="116.2" y="347.1" width="1.5" height="1.5"/>
        <rect x="117.7" y="347.1" width="1.5" height="1.5"/>
        <rect x="119.2" y="347.1" width="1.5" height="1.5"/>
        <rect x="120.6" y="347.1" width="1.5" height="1.5"/>
        <rect x="122.1" y="347.1" width="1.5" height="1.5"/>
        <rect x="129.5" y="347.1" width="1.5" height="1.5"/>
        <rect x="130.9" y="347.1" width="1.5" height="1.5"/>
        <rect x="132.4" y="347.1" width="1.5" height="1.5"/>
        <rect x="86.8" y="348.6" width="1.5" height="1.5"/>
        <rect x="91.2" y="348.6" width="1.5" height="1.5"/>
        <rect x="92.7" y="348.6" width="1.5" height="1.5"/>
        <rect x="97.1" y="348.6" width="1.5" height="1.5"/>
        <rect x="98.6" y="348.6" width="1.5" height="1.5"/>
        <rect x="100" y="348.6" width="1.5" height="1.5"/>
        <rect x="101.5" y="348.6" width="1.5" height="1.5"/>
        <rect x="105.9" y="348.6" width="1.5" height="1.5"/>
        <rect x="108.9" y="348.6" width="1.5" height="1.5"/>
        <rect x="117.7" y="348.6" width="1.5" height="1.5"/>
        <rect x="119.2" y="348.6" width="1.5" height="1.5"/>
        <rect x="120.6" y="348.6" width="1.5" height="1.5"/>
        <rect x="129.5" y="348.6" width="1.5" height="1.5"/>
        <rect x="130.9" y="348.6" width="1.5" height="1.5"/>
        <rect x="133.9" y="348.6" width="1.5" height="1.5"/>
        <rect x="86.8" y="350.1" width="1.5" height="1.5"/>
        <rect x="89.7" y="350.1" width="1.5" height="1.5"/>
        <rect x="92.7" y="350.1" width="1.5" height="1.5"/>
        <rect x="94.2" y="350.1" width="1.5" height="1.5"/>
        <rect x="95.6" y="350.1" width="1.5" height="1.5"/>
        <rect x="98.6" y="350.1" width="1.5" height="1.5"/>
        <rect x="100" y="350.1" width="1.5" height="1.5"/>
        <rect x="101.5" y="350.1" width="1.5" height="1.5"/>
        <rect x="103" y="350.1" width="1.5" height="1.5"/>
        <rect x="107.4" y="350.1" width="1.5" height="1.5"/>
        <rect x="111.8" y="350.1" width="1.5" height="1.5"/>
        <rect x="114.7" y="350.1" width="1.5" height="1.5"/>
        <rect x="116.2" y="350.1" width="1.5" height="1.5"/>
        <rect x="119.2" y="350.1" width="1.5" height="1.5"/>
        <rect x="120.6" y="350.1" width="1.5" height="1.5"/>
        <rect x="122.1" y="350.1" width="1.5" height="1.5"/>
        <rect x="123.6" y="350.1" width="1.5" height="1.5"/>
        <rect x="125" y="350.1" width="1.5" height="1.5"/>
        <rect x="126.5" y="350.1" width="1.5" height="1.5"/>
        <rect x="128" y="350.1" width="1.5" height="1.5"/>
        <rect x="132.4" y="350.1" width="1.5" height="1.5"/>
        <rect x="133.9" y="350.1" width="1.5" height="1.5"/>
        <rect x="98.6" y="351.5" width="1.5" height="1.5"/>
        <rect x="100" y="351.5" width="1.5" height="1.5"/>
        <rect x="101.5" y="351.5" width="1.5" height="1.5"/>
        <rect x="107.4" y="351.5" width="1.5" height="1.5"/>
        <rect x="108.9" y="351.5" width="1.5" height="1.5"/>
        <rect x="116.2" y="351.5" width="1.5" height="1.5"/>
        <rect x="117.7" y="351.5" width="1.5" height="1.5"/>
        <rect x="119.2" y="351.5" width="1.5" height="1.5"/>
        <rect x="120.6" y="351.5" width="1.5" height="1.5"/>
        <rect x="122.1" y="351.5" width="1.5" height="1.5"/>
        <rect x="128" y="351.5" width="1.5" height="1.5"/>
        <rect x="129.5" y="351.5" width="1.5" height="1.5"/>
        <rect x="133.9" y="351.5" width="1.5" height="1.5"/>
        <rect x="104.4" y="353" width="1.5" height="1.5"/>
        <rect x="108.9" y="353" width="1.5" height="1.5"/>
        <rect x="111.8" y="353" width="1.5" height="1.5"/>
        <rect x="116.2" y="353" width="1.5" height="1.5"/>
        <rect x="117.7" y="353" width="1.5" height="1.5"/>
        <rect x="120.6" y="353" width="1.5" height="1.5"/>
        <rect x="122.1" y="353" width="1.5" height="1.5"/>
        <rect x="125" y="353" width="1.5" height="1.5"/>
        <rect x="128" y="353" width="1.5" height="1.5"/>
        <rect x="129.5" y="353" width="1.5" height="1.5"/>
        <rect x="132.4" y="353" width="1.5" height="1.5"/>
        <rect x="100" y="354.5" width="1.5" height="1.5"/>
        <rect x="101.5" y="354.5" width="1.5" height="1.5"/>
        <rect x="104.4" y="354.5" width="1.5" height="1.5"/>
        <rect x="105.9" y="354.5" width="1.5" height="1.5"/>
        <rect x="110.3" y="354.5" width="1.5" height="1.5"/>
        <rect x="114.7" y="354.5" width="1.5" height="1.5"/>
        <rect x="116.2" y="354.5" width="1.5" height="1.5"/>
        <rect x="117.7" y="354.5" width="1.5" height="1.5"/>
        <rect x="119.2" y="354.5" width="1.5" height="1.5"/>
        <rect x="120.6" y="354.5" width="1.5" height="1.5"/>
        <rect x="122.1" y="354.5" width="1.5" height="1.5"/>
        <rect x="128" y="354.5" width="1.5" height="1.5"/>
        <rect x="130.9" y="354.5" width="1.5" height="1.5"/>
        <rect x="132.4" y="354.5" width="1.5" height="1.5"/>
        <rect x="133.9" y="354.5" width="1.5" height="1.5"/>
        <rect x="98.6" y="356" width="1.5" height="1.5"/>
        <rect x="100" y="356" width="1.5" height="1.5"/>
        <rect x="103" y="356" width="1.5" height="1.5"/>
        <rect x="107.4" y="356" width="1.5" height="1.5"/>
        <rect x="108.9" y="356" width="1.5" height="1.5"/>
        <rect x="110.3" y="356" width="1.5" height="1.5"/>
        <rect x="111.8" y="356" width="1.5" height="1.5"/>
        <rect x="117.7" y="356" width="1.5" height="1.5"/>
        <rect x="122.1" y="356" width="1.5" height="1.5"/>
        <rect x="123.6" y="356" width="1.5" height="1.5"/>
        <rect x="125" y="356" width="1.5" height="1.5"/>
        <rect x="126.5" y="356" width="1.5" height="1.5"/>
        <rect x="128" y="356" width="1.5" height="1.5"/>
        <rect x="132.4" y="356" width="1.5" height="1.5"/>
        <rect x="133.9" y="356" width="1.5" height="1.5"/>
        <rect x="98.6" y="357.4" width="1.5" height="1.5"/>
        <rect x="100" y="357.4" width="1.5" height="1.5"/>
        <rect x="101.5" y="357.4" width="1.5" height="1.5"/>
        <rect x="104.4" y="357.4" width="1.5" height="1.5"/>
        <rect x="107.4" y="357.4" width="1.5" height="1.5"/>
        <rect x="108.9" y="357.4" width="1.5" height="1.5"/>
        <rect x="110.3" y="357.4" width="1.5" height="1.5"/>
        <rect x="111.8" y="357.4" width="1.5" height="1.5"/>
        <rect x="113.3" y="357.4" width="1.5" height="1.5"/>
        <rect x="119.2" y="357.4" width="1.5" height="1.5"/>
        <rect x="120.6" y="357.4" width="1.5" height="1.5"/>
        <rect x="122.1" y="357.4" width="1.5" height="1.5"/>
        <rect x="123.6" y="357.4" width="1.5" height="1.5"/>
        <rect x="128" y="357.4" width="1.5" height="1.5"/>
        <rect x="130.9" y="357.4" width="1.5" height="1.5"/>
        <rect x="132.4" y="357.4" width="1.5" height="1.5"/>
        <rect x="98.6" y="358.9" width="1.5" height="1.5"/>
        <rect x="103" y="358.9" width="1.5" height="1.5"/>
        <rect x="108.9" y="358.9" width="1.5" height="1.5"/>
        <rect x="110.3" y="358.9" width="1.5" height="1.5"/>
        <rect x="113.3" y="358.9" width="1.5" height="1.5"/>
        <rect x="114.7" y="358.9" width="1.5" height="1.5"/>
        <rect x="116.2" y="358.9" width="1.5" height="1.5"/>
        <rect x="119.2" y="358.9" width="1.5" height="1.5"/>
        <rect x="120.6" y="358.9" width="1.5" height="1.5"/>
        <rect x="122.1" y="358.9" width="1.5" height="1.5"/>
        <rect x="123.6" y="358.9" width="1.5" height="1.5"/>
        <rect x="125" y="358.9" width="1.5" height="1.5"/>
        <rect x="129.5" y="358.9" width="1.5" height="1.5"/>
        <rect x="130.9" y="358.9" width="1.5" height="1.5"/>
        <rect x="100" y="360.4" width="1.5" height="1.5"/>
        <rect x="101.5" y="360.4" width="1.5" height="1.5"/>
        <rect x="103" y="360.4" width="1.5" height="1.5"/>
        <rect x="105.9" y="360.4" width="1.5" height="1.5"/>
        <rect x="107.4" y="360.4" width="1.5" height="1.5"/>
        <rect x="111.8" y="360.4" width="1.5" height="1.5"/>
        <rect x="116.2" y="360.4" width="1.5" height="1.5"/>
        <rect x="126.5" y="360.4" width="1.5" height="1.5"/>
        <rect x="130.9" y="360.4" width="1.5" height="1.5"/>
        <rect x="100" y="361.8" width="1.5" height="1.5"/>
        <rect x="101.5" y="361.8" width="1.5" height="1.5"/>
        <rect x="104.4" y="361.8" width="1.5" height="1.5"/>
        <rect x="105.9" y="361.8" width="1.5" height="1.5"/>
        <rect x="108.9" y="361.8" width="1.5" height="1.5"/>
        <rect x="117.7" y="361.8" width="1.5" height="1.5"/>
        <rect x="119.2" y="361.8" width="1.5" height="1.5"/>
        <rect x="120.6" y="361.8" width="1.5" height="1.5"/>
        <rect x="122.1" y="361.8" width="1.5" height="1.5"/>
        <rect x="125" y="361.8" width="1.5" height="1.5"/>
        <rect x="129.5" y="361.8" width="1.5" height="1.5"/>
        <rect x="130.9" y="361.8" width="1.5" height="1.5"/>
        <rect x="132.4" y="361.8" width="1.5" height="1.5"/>
      </g>
      <g>
        <path d="M86.8,314.8v10.3h10.3v-10.3h-10.3ZM95.6,323.6h-7.4v-7.4h7.4v7.4Z"/>
        <path d="M125,314.8v10.3h10.3v-10.3h-10.3ZM133.9,323.6h-7.4v-7.4h7.4v7.4Z"/>
        <path d="M86.8,353v10.3h10.3v-10.3h-10.3ZM95.6,361.8h-7.4v-7.4h7.4v7.4Z"/>
        <rect x="89.7" y="317.7" width="4.4" height="4.4"/>
        <rect x="128" y="317.7" width="4.4" height="4.4"/>
        <rect x="89.7" y="356" width="4.4" height="4.4"/>
      </g>
    </g>
    <g>
      <g>
        <rect class="st7" x="183.3" y="45.5" width="37.4" height="51.2" rx="4.1" ry="4.1" transform="translate(-9.3 36.2) rotate(-10)"/>
        <rect class="st10" x="188.6" y="40.8" width="37.4" height="51.2" rx="4.1" ry="4.1" transform="translate(-5 18.3) rotate(-5)"/>
        <path class="st6" d="M229.3,48h-6.1c-2.2,0-4-1.8-4-4v-6h-21.6c-.5,0-.9,0-1.3.4,0,0-.1,0-.2,0-.1,0-.2.2-.4.3h0s-.1,0-.2.2c0,0-.1.2-.2.3,0,0,0,.2-.1.2-.1.3-.2.5-.2.9v42.9c0,.3,0,.6.2.9,0,0,0,.2.1.2h0c0,.2.1.3.2.4h0c0,.2.2.3.3.4s0,0,0,0c.1,0,.2.2.3.2.4.2.8.4,1.3.4h29.1c.3,0,.6,0,.9-.2h.1c.1,0,.2,0,.3-.2.1,0,.2,0,.3-.2h0l.2-.2s0,0,.1,0c0,0,.1-.2.2-.2,0,0,.1-.3.2-.4.1-.3.2-.5.2-.9v-35.4h.3Z"/>
        <path class="st8" d="M223.2,46.3h4.9l-6.8-6.8-.4-.4v4.9c0,1.3,1,2.3,2.3,2.3h0Z"/>
        <path class="st9" d="M195.4,84.4s0-.2-.1-.2c0,0,0,.2.1.2Z"/>
        <path class="st9" d="M195.7,84.8c0,0-.1-.2-.2-.3,0,0,.1.2.2.3Z"/>
        <path class="st9" d="M195.3,39.6s0-.2.1-.2c0,0,0,.2-.1.2Z"/>
        <path class="st9" d="M228.9,84.6s-.1.2-.2.2c0,0,.1-.2.2-.2Z"/>
        <path class="st9" d="M228.4,85.2c-.1,0-.2.2-.3.2.1,0,.2,0,.3-.2Z"/>
        <path class="st9" d="M196.4,85.4c-.1,0-.2,0-.3-.2.1,0,.2.2.3.2Z"/>
        <path class="st9" d="M219.2,38h-21.6c-.5,0-.9,0-1.3.4.4-.2.8-.4,1.3-.4h21.6Z"/>
        <path class="st9" d="M195.6,39.1s.1,0,.2-.2c0,0-.1,0-.2.2Z"/>
        <path class="st9" d="M195.8,84.9c0,0,.2.2.3.3l-.3-.3Z"/>
        <line class="st0" x1="222.1" y1="38" x2="222.1" y2="38"/>
        <path class="st9" d="M228.5,85.2l.2-.2s-.1.2-.2.2Z"/>
        <path class="st9" d="M195.2,40.5c0-.3,0-.6.2-.9-.1.3-.2.5-.2.9v42.9c0,.3,0,.6.2.9-.1-.3-.2-.5-.2-.9v-42.9Z"/>
        <path class="st9" d="M196.2,38.5c-.1,0-.2.2-.4.3.1,0,.2-.2.4-.3Z"/>
        <path class="st9" d="M230.8,46.6l-1.5-1.5-7.2-7.1h0l-1.5-1.5c-.1,0-.2-.2-.4-.2h-22.5c-2.3,0-4.1,1.9-4.1,4.1v42.9c0,2.3,1.9,4.1,4.1,4.1h29.1c2.3,0,4.1-1.9,4.1-4.1v-36.3c0-.2,0-.3-.2-.4h0ZM228.1,46.3h-4.9c-1.3,0-2.3-1-2.3-2.3v-4.9l.4.4,6.8,6.8h0ZM229.3,83.3c0,.3,0,.6-.2.9,0,0-.1.3-.2.4,0,0-.1.2-.2.2,0,0,0,0-.1,0,0,0-.1.2-.2.2h0c-.1.2-.2.2-.3.3-.1,0-.2,0-.3.2h-.1c-.3,0-.5.2-.9.2h-29.1c-.5,0-.9,0-1.3-.4-.1,0-.2,0-.3-.2h0l-.3-.3h0c0-.2-.1-.3-.2-.4h0c0,0,0-.3-.1-.3-.1-.3-.2-.5-.2-.9v-42.8c0-.3,0-.6.2-.9,0,0,0-.2.1-.2,0,0,.1-.2.2-.3,0,0,.1,0,.2-.2h0c.1,0,.2-.2.4-.3,0,0,.1,0,.2,0,.4-.2.8-.4,1.3-.4h21.6v6c0,2.2,1.8,4,4,4h6.1v35.4h-.1l-.2-.2Z"/>
        <path d="M211.7,76.7c-4.9.5-9.1-2.9-10.1-7.7-1-1.6-1.7-3.2-1.7-5.1.2-3.8,2.8-7.1,6.3-8.6,1-.4,2.1-.7,3.2-.9,2.2-1.1,4.6-1.4,7.1-.9,4,1.1,6.6,4.2,6.7,8.4,1.5,3,1.3,6.5-.7,9.3s-3.9,3.5-6.6,4.1c-1.3.7-2.7,1.3-4.2,1.5h0ZM221.4,59.5c-1-3.1-4.2-5.2-7.4-4.9,1.1.3,2,.8,2.9,1.3s1.4,1.1,2.1,1.7l2.3,1.8h0ZM215.4,56.8c-1.3-.9-5.6-1.8-6.6-.3,3.3-.8,3.7-.3,6.6.3ZM201.7,65.6c.3-2.3,1.2-4.2,2.6-6,.6-1,1.2-1.9,1.9-2.8-3.1,1.4-5.6,5.5-4.5,8.8ZM206.1,61.7c1-1.9,2.6-3.2,4.4-4.1-1.8.3-3.7,1.2-4.7,2.7-.9,1.4-1,3.3-.8,5,.3-1.2.5-2.4,1.1-3.6h0ZM218.4,67c.4-.5.8-1.2.8-1.8-.2-2.7-2.2-6-4.8-7-2.9,0-5.5,1.5-7,3.9s-1.4,4.1-.7,6.3c.4,1.2,1.2,2,2.5,2.3,3.2.6,7.2-1,9.2-3.8h0ZM217.9,59c.6.8,1.1,1.5,1.6,2.3-.2-1-.5-2-1.6-2.3ZM220.8,66.6c.7-1.3,1-2.7,1-4.2s-.4-.9-.7-1.2c.3,1.5.2,2.8-.3,4.3-.1.3,0,.8,0,1.1ZM205.4,70.1c-1.3-1.9-1.9-3.8-1.9-5.9-.5,1.3-.6,2.6-.4,4,.7.8,1.4,1.5,2.4,1.9h-.1ZM218.7,72.8c2.5-1.1,4.5-4.7,4.1-7.4-.6,2-1.8,3.4-2.7,5.1l-1.3,2.4h-.1ZM218.4,69.9c.4-.4.6-.8.6-1.4-1.8,2-4.1,3.1-6.7,3.6,2.3,0,4.5-.7,6.1-2.2h0ZM210.8,74.6c-1.1-.5-2-1.1-3-1.8-1.5-.4-2.8-1-4.1-2,1.5,3.4,5.3,5.4,8.9,4.4-.6,0-1.2-.3-1.9-.6h.1ZM216.8,72.7c-1.4.6-2.8.9-4.3.9,1.5.4,3.4.8,4.3-.9Z"/>
      </g>
      <g>
        <path class="st2" d="M238.7,81.7l4-28.7h3.8l-1.8,12.8h14.3l1.8-12.8h3.8l-4,28.7h-3.8l1.8-12.4h-14.4l-1.7,12.4h-3.8,0Z"/>
        <path class="st2" d="M274.8,82.1c-1.5,0-2.9-.4-4-1.1s-1.9-1.7-2.4-3-.6-2.8-.4-4.6l1.8-12.5h3.6l-1.8,12.6c-.1,1,0,1.9.3,2.7.3.8.8,1.4,1.5,1.8s1.5.6,2.5.6,1.9-.2,2.7-.7c.8-.4,1.5-1.1,2.1-1.9.5-.8.9-1.8,1.1-2.9l1.7-12.3h3.6l-2.9,20.7h-3.5l.5-4,.5.5c-.7,1.3-1.6,2.3-2.8,3-1.2.7-2.6,1-4,1h-.1Z"/>
        <path class="st2" d="M300.3,82.1c-1.9,0-3.6-.4-5.1-1.3s-2.6-2.1-3.5-3.6c-.8-1.5-1.2-3.3-1.2-5.2s.3-3,.8-4.4,1.3-2.6,2.3-3.7c1-1.1,2.1-1.9,3.4-2.5s2.7-.9,4.3-.9,3.7.4,5,1.3c1.4.9,2.4,2,3.1,3.4s1.1,2.9,1.1,4.6,0,.9-.1,1.4c0,.5-.2.9-.2,1.3h-17l.2-3.1h15l-1.8,1.3c.4-1.3.3-2.5,0-3.5-.4-1.1-1-1.9-1.9-2.5s-2-.9-3.2-.9-2.8.4-3.9,1.2-1.8,1.8-2.4,3.2c-.5,1.3-.8,2.9-.8,4.6s.3,2.4.8,3.3c.5,1,1.3,1.7,2.2,2.2s1.9.8,3.1.8,2.6-.3,3.6-1,1.8-1.5,2.5-2.5l3,1.7c-.5,1-1.2,1.8-2.1,2.6-.9.8-1.9,1.4-3.2,1.8-1.2.4-2.5.7-3.9.7h0v-.3Z"/>
        <path class="st2" d="M315.7,81.7v-28.7h11c2,0,3.7.3,5.3,1,1.5.7,2.7,1.7,3.6,3.1s1.3,3,1.3,5.1-.4,3.6-1.3,5-2.1,2.4-3.6,3.1-3.3,1.1-5.2,1.1h-5.1v10.4h-6,0ZM321.7,66.1h5.1c.9,0,1.6-.2,2.2-.5s1.1-.8,1.5-1.4c.3-.6.5-1.3.5-2s-.2-1.5-.5-2.1-.8-1.1-1.5-1.4c-.6-.3-1.3-.5-2.2-.5h-5.1v7.9Z"/>
        <path class="st2" d="M340.3,81.7v-21h5.4v5.1l-.4-.7c.5-1.8,1.2-3,2.3-3.6s2.3-.9,3.8-.9h1.2v5h-1.8c-1.4,0-2.6.4-3.4,1.3-.9.9-1.3,2.1-1.3,3.6v11.3h-5.8Z"/>
        <path class="st2" d="M365.3,82.1c-2.2,0-4.2-.5-5.8-1.5-1.6-1-2.9-2.3-3.8-4s-1.3-3.5-1.3-5.5.5-4,1.4-5.6,2.2-2.9,3.8-3.9,3.4-1.4,5.4-1.4,3.1.3,4.4.8,2.4,1.3,3.3,2.2c.9,1,1.6,2,2,3.3.5,1.2.7,2.6.7,4.1s0,.8,0,1.2-.1.7-.2,1h-15.7v-4.2h12.5l-2.7,2c.3-1.1.2-2.1,0-3-.3-.9-.8-1.5-1.5-2s-1.6-.8-2.6-.8-1.9.2-2.6.7-1.3,1.2-1.6,2.1c-.4,1-.5,2.1-.4,3.5-.1,1.2,0,2.2.4,3.1s1,1.6,1.8,2.1,1.8.8,2.9.8,1.9-.2,2.6-.6,1.3-1,1.7-1.7l4.6,2.2c-.4,1-1.1,1.9-1.9,2.7s-1.9,1.4-3.1,1.8-2.5.6-4,.6h-.3Z"/>
        <path class="st2" d="M387,82.1c-2.3,0-4.3-.5-6-1.6s-2.9-2.6-3.5-4.4l4.2-2c.5,1.1,1.3,2,2.2,2.7s1.9,1,3.1,1,1.5-.2,1.9-.5.6-.8.6-1.4,0-.6-.2-.8c-.2-.2-.4-.4-.7-.6s-.7-.3-1.2-.5l-3.6-1c-1.7-.5-3-1.3-4-2.4-.9-1.1-1.4-2.4-1.4-3.9s.3-2.5,1-3.4c.7-1,1.6-1.7,2.8-2.3,1.2-.5,2.6-.8,4.1-.8s3.9.5,5.4,1.5,2.6,2.3,3.3,4.1l-4.3,2c-.3-.9-.9-1.6-1.7-2.1-.8-.5-1.7-.8-2.7-.8s-1.3.2-1.8.5c-.4.3-.6.7-.6,1.3s0,.5.2.8.4.4.8.6c.3.2.8.3,1.3.5l3.3,1c1.7.5,3.1,1.3,4,2.3s1.4,2.3,1.4,3.8-.3,2.5-1,3.4c-.7,1-1.6,1.7-2.8,2.3-1.2.5-2.6.8-4.3.8h.2Z"/>
        <path class="st2" d="M407.3,82.1c-2.3,0-4.3-.5-6-1.6s-2.9-2.6-3.5-4.4l4.2-2c.5,1.1,1.3,2,2.2,2.7s1.9,1,3.1,1,1.5-.2,1.9-.5.6-.8.6-1.4,0-.6-.2-.8c-.2-.2-.4-.4-.7-.6s-.7-.3-1.2-.5l-3.6-1c-1.7-.5-3-1.3-4-2.4-.9-1.1-1.4-2.4-1.4-3.9s.3-2.5,1-3.4c.7-1,1.6-1.7,2.8-2.3,1.2-.5,2.6-.8,4.1-.8s3.9.5,5.4,1.5,2.6,2.3,3.3,4.1l-4.3,2c-.3-.9-.9-1.6-1.7-2.1-.8-.5-1.7-.8-2.7-.8s-1.3.2-1.8.5c-.4.3-.6.7-.6,1.3s0,.5.2.8.4.4.8.6c.3.2.8.3,1.3.5l3.3,1c1.7.5,3.1,1.3,4,2.3s1.4,2.3,1.4,3.8-.3,2.5-1,3.4c-.7,1-1.6,1.7-2.8,2.3-1.2.5-2.6.8-4.3.8h.2Z"/>
      </g>
    </g>
  </g>
  <g id="Layer_2">
    <g>
      <path class="st6" d="M97.5,378.2c-.2-.1-.3-.2-.5-.3-.2,0-.4-.1-.5-.2h-.5c-.1-.2-.3-.2-.4-.3-.2,0-.3-.1-.4-.2-.2-.2-.2-.6,0-.8,0-.1.2-.2.4-.3.6-.2,1.6,0,1.7.7h.8c0-.3,0-.5-.3-.8-.2-.2-.4-.4-.7-.5-.5-.3-1.4-.3-2,0-.3.1-.5.3-.7.5-.4.5-.3,1.3.1,1.7.2.2.6.4,1,.5l.6.2c.3,0,.7.2.9.4.2.2.2.6,0,.8-.1.1-.2.2-.4.3-.3.1-.8.1-1.2,0-.2,0-.3-.2-.4-.3-.1-.1-.2-.3-.2-.5h-.8c0,.3.1.6.3.8.6.8,2,.9,2.8.5.3-.1.5-.3.7-.6.3-.4.3-1,0-1.4,0-.2-.2-.3-.4-.4Z"/>
      <path class="st6" d="M102.5,379.5c0,.1-.2.2-.3.3-.5.4-1.2.4-1.7,0-.2-.2-.4-.4-.6-.7-.3-.6-.3-1.6,0-2.2.3-.7,1.1-1.1,1.9-.8.2,0,.3.1.4.2.1,0,.2.2.3.3,0,.1.1.3.2.5h.8c0-.3-.1-.5-.3-.8-.1-.2-.3-.4-.5-.6-.2-.2-.4-.3-.7-.4-.7-.2-1.5-.1-2.1.2-1.6,1-1.6,3.9,0,4.9.6.4,1.4.4,2.1.2.3,0,.5-.2.7-.4.2-.2.4-.4.5-.6.1-.2.2-.5.2-.7h-.8c0,.2,0,.3-.2.5Z"/>
      <path class="st6" d="M105.8,375.4l-1.9,5.4h.9l.5-1.4h2.1l.5,1.4h.9l-2-5.4h-1ZM107.1,378.7h-1.6l.3-.9c0-.2.2-.5.3-.8,0-.3.2-.6.2-.9,0,.3.2.6.3.9,0,.3.2.6.3.9l.3.9Z"/>
      <path class="st6" d="M113.1,378.5c0,.3,0,.7,0,1,0,.1,0,.2,0,.3,0-.1-.1-.2-.2-.3,0-.2-.2-.4-.3-.5,0-.1-.2-.3-.2-.4l-2-3.2h-1v5.4h.8v-2.9c0-.1,0-.2,0-.4,0-.2,0-.4,0-.6,0-.1,0-.3,0-.5,0,.2.2.4.3.5.1.2.2.4.3.6,0,.2.2.3.3.5l1.8,2.9h1v-5.4h-.8v3.1Z"/>
      <path class="st6" d="M120.3,378.5c0,0,0,.2-.1.4,0,.1,0,.3-.1.5,0,.2,0,.3-.1.5,0,0,0,0,0,0,0,0,0,0,0,0,0-.3-.2-.7-.3-.9,0-.1,0-.3-.1-.3l-1.2-3.1h-1.2v5.4h.8v-2.9c0-.3,0-.6,0-.9,0-.2,0-.4,0-.5,0,0,0-.1,0-.2,0,.1,0,.2,0,.3,0,.2.1.4.2.5,0,.2.1.3.2.5,0,.1,0,.3.1.3l1.1,2.9h.7l1.1-2.9c0,0,0-.2.1-.4,0-.1.1-.3.2-.5,0-.2.1-.4.2-.5,0-.1,0-.2,0-.3,0,0,0,.2,0,.3,0,.2,0,.4,0,.5,0,.2,0,.3,0,.5,0,.2,0,.3,0,.4v2.9h.8v-5.4h-1.2l-1.2,3.1Z"/>
      <polygon class="st6" points="124.7 380.1 124.7 378.4 127.1 378.4 127.1 377.7 124.7 377.7 124.7 376.1 127.3 376.1 127.3 375.4 123.9 375.4 123.9 380.8 127.3 380.8 127.3 380.1 124.7 380.1"/>
    </g>
  </g>
</svg>