<?xml version="1.0" encoding="UTF-8"?>
<svg id="Layer_1" xmlns="http://www.w3.org/2000/svg" xmlns:xlink="http://www.w3.org/1999/xlink" version="1.1" viewBox="0 0 1200 630">
  <!-- Generator: Adobe Illustrator 30.1.0, SVG Export Plug-In . SVG Version: 2.1.1 Build 136)  -->
  <defs>
    <style>
      .st0 {
        fill: none;
      }

      .st1 {
        font-family: Inter18pt-Medium, 'Inter 18pt';
        font-size: 33.7px;
        font-weight: 500;
      }

      .st1, .st2, .st3, .st4 {
        isolation: isolate;
      }

      .st1, .st5 {
        fill: #111827;
      }

      .st6 {
        fill: #f97360;
      }

      .st7 {
        fill: url(#linear-gradient);
      }

      .st8 {
        clip-path: url(#clippath-1);
      }

      .st9 {
        clip-path: url(#clippath-3);
      }

      .st10 {
        clip-path: url(#clippath-4);
      }

      .st11 {
        clip-path: url(#clippath-2);
      }

      .st12 {
        fill: #f3efff;
      }

      .st13, .st3 {
        fill: #fff;
      }

      .st14 {
        fill: #fafafa;
      }

      .st3 {
        font-family: Inter18pt-SemiBold, 'Inter 18pt';
        font-size: 28px;
        font-weight: 600;
      }

      .st15 {
        opacity: .5;
      }

      .st16, .st4 {
        fill: #0f766e;
      }

      .st4 {
        font-family: Georgia-Bold, Georgia;
        font-size: 58px;
        font-weight: 700;
      }

      .st17 {
        clip-path: url(#clippath);
      }
    </style>
    <linearGradient id="linear-gradient" x1="603.2" y1=".8" x2="604.2" y2=".8" gradientTransform="translate(-422196 -212) scale(700 630)" gradientUnits="userSpaceOnUse">
      <stop offset="0" stop-color="#fff" stop-opacity=".9"/>
      <stop offset=".6" stop-color="#fff" stop-opacity=".7"/>
      <stop offset="1" stop-color="#fff" stop-opacity="0"/>
    </linearGradient>
    <clipPath id="clippath">
      <path class="st0" d="M839.5,134.1l182.2-25.6c4.4-.6,8.4,2.4,9,6.8l36.7,261.4c.6,4.4-2.4,8.4-6.8,9l-182.2,25.6c-4.4.6-8.4-2.4-9-6.8l-36.7-261.4c-.6-4.4,2.4-8.4,6.8-9Z"/>
    </clipPath>
    <clipPath id="clippath-1">
      <path class="st0" d="M646.2,58.6l183.3-16c4.4-.4,8.3,2.9,8.7,7.3l23,263c.4,4.4-2.9,8.3-7.3,8.7l-183.3,16c-4.4.4-8.3-2.9-8.7-7.3l-23-263c-.4-4.4,2.9-8.3,7.3-8.7Z"/>
    </clipPath>
    <clipPath id="clippath-2">
      <rect class="st0" x="710" y="120" width="280" height="200" rx="8" ry="8" transform="translate(585.8 1057.3) rotate(-87)"/>
    </clipPath>
    <clipPath id="clippath-3">
      <path class="st0" d="M686.8,560.8l27.6-262.6c.5-4.4,4.4-7.6,8.8-7.1l183,19.2c4.4.5,7.6,4.4,7.1,8.8l-27.6,262.6c-.5,4.4-4.4,7.6-8.8,7.1l-183-19.2c-4.4-.5-7.6-4.4-7.1-8.8Z"/>
    </clipPath>
    <clipPath id="clippath-4">
      <rect class="st0" x="900" y="280" width="200" height="280" rx="8" ry="8" transform="translate(-20.6 52.9) rotate(-3)"/>
    </clipPath>
  </defs>
  <g id="Layer_11" data-name="Layer_1">
    <rect class="st14" y="0" width="1200" height="630"/>
    <rect class="st7" y="0" width="700" height="630"/>
    <g>
      <g class="st2">
        <text class="st4" transform="translate(60 270)"><tspan x="0" y="0">Curated Coloring.</tspan></text>
      </g>
      <g class="st2">
        <text class="st1" transform="translate(60 341.5)"><tspan x="0" y="0">Bold lines. No Ads. Instant Peace.</tspan></text>
      </g>
    </g>
    <g>
      <rect class="st16" x="60" y="490" width="300" height="80" rx="12" ry="12"/>
      <g class="st2">
        <text class="st3" transform="translate(99.2 542)"><tspan x="0" y="0">✓ Vector Quality</tspan></text>
      </g>
    </g>
    <g class="st15">
      <g class="st17">
        <image class="st2" width="1024" height="1024" transform="translate(786 103.1) scale(.5)" xlink:href="../public_backup_20251223_023041/thumbnails/thumb_unicorn_1766355087780.png"/>
      </g>
      <g class="st8">
        <image class="st2" width="1024" height="1024" transform="translate(635.5 -4.6) rotate(9.7) scale(.3)" xlink:href="../public_backup_20251223_023041/thumbnails/thumb_whale_1766355003894.png"/>
      </g>
      <g class="st11">
        <image class="st2" width="1024" height="1024" transform="translate(696.1 67.8) rotate(3) scale(.3)" xlink:href="../public_backup_20251223_023041/thumbnails/thumb_capybara_1766354990805.png"/>
      </g>
      <g class="st9">
        <image class="st2" width="1024" height="1024" transform="translate(668 260) rotate(8.9) scale(.3)" xlink:href="../public_backup_20251223_023041/thumbnails/thumb_astronaut_cat_1766355051538.png"/>
      </g>
      <g class="st10">
        <image class="st2" width="1024" height="1024" transform="translate(870.9 275.4) scale(.3)" xlink:href="../public_backup_20251223_023041/thumbnails/thumb_dinosaur_1766355016602.png"/>
      </g>
    </g>
  </g>
  <g id="Layer_2">
    <g>
      <g>
        <rect class="st16" x="53.7" y="137" width="55.7" height="76.2" rx="6.1" ry="6.1" transform="translate(-29.2 16.8) rotate(-10)"/>
        <rect class="st6" x="61.6" y="130" width="55.7" height="76.2" rx="6.1" ry="6.1" transform="translate(-14.3 8.4) rotate(-5)"/>
        <path class="st13" d="M122.1,140.7h-9.1c-3.3,0-5.9-2.6-5.9-5.9v-9h-32.1c-.7,0-1.4.2-1.9.5,0,0-.2,0-.3.2-.2,0-.4.3-.5.5h0c0,0,0,.3-.2.4,0,0-.2.3-.3.5,0,0,0,.2,0,.3,0,.4-.2.8-.2,1.3v63.9c0,.4,0,.9.2,1.3,0,.1,0,.2,0,.3v.2c0,.2.2.3.3.5h0c0,.2.2.4.4.5s0,0,0,.1.3.2.4.3c.6.3,1.2.5,1.9.5h43.4c.4,0,.9,0,1.3-.2h.2c.2,0,.3-.2.5-.2s.3-.2.4-.3h0c0-.1.2-.3.3-.4,0,0,0-.1.2-.2,0-.1.2-.2.2-.4l.3-.6c0-.4.2-.8.2-1.3v-52.7h0Z"/>
        <path class="st12" d="M113,138.2h7.4l-10.2-10.1-.7-.7v7.3c0,1.9,1.5,3.4,3.4,3.4h0Z"/>
        <path class="st5" d="M71.7,195c0-.1,0-.2,0-.3,0,.1,0,.2,0,.3Z"/>
        <path class="st5" d="M72.1,195.6c0-.1-.2-.3-.3-.5,0,.2.2.3.3.5Z"/>
        <path class="st5" d="M71.6,128.3c0-.1,0-.2,0-.3,0,.1,0,.2,0,.3Z"/>
        <path class="st5" d="M121.6,195.3c0,.1,0,.2-.2.4,0-.1.2-.2.2-.4Z"/>
        <path class="st5" d="M120.8,196.3c0,.1-.3.2-.4.3.2,0,.3-.2.4-.3Z"/>
        <path class="st5" d="M73.1,196.6c-.2,0-.3-.2-.4-.3,0,.1.3.2.4.3Z"/>
        <path class="st5" d="M107.1,125.8h-32.1c-.7,0-1.4.2-1.9.5.6-.3,1.2-.5,1.9-.5h32.1Z"/>
        <path class="st5" d="M72,127.5s0-.2.2-.3c0,0,0,.2-.2.3Z"/>
        <path class="st5" d="M72.2,195.8c0,.1.2.3.4.4,0-.1-.3-.2-.4-.4Z"/>
        <line class="st0" x1="111.4" y1="125.8" x2="111.4" y2="125.8"/>
        <path class="st5" d="M120.9,196.1c0,0,.2-.2.3-.3,0,.1-.2.2-.3.3Z"/>
        <path class="st5" d="M71.3,129.5c0-.4,0-.9.2-1.3,0,.4-.2.8-.2,1.3v63.9c0,.4,0,.9.2,1.3,0-.4-.2-.8-.2-1.3v-63.9Z"/>
        <path class="st5" d="M72.8,126.6c-.2,0-.4.3-.5.5l.5-.5Z"/>
        <path class="st5" d="M124.3,138.7l-2.2-2.2-10.8-10.7h0l-2.2-2.2c-.2-.2-.4-.2-.6-.2h-33.5c-3.4,0-6.2,2.8-6.2,6.2v63.9c0,3.4,2.8,6.2,6.2,6.2h43.4c3.4,0,6.2-2.8,6.2-6.2v-54.1c0-.2,0-.4-.2-.6h-.1ZM120.4,138.2h-7.4c-1.9,0-3.4-1.5-3.4-3.4v-7.3l.7.7,10.2,10.1h0ZM122.1,193.4c0,.4,0,.9-.2,1.3,0,.2-.2.4-.3.6,0,.1,0,.2-.2.4,0,0,0,.1-.2.2,0,.1-.2.2-.3.3h0c0,.2-.3.3-.4.4-.2,0-.3.2-.5.2h-.2c-.4.1-.8.2-1.3.2h-43.4c-.7,0-1.4-.2-1.9-.5-.2,0-.3-.2-.4-.3h0c0-.2-.3-.3-.4-.5h0c0-.2-.2-.4-.3-.6v-.2c0-.1,0-.2,0-.3,0-.4-.2-.8-.2-1.3v-63.9c0-.4,0-.9.2-1.3,0,0,0-.2,0-.3,0-.2.2-.3.3-.5,0,0,0-.2.2-.3h0c.2-.3.3-.4.5-.6,0,0,.2,0,.3-.2.6-.3,1.2-.5,1.9-.5h32.1v9c0,3.3,2.6,5.9,5.9,5.9h9.1v52.7h0Z"/>
        <path d="M96,183.6c-7.4.8-13.6-4.4-15-11.5-1.5-2.3-2.6-4.8-2.5-7.6.2-5.7,4.2-10.6,9.4-12.8s3.1-1,4.7-1.4c3.3-1.6,6.9-2.1,10.5-1.3,6,1.7,9.8,6.3,10,12.6,2.3,4.5,1.9,9.7-1,13.8s-5.9,5.3-9.8,6c-2,1.1-4,2-6.3,2.2ZM110.4,157.9c-1.4-4.6-6.3-7.7-11-7.3,1.6.5,3,1.2,4.4,2s2.1,1.7,3.2,2.6l3.4,2.7ZM101.4,153.9c-1.9-1.4-8.4-2.7-9.8-.4,4.9-1.2,5.5-.4,9.8.4ZM81,167c.5-3.5,1.9-6.3,3.9-8.9.9-1.5,1.8-2.8,2.8-4.2-4.6,2.1-8.4,8.2-6.7,13h0ZM87.5,161.2c1.5-2.8,3.8-4.7,6.5-6.1-2.7.4-5.5,1.8-7,4.1s-1.4,4.9-1.2,7.4c.4-1.9.7-3.6,1.7-5.4ZM106,169.1c.6-.8,1.2-1.8,1.2-2.7-.3-4.1-3.3-8.9-7.2-10.4-4.3,0-8.2,2.2-10.4,5.9s-2.1,6.1-1,9.4,1.8,3.1,3.8,3.5c4.8,1,10.8-1.6,13.7-5.6h0ZM105.2,157.2c.9,1.1,1.7,2.2,2.4,3.4-.3-1.6-.8-3-2.4-3.4ZM109.5,168.5c1-2,1.5-4,1.5-6.2s-.6-1.3-1-1.8c.4,2.2.3,4.2-.4,6.4s0,1.2,0,1.6h0ZM86.5,173.7c-2-2.8-2.9-5.7-2.9-8.8-.7,2-.8,3.9-.7,6,1,1.1,2.1,2.3,3.6,2.8ZM106.4,177.7c3.7-1.6,6.7-7,6.1-11.1-.9,2.9-2.6,5-4.1,7.5l-2,3.5h0ZM105.9,173.5c.5-.6,1-1.2.9-2.1-2.8,2.9-6.1,4.7-10,5.4,3.4.2,6.6-1.1,9.1-3.3h0ZM94.5,180.3c-1.6-.8-3-1.7-4.4-2.7-2.2-.6-4.2-1.6-6.1-2.9,2.2,5.1,7.9,8,13.3,6.5-.9-.2-1.8-.5-2.8-.9h0ZM103.5,177.5c-2.1.9-4.1,1.4-6.4,1.4,2.3.6,5,1.2,6.4-1.4Z"/>
      </g>
      <g>
        <path d="M136.1,190.9l6-42.7h5.7l-2.6,19h21.3l2.6-19h5.7l-6,42.7h-5.7l2.6-18.5h-21.4l-2.6,18.5h-5.7,0Z"/>
        <path d="M189.9,191.6c-2.3,0-4.3-.5-5.9-1.6-1.7-1.1-2.9-2.6-3.6-4.5-.7-2-.9-4.2-.6-6.9l2.6-18.6h5.4l-2.7,18.8c-.2,1.5,0,2.9.4,4,.5,1.1,1.2,2,2.2,2.7,1,.6,2.2.9,3.7.9s2.8-.3,4.1-1c1.2-.7,2.2-1.6,3.1-2.8.8-1.2,1.4-2.7,1.6-4.4l2.5-18.2h5.4l-4.3,30.9h-5.2l.8-6,.8.7c-1,2-2.4,3.4-4.2,4.5-1.8,1-3.8,1.5-6,1.5h-.1Z"/>
        <path d="M228,191.6c-2.9,0-5.4-.7-7.6-1.9-2.2-1.3-3.9-3.1-5.2-5.4-1.2-2.3-1.9-4.9-1.9-7.8s.4-4.5,1.2-6.6,1.9-3.9,3.4-5.5,3.2-2.9,5.1-3.8c2-.9,4.1-1.3,6.4-1.3s5.4.7,7.5,2c2,1.3,3.6,3,4.6,5.1,1.1,2.1,1.6,4.4,1.6,6.8s0,1.3-.2,2.1c-.1.7-.2,1.4-.3,1.9h-25.3l.3-4.6h22.3l-2.8,2c.5-1.9.5-3.7,0-5.2-.6-1.6-1.5-2.8-2.9-3.8-1.4-.9-3-1.4-4.8-1.4s-4.2.6-5.8,1.7-2.7,2.7-3.5,4.7-1.2,4.3-1.2,6.9.4,3.6,1.2,5,1.9,2.5,3.3,3.2,2.9,1.1,4.6,1.1,3.9-.5,5.4-1.5,2.7-2.2,3.7-3.7l4.4,2.5c-.7,1.4-1.8,2.7-3.1,3.8s-2.9,2.1-4.7,2.7c-1.8.7-3.7,1-5.8,1h.1Z"/>
        <path d="M250.9,190.9v-42.7h16.4c2.9,0,5.6.5,7.8,1.5,2.3,1,4.1,2.6,5.4,4.6s1.9,4.5,1.9,7.5-.7,5.4-2,7.4-3.1,3.6-5.4,4.6c-2.3,1.1-4.9,1.6-7.8,1.6h-7.5v15.5h-8.9.1ZM259.8,167.7h7.6c1.3,0,2.4-.2,3.3-.7s1.6-1.2,2.2-2.1c.5-.9.8-1.9.8-3s-.3-2.2-.8-3.1c-.5-.9-1.2-1.6-2.2-2.1-.9-.5-2-.7-3.3-.7h-7.6v11.8h0Z"/>
        <path d="M287.5,190.9v-31.3h8v7.5l-.6-1.1c.7-2.6,1.8-4.4,3.4-5.4,1.6-.9,3.5-1.4,5.6-1.4h1.8v7.5h-2.7c-2.1,0-3.8.6-5.1,1.9-1.3,1.3-2,3.1-2,5.4v16.9h-8.6.2Z"/>
        <path d="M324.8,191.6c-3.3,0-6.2-.7-8.7-2.2-2.4-1.5-4.3-3.5-5.7-5.9-1.3-2.5-2-5.2-2-8.3s.7-5.9,2.1-8.4c1.4-2.4,3.3-4.4,5.6-5.8,2.4-1.4,5-2.1,8-2.1s4.7.4,6.6,1.2,3.5,1.9,4.8,3.3c1.3,1.4,2.3,3,3,4.9s1,3.9,1,6.1,0,1.2,0,1.8-.2,1.1-.3,1.5h-23.5v-6.3h18.6l-4.1,3c.4-1.6.4-3.1,0-4.4-.4-1.3-1.2-2.3-2.2-3-1.1-.7-2.3-1.1-3.9-1.1s-2.8.4-3.8,1.1c-1.1.7-1.9,1.8-2.4,3.2s-.7,3.1-.6,5.2c-.2,1.8,0,3.3.6,4.6s1.5,2.4,2.6,3.1c1.2.7,2.6,1.1,4.3,1.1s2.8-.3,3.9-.9c1.1-.6,1.9-1.5,2.6-2.5l6.9,3.3c-.6,1.5-1.6,2.9-2.9,4s-2.9,2-4.7,2.7c-1.8.6-3.8.9-5.9.9h.1Z"/>
        <path d="M357.2,191.6c-3.4,0-6.4-.8-9-2.4-2.5-1.6-4.3-3.8-5.2-6.6l6.3-3c.8,1.7,1.9,3,3.3,4s2.9,1.4,4.6,1.4,2.2-.2,2.8-.7c.6-.5,1-1.2,1-2.1s-.1-.9-.3-1.2c-.2-.3-.6-.6-1-.9-.5-.3-1-.5-1.7-.7l-5.3-1.5c-2.6-.7-4.5-1.9-5.9-3.5s-2.1-3.5-2.1-5.8.5-3.7,1.5-5.1c1-1.5,2.4-2.6,4.2-3.4,1.8-.8,3.9-1.2,6.2-1.2s5.7.7,8.1,2.2c2.3,1.4,3.9,3.5,4.9,6.1l-6.4,3c-.5-1.3-1.3-2.3-2.5-3.1s-2.6-1.2-4.1-1.2-2,.2-2.6.7-.9,1.1-.9,1.9.1.8.3,1.1.6.7,1.1.9c.5.3,1.2.5,1.9.7l5,1.5c2.6.8,4.6,1.9,6,3.5s2.1,3.5,2.1,5.7-.5,3.7-1.5,5.1c-1,1.5-2.4,2.6-4.2,3.4-1.8.8-3.9,1.2-6.4,1.2h-.2Z"/>
        <path d="M387.3,191.6c-3.4,0-6.4-.8-9-2.4-2.5-1.6-4.3-3.8-5.2-6.6l6.3-3c.8,1.7,1.9,3,3.3,4s2.9,1.4,4.6,1.4,2.2-.2,2.8-.7c.6-.5,1-1.2,1-2.1s-.1-.9-.3-1.2c-.2-.3-.6-.6-1-.9-.5-.3-1-.5-1.7-.7l-5.3-1.5c-2.6-.7-4.5-1.9-5.9-3.5s-2.1-3.5-2.1-5.8.5-3.7,1.5-5.1c1-1.5,2.4-2.6,4.2-3.4,1.8-.8,3.9-1.2,6.2-1.2s5.7.7,8.1,2.2c2.3,1.4,3.9,3.5,4.9,6.1l-6.4,3c-.5-1.3-1.3-2.3-2.5-3.1s-2.6-1.2-4.1-1.2-2,.2-2.6.7-.9,1.1-.9,1.9.1.8.3,1.1.6.7,1.1.9c.5.3,1.2.5,1.9.7l5,1.5c2.6.8,4.6,1.9,6,3.5s2.1,3.5,2.1,5.7-.5,3.7-1.5,5.1c-1,1.5-2.4,2.6-4.2,3.4-1.8.8-3.9,1.2-6.4,1.2h-.2Z"/>
      </g>
    </g>
  </g>
</svg>