<svg xmlns="http://www.w3.org/2000/svg" xml:space="preserve" xmlns:xlink="http://www.w3.org/1999/xlink" style="max-width: 100%;height: auto;" width="1072.5" height="1340.625" viewBox="0 0 1072.5 1340.625">
<rect width="992.95625" height="992.95625" fill="#ffffff" x="39.6875" y="39.6875"></rect>
<g fill="#000000" transform="scale(44.6875)"> <path d="M1.4,24l21.3,0c0.7,0,1.3-0.6,1.3-1.3l0-21.3C24,0.6,23.4,0,22.7,0L1.3,0C0.6,0,0,0.6,0,1.3l0,21.3 C0,23.4,0.6,24,1.3,24z M1,2c0-0.6,0.5-1,1-1l20,0c0.6,0,1,0.5,1,1v20c0,0.6-0.5,1-1,1L2,23c-0.6,0-1-0.5-1-1V2z"></path><path d="M1,30h22c0.5,0,1-0.4,1-1v-3c0-0.5-0.4-1-1-1H13l-1-1l-1,1H1c-0.5,0-1,0.4-1,1v3C0,29.6,0.4,30,1,30z"></path></g>
<g fill="#000000">
<g transform="translate(315.25,107.25) scale(4.4633333333333)"><rect width="6" height="6"></rect></g>
<g transform="translate(367.25,107.25) scale(4.4633333333333)"><rect width="6" height="6"></rect></g>
<g transform="translate(419.25,107.25) scale(4.4633333333333)"><rect width="6" height="6"></rect></g>
<g transform="translate(523.25,107.25) scale(4.4633333333333)"><rect width="6" height="6"></rect></g>
<g transform="translate(627.25,107.25) scale(4.4633333333333)"><rect width="6" height="6"></rect></g>
<g transform="translate(653.25,107.25) scale(4.4633333333333)"><rect width="6" height="6"></rect></g>
<g transform="translate(705.25,107.25) scale(4.4633333333333)"><rect width="6" height="6"></rect></g>
<g transform="translate(731.25,107.25) scale(4.4633333333333)"><rect width="6" height="6"></rect></g>
<g transform="translate(315.25,133.25) scale(4.4633333333333)"><rect width="6" height="6"></rect></g>
<g transform="translate(419.25,133.25) scale(4.4633333333333)"><rect width="6" height="6"></rect></g>
<g transform="translate(445.25,133.25) scale(4.4633333333333)"><rect width="6" height="6"></rect></g>
<g transform="translate(471.25,133.25) scale(4.4633333333333)"><rect width="6" height="6"></rect></g>
<g transform="translate(497.25,133.25) scale(4.4633333333333)"><rect width="6" height="6"></rect></g>
<g transform="translate(523.25,133.25) scale(4.4633333333333)"><rect width="6" height="6"></rect></g>
<g transform="translate(575.25,133.25) scale(4.4633333333333)"><rect width="6" height="6"></rect></g>
<g transform="translate(601.25,133.25) scale(4.4633333333333)"><rect width="6" height="6"></rect></g>
<g transform="translate(731.25,133.25) scale(4.4633333333333)"><rect width="6" height="6"></rect></g>
<g transform="translate(315.25,159.25) scale(4.4633333333333)"><rect width="6" height="6"></rect></g>
<g transform="translate(341.25,159.25) scale(4.4633333333333)"><rect width="6" height="6"></rect></g>
<g transform="translate(393.25,159.25) scale(4.4633333333333)"><rect width="6" height="6"></rect></g>
<g transform="translate(419.25,159.25) scale(4.4633333333333)"><rect width="6" height="6"></rect></g>
<g transform="translate(471.25,159.25) scale(4.4633333333333)"><rect width="6" height="6"></rect></g>
<g transform="translate(497.25,159.25) scale(4.4633333333333)"><rect width="6" height="6"></rect></g>
<g transform="translate(549.25,159.25) scale(4.4633333333333)"><rect width="6" height="6"></rect></g>
<g transform="translate(575.25,159.25) scale(4.4633333333333)"><rect width="6" height="6"></rect></g>
<g transform="translate(627.25,159.25) scale(4.4633333333333)"><rect width="6" height="6"></rect></g>
<g transform="translate(653.25,159.25) scale(4.4633333333333)"><rect width="6" height="6"></rect></g>
<g transform="translate(679.25,159.25) scale(4.4633333333333)"><rect width="6" height="6"></rect></g>
<g transform="translate(705.25,159.25) scale(4.4633333333333)"><rect width="6" height="6"></rect></g>
<g transform="translate(731.25,159.25) scale(4.4633333333333)"><rect width="6" height="6"></rect></g>
<g transform="translate(367.25,185.25) scale(4.4633333333333)"><rect width="6" height="6"></rect></g>
<g transform="translate(419.25,185.25) scale(4.4633333333333)"><rect width="6" height="6"></rect></g>
<g transform="translate(445.25,185.25) scale(4.4633333333333)"><rect width="6" height="6"></rect></g>
<g transform="translate(471.25,185.25) scale(4.4633333333333)"><rect width="6" height="6"></rect></g>
<g transform="translate(497.25,185.25) scale(4.4633333333333)"><rect width="6" height="6"></rect></g>
<g transform="translate(549.25,185.25) scale(4.4633333333333)"><rect width="6" height="6"></rect></g>
<g transform="translate(575.25,185.25) scale(4.4633333333333)"><rect width="6" height="6"></rect></g>
<g transform="translate(627.25,185.25) scale(4.4633333333333)"><rect width="6" height="6"></rect></g>
<g transform="translate(679.25,185.25) scale(4.4633333333333)"><rect width="6" height="6"></rect></g>
<g transform="translate(705.25,185.25) scale(4.4633333333333)"><rect width="6" height="6"></rect></g>
<g transform="translate(341.25,211.25) scale(4.4633333333333)"><rect width="6" height="6"></rect></g>
<g transform="translate(367.25,211.25) scale(4.4633333333333)"><rect width="6" height="6"></rect></g>
<g transform="translate(393.25,211.25) scale(4.4633333333333)"><rect width="6" height="6"></rect></g>
<g transform="translate(419.25,211.25) scale(4.4633333333333)"><rect width="6" height="6"></rect></g>
<g transform="translate(445.25,211.25) scale(4.4633333333333)"><rect width="6" height="6"></rect></g>
<g transform="translate(471.25,211.25) scale(4.4633333333333)"><rect width="6" height="6"></rect></g>
<g transform="translate(497.25,211.25) scale(4.4633333333333)"><rect width="6" height="6"></rect></g>
<g transform="translate(549.25,211.25) scale(4.4633333333333)"><rect width="6" height="6"></rect></g>
<g transform="translate(575.25,211.25) scale(4.4633333333333)"><rect width="6" height="6"></rect></g>
<g transform="translate(679.25,211.25) scale(4.4633333333333)"><rect width="6" height="6"></rect></g>
<g transform="translate(731.25,211.25) scale(4.4633333333333)"><rect width="6" height="6"></rect></g>
<g transform="translate(315.25,237.25) scale(4.4633333333333)"><rect width="6" height="6"></rect></g>
<g transform="translate(341.25,237.25) scale(4.4633333333333)"><rect width="6" height="6"></rect></g>
<g transform="translate(367.25,237.25) scale(4.4633333333333)"><rect width="6" height="6"></rect></g>
<g transform="translate(393.25,237.25) scale(4.4633333333333)"><rect width="6" height="6"></rect></g>
<g transform="translate(471.25,237.25) scale(4.4633333333333)"><rect width="6" height="6"></rect></g>
<g transform="translate(549.25,237.25) scale(4.4633333333333)"><rect width="6" height="6"></rect></g>
<g transform="translate(653.25,237.25) scale(4.4633333333333)"><rect width="6" height="6"></rect></g>
<g transform="translate(315.25,263.25) scale(4.4633333333333)"><rect width="6" height="6"></rect></g>
<g transform="translate(367.25,263.25) scale(4.4633333333333)"><rect width="6" height="6"></rect></g>
<g transform="translate(419.25,263.25) scale(4.4633333333333)"><rect width="6" height="6"></rect></g>
<g transform="translate(471.25,263.25) scale(4.4633333333333)"><rect width="6" height="6"></rect></g>
<g transform="translate(523.25,263.25) scale(4.4633333333333)"><rect width="6" height="6"></rect></g>
<g transform="translate(575.25,263.25) scale(4.4633333333333)"><rect width="6" height="6"></rect></g>
<g transform="translate(627.25,263.25) scale(4.4633333333333)"><rect width="6" height="6"></rect></g>
<g transform="translate(679.25,263.25) scale(4.4633333333333)"><rect width="6" height="6"></rect></g>
<g transform="translate(731.25,263.25) scale(4.4633333333333)"><rect width="6" height="6"></rect></g>
<g transform="translate(315.25,289.25) scale(4.4633333333333)"><rect width="6" height="6"></rect></g>
<g transform="translate(367.25,289.25) scale(4.4633333333333)"><rect width="6" height="6"></rect></g>
<g transform="translate(393.25,289.25) scale(4.4633333333333)"><rect width="6" height="6"></rect></g>
<g transform="translate(445.25,289.25) scale(4.4633333333333)"><rect width="6" height="6"></rect></g>
<g transform="translate(523.25,289.25) scale(4.4633333333333)"><rect width="6" height="6"></rect></g>
<g transform="translate(549.25,289.25) scale(4.4633333333333)"><rect width="6" height="6"></rect></g>
<g transform="translate(601.25,289.25) scale(4.4633333333333)"><rect width="6" height="6"></rect></g>
<g transform="translate(653.25,289.25) scale(4.4633333333333)"><rect width="6" height="6"></rect></g>
<g transform="translate(679.25,289.25) scale(4.4633333333333)"><rect width="6" height="6"></rect></g>
<g transform="translate(731.25,289.25) scale(4.4633333333333)"><rect width="6" height="6"></rect></g>
<g transform="translate(159.25,315.25) scale(4.4633333333333)"><rect width="6" height="6"></rect></g>
<g transform="translate(185.25,315.25) scale(4.4633333333333)"><rect width="6" height="6"></rect></g>
<g transform="translate(211.25,315.25) scale(4.4633333333333)"><rect width="6" height="6"></rect></g>
<g transform="translate(263.25,315.25) scale(4.4633333333333)"><rect width="6" height="6"></rect></g>
<g transform="translate(315.25,315.25) scale(4.4633333333333)"><rect width="6" height="6"></rect></g>
<g transform="translate(341.25,315.25) scale(4.4633333333333)"><rect width="6" height="6"></rect></g>
<g transform="translate(367.25,315.25) scale(4.4633333333333)"><rect width="6" height="6"></rect></g>
<g transform="translate(393.25,315.25) scale(4.4633333333333)"><rect width="6" height="6"></rect></g>
<g transform="translate(419.25,315.25) scale(4.4633333333333)"><rect width="6" height="6"></rect></g>
<g transform="translate(497.25,315.25) scale(4.4633333333333)"><rect width="6" height="6"></rect></g>
<g transform="translate(523.25,315.25) scale(4.4633333333333)"><rect width="6" height="6"></rect></g>
<g transform="translate(549.25,315.25) scale(4.4633333333333)"><rect width="6" height="6"></rect></g>
<g transform="translate(575.25,315.25) scale(4.4633333333333)"><rect width="6" height="6"></rect></g>
<g transform="translate(601.25,315.25) scale(4.4633333333333)"><rect width="6" height="6"></rect></g>
<g transform="translate(679.25,315.25) scale(4.4633333333333)"><rect width="6" height="6"></rect></g>
<g transform="translate(731.25,315.25) scale(4.4633333333333)"><rect width="6" height="6"></rect></g>
<g transform="translate(757.25,315.25) scale(4.4633333333333)"><rect width="6" height="6"></rect></g>
<g transform="translate(783.25,315.25) scale(4.4633333333333)"><rect width="6" height="6"></rect></g>
<g transform="translate(809.25,315.25) scale(4.4633333333333)"><rect width="6" height="6"></rect></g>
<g transform="translate(887.25,315.25) scale(4.4633333333333)"><rect width="6" height="6"></rect></g>
<g transform="translate(913.25,315.25) scale(4.4633333333333)"><rect width="6" height="6"></rect></g>
<g transform="translate(939.25,315.25) scale(4.4633333333333)"><rect width="6" height="6"></rect></g>
<g transform="translate(159.25,341.25) scale(4.4633333333333)"><rect width="6" height="6"></rect></g>
<g transform="translate(185.25,341.25) scale(4.4633333333333)"><rect width="6" height="6"></rect></g>
<g transform="translate(237.25,341.25) scale(4.4633333333333)"><rect width="6" height="6"></rect></g>
<g transform="translate(341.25,341.25) scale(4.4633333333333)"><rect width="6" height="6"></rect></g>
<g transform="translate(393.25,341.25) scale(4.4633333333333)"><rect width="6" height="6"></rect></g>
<g transform="translate(419.25,341.25) scale(4.4633333333333)"><rect width="6" height="6"></rect></g>
<g transform="translate(445.25,341.25) scale(4.4633333333333)"><rect width="6" height="6"></rect></g>
<g transform="translate(549.25,341.25) scale(4.4633333333333)"><rect width="6" height="6"></rect></g>
<g transform="translate(627.25,341.25) scale(4.4633333333333)"><rect width="6" height="6"></rect></g>
<g transform="translate(705.25,341.25) scale(4.4633333333333)"><rect width="6" height="6"></rect></g>
<g transform="translate(757.25,341.25) scale(4.4633333333333)"><rect width="6" height="6"></rect></g>
<g transform="translate(783.25,341.25) scale(4.4633333333333)"><rect width="6" height="6"></rect></g>
<g transform="translate(887.25,341.25) scale(4.4633333333333)"><rect width="6" height="6"></rect></g>
<g transform="translate(913.25,341.25) scale(4.4633333333333)"><rect width="6" height="6"></rect></g>
<g transform="translate(939.25,341.25) scale(4.4633333333333)"><rect width="6" height="6"></rect></g>
<g transform="translate(107.25,367.25) scale(4.4633333333333)"><rect width="6" height="6"></rect></g>
<g transform="translate(185.25,367.25) scale(4.4633333333333)"><rect width="6" height="6"></rect></g>
<g transform="translate(237.25,367.25) scale(4.4633333333333)"><rect width="6" height="6"></rect></g>
<g transform="translate(263.25,367.25) scale(4.4633333333333)"><rect width="6" height="6"></rect></g>
<g transform="translate(289.25,367.25) scale(4.4633333333333)"><rect width="6" height="6"></rect></g>
<g transform="translate(315.25,367.25) scale(4.4633333333333)"><rect width="6" height="6"></rect></g>
<g transform="translate(341.25,367.25) scale(4.4633333333333)"><rect width="6" height="6"></rect></g>
<g transform="translate(471.25,367.25) scale(4.4633333333333)"><rect width="6" height="6"></rect></g>
<g transform="translate(497.25,367.25) scale(4.4633333333333)"><rect width="6" height="6"></rect></g>
<g transform="translate(523.25,367.25) scale(4.4633333333333)"><rect width="6" height="6"></rect></g>
<g transform="translate(549.25,367.25) scale(4.4633333333333)"><rect width="6" height="6"></rect></g>
<g transform="translate(601.25,367.25) scale(4.4633333333333)"><rect width="6" height="6"></rect></g>
<g transform="translate(679.25,367.25) scale(4.4633333333333)"><rect width="6" height="6"></rect></g>
<g transform="translate(731.25,367.25) scale(4.4633333333333)"><rect width="6" height="6"></rect></g>
<g transform="translate(809.25,367.25) scale(4.4633333333333)"><rect width="6" height="6"></rect></g>
<g transform="translate(861.25,367.25) scale(4.4633333333333)"><rect width="6" height="6"></rect></g>
<g transform="translate(913.25,367.25) scale(4.4633333333333)"><rect width="6" height="6"></rect></g>
<g transform="translate(107.25,393.25) scale(4.4633333333333)"><rect width="6" height="6"></rect></g>
<g transform="translate(133.25,393.25) scale(4.4633333333333)"><rect width="6" height="6"></rect></g>
<g transform="translate(185.25,393.25) scale(4.4633333333333)"><rect width="6" height="6"></rect></g>
<g transform="translate(211.25,393.25) scale(4.4633333333333)"><rect width="6" height="6"></rect></g>
<g transform="translate(289.25,393.25) scale(4.4633333333333)"><rect width="6" height="6"></rect></g>
<g transform="translate(419.25,393.25) scale(4.4633333333333)"><rect width="6" height="6"></rect></g>
<g transform="translate(445.25,393.25) scale(4.4633333333333)"><rect width="6" height="6"></rect></g>
<g transform="translate(575.25,393.25) scale(4.4633333333333)"><rect width="6" height="6"></rect></g>
<g transform="translate(601.25,393.25) scale(4.4633333333333)"><rect width="6" height="6"></rect></g>
<g transform="translate(705.25,393.25) scale(4.4633333333333)"><rect width="6" height="6"></rect></g>
<g transform="translate(861.25,393.25) scale(4.4633333333333)"><rect width="6" height="6"></rect></g>
<g transform="translate(887.25,393.25) scale(4.4633333333333)"><rect width="6" height="6"></rect></g>
<g transform="translate(107.25,419.25) scale(4.4633333333333)"><rect width="6" height="6"></rect></g>
<g transform="translate(211.25,419.25) scale(4.4633333333333)"><rect width="6" height="6"></rect></g>
<g transform="translate(237.25,419.25) scale(4.4633333333333)"><rect width="6" height="6"></rect></g>
<g transform="translate(263.25,419.25) scale(4.4633333333333)"><rect width="6" height="6"></rect></g>
<g transform="translate(289.25,419.25) scale(4.4633333333333)"><rect width="6" height="6"></rect></g>
<g transform="translate(341.25,419.25) scale(4.4633333333333)"><rect width="6" height="6"></rect></g>
<g transform="translate(393.25,419.25) scale(4.4633333333333)"><rect width="6" height="6"></rect></g>
<g transform="translate(445.25,419.25) scale(4.4633333333333)"><rect width="6" height="6"></rect></g>
<g transform="translate(523.25,419.25) scale(4.4633333333333)"><rect width="6" height="6"></rect></g>
<g transform="translate(601.25,419.25) scale(4.4633333333333)"><rect width="6" height="6"></rect></g>
<g transform="translate(653.25,419.25) scale(4.4633333333333)"><rect width="6" height="6"></rect></g>
<g transform="translate(679.25,419.25) scale(4.4633333333333)"><rect width="6" height="6"></rect></g>
<g transform="translate(757.25,419.25) scale(4.4633333333333)"><rect width="6" height="6"></rect></g>
<g transform="translate(809.25,419.25) scale(4.4633333333333)"><rect width="6" height="6"></rect></g>
<g transform="translate(939.25,419.25) scale(4.4633333333333)"><rect width="6" height="6"></rect></g>
<g transform="translate(185.25,445.25) scale(4.4633333333333)"><rect width="6" height="6"></rect></g>
<g transform="translate(211.25,445.25) scale(4.4633333333333)"><rect width="6" height="6"></rect></g>
<g transform="translate(237.25,445.25) scale(4.4633333333333)"><rect width="6" height="6"></rect></g>
<g transform="translate(341.25,445.25) scale(4.4633333333333)"><rect width="6" height="6"></rect></g>
<g transform="translate(471.25,445.25) scale(4.4633333333333)"><rect width="6" height="6"></rect></g>
<g transform="translate(497.25,445.25) scale(4.4633333333333)"><rect width="6" height="6"></rect></g>
<g transform="translate(549.25,445.25) scale(4.4633333333333)"><rect width="6" height="6"></rect></g>
<g transform="translate(575.25,445.25) scale(4.4633333333333)"><rect width="6" height="6"></rect></g>
<g transform="translate(705.25,445.25) scale(4.4633333333333)"><rect width="6" height="6"></rect></g>
<g transform="translate(757.25,445.25) scale(4.4633333333333)"><rect width="6" height="6"></rect></g>
<g transform="translate(783.25,445.25) scale(4.4633333333333)"><rect width="6" height="6"></rect></g>
<g transform="translate(835.25,445.25) scale(4.4633333333333)"><rect width="6" height="6"></rect></g>
<g transform="translate(861.25,445.25) scale(4.4633333333333)"><rect width="6" height="6"></rect></g>
<g transform="translate(939.25,445.25) scale(4.4633333333333)"><rect width="6" height="6"></rect></g>
<g transform="translate(159.25,471.25) scale(4.4633333333333)"><rect width="6" height="6"></rect></g>
<g transform="translate(211.25,471.25) scale(4.4633333333333)"><rect width="6" height="6"></rect></g>
<g transform="translate(263.25,471.25) scale(4.4633333333333)"><rect width="6" height="6"></rect></g>
<g transform="translate(289.25,471.25) scale(4.4633333333333)"><rect width="6" height="6"></rect></g>
<g transform="translate(315.25,471.25) scale(4.4633333333333)"><rect width="6" height="6"></rect></g>
<g transform="translate(341.25,471.25) scale(4.4633333333333)"><rect width="6" height="6"></rect></g>
<g transform="translate(393.25,471.25) scale(4.4633333333333)"><rect width="6" height="6"></rect></g>
<g transform="translate(445.25,471.25) scale(4.4633333333333)"><rect width="6" height="6"></rect></g>
<g transform="translate(471.25,471.25) scale(4.4633333333333)"><rect width="6" height="6"></rect></g>
<g transform="translate(523.25,471.25) scale(4.4633333333333)"><rect width="6" height="6"></rect></g>
<g transform="translate(601.25,471.25) scale(4.4633333333333)"><rect width="6" height="6"></rect></g>
<g transform="translate(679.25,471.25) scale(4.4633333333333)"><rect width="6" height="6"></rect></g>
<g transform="translate(809.25,471.25) scale(4.4633333333333)"><rect width="6" height="6"></rect></g>
<g transform="translate(835.25,471.25) scale(4.4633333333333)"><rect width="6" height="6"></rect></g>
<g transform="translate(913.25,471.25) scale(4.4633333333333)"><rect width="6" height="6"></rect></g>
<g transform="translate(107.25,497.25) scale(4.4633333333333)"><rect width="6" height="6"></rect></g>
<g transform="translate(133.25,497.25) scale(4.4633333333333)"><rect width="6" height="6"></rect></g>
<g transform="translate(185.25,497.25) scale(4.4633333333333)"><rect width="6" height="6"></rect></g>
<g transform="translate(237.25,497.25) scale(4.4633333333333)"><rect width="6" height="6"></rect></g>
<g transform="translate(341.25,497.25) scale(4.4633333333333)"><rect width="6" height="6"></rect></g>
<g transform="translate(367.25,497.25) scale(4.4633333333333)"><rect width="6" height="6"></rect></g>
<g transform="translate(445.25,497.25) scale(4.4633333333333)"><rect width="6" height="6"></rect></g>
<g transform="translate(471.25,497.25) scale(4.4633333333333)"><rect width="6" height="6"></rect></g>
<g transform="translate(575.25,497.25) scale(4.4633333333333)"><rect width="6" height="6"></rect></g>
<g transform="translate(627.25,497.25) scale(4.4633333333333)"><rect width="6" height="6"></rect></g>
<g transform="translate(653.25,497.25) scale(4.4633333333333)"><rect width="6" height="6"></rect></g>
<g transform="translate(679.25,497.25) scale(4.4633333333333)"><rect width="6" height="6"></rect></g>
<g transform="translate(783.25,497.25) scale(4.4633333333333)"><rect width="6" height="6"></rect></g>
<g transform="translate(835.25,497.25) scale(4.4633333333333)"><rect width="6" height="6"></rect></g>
<g transform="translate(861.25,497.25) scale(4.4633333333333)"><rect width="6" height="6"></rect></g>
<g transform="translate(939.25,497.25) scale(4.4633333333333)"><rect width="6" height="6"></rect></g>
<g transform="translate(107.25,523.25) scale(4.4633333333333)"><rect width="6" height="6"></rect></g>
<g transform="translate(159.25,523.25) scale(4.4633333333333)"><rect width="6" height="6"></rect></g>
<g transform="translate(185.25,523.25) scale(4.4633333333333)"><rect width="6" height="6"></rect></g>
<g transform="translate(263.25,523.25) scale(4.4633333333333)"><rect width="6" height="6"></rect></g>
<g transform="translate(289.25,523.25) scale(4.4633333333333)"><rect width="6" height="6"></rect></g>
<g transform="translate(341.25,523.25) scale(4.4633333333333)"><rect width="6" height="6"></rect></g>
<g transform="translate(419.25,523.25) scale(4.4633333333333)"><rect width="6" height="6"></rect></g>
<g transform="translate(445.25,523.25) scale(4.4633333333333)"><rect width="6" height="6"></rect></g>
<g transform="translate(471.25,523.25) scale(4.4633333333333)"><rect width="6" height="6"></rect></g>
<g transform="translate(523.25,523.25) scale(4.4633333333333)"><rect width="6" height="6"></rect></g>
<g transform="translate(549.25,523.25) scale(4.4633333333333)"><rect width="6" height="6"></rect></g>
<g transform="translate(575.25,523.25) scale(4.4633333333333)"><rect width="6" height="6"></rect></g>
<g transform="translate(601.25,523.25) scale(4.4633333333333)"><rect width="6" height="6"></rect></g>
<g transform="translate(757.25,523.25) scale(4.4633333333333)"><rect width="6" height="6"></rect></g>
<g transform="translate(835.25,523.25) scale(4.4633333333333)"><rect width="6" height="6"></rect></g>
<g transform="translate(887.25,523.25) scale(4.4633333333333)"><rect width="6" height="6"></rect></g>
<g transform="translate(939.25,523.25) scale(4.4633333333333)"><rect width="6" height="6"></rect></g>
<g transform="translate(107.25,549.25) scale(4.4633333333333)"><rect width="6" height="6"></rect></g>
<g transform="translate(133.25,549.25) scale(4.4633333333333)"><rect width="6" height="6"></rect></g>
<g transform="translate(159.25,549.25) scale(4.4633333333333)"><rect width="6" height="6"></rect></g>
<g transform="translate(211.25,549.25) scale(4.4633333333333)"><rect width="6" height="6"></rect></g>
<g transform="translate(237.25,549.25) scale(4.4633333333333)"><rect width="6" height="6"></rect></g>
<g transform="translate(367.25,549.25) scale(4.4633333333333)"><rect width="6" height="6"></rect></g>
<g transform="translate(419.25,549.25) scale(4.4633333333333)"><rect width="6" height="6"></rect></g>
<g transform="translate(523.25,549.25) scale(4.4633333333333)"><rect width="6" height="6"></rect></g>
<g transform="translate(601.25,549.25) scale(4.4633333333333)"><rect width="6" height="6"></rect></g>
<g transform="translate(627.25,549.25) scale(4.4633333333333)"><rect width="6" height="6"></rect></g>
<g transform="translate(653.25,549.25) scale(4.4633333333333)"><rect width="6" height="6"></rect></g>
<g transform="translate(705.25,549.25) scale(4.4633333333333)"><rect width="6" height="6"></rect></g>
<g transform="translate(731.25,549.25) scale(4.4633333333333)"><rect width="6" height="6"></rect></g>
<g transform="translate(783.25,549.25) scale(4.4633333333333)"><rect width="6" height="6"></rect></g>
<g transform="translate(107.25,575.25) scale(4.4633333333333)"><rect width="6" height="6"></rect></g>
<g transform="translate(185.25,575.25) scale(4.4633333333333)"><rect width="6" height="6"></rect></g>
<g transform="translate(211.25,575.25) scale(4.4633333333333)"><rect width="6" height="6"></rect></g>
<g transform="translate(237.25,575.25) scale(4.4633333333333)"><rect width="6" height="6"></rect></g>
<g transform="translate(263.25,575.25) scale(4.4633333333333)"><rect width="6" height="6"></rect></g>
<g transform="translate(289.25,575.25) scale(4.4633333333333)"><rect width="6" height="6"></rect></g>
<g transform="translate(315.25,575.25) scale(4.4633333333333)"><rect width="6" height="6"></rect></g>
<g transform="translate(367.25,575.25) scale(4.4633333333333)"><rect width="6" height="6"></rect></g>
<g transform="translate(393.25,575.25) scale(4.4633333333333)"><rect width="6" height="6"></rect></g>
<g transform="translate(549.25,575.25) scale(4.4633333333333)"><rect width="6" height="6"></rect></g>
<g transform="translate(575.25,575.25) scale(4.4633333333333)"><rect width="6" height="6"></rect></g>
<g transform="translate(601.25,575.25) scale(4.4633333333333)"><rect width="6" height="6"></rect></g>
<g transform="translate(835.25,575.25) scale(4.4633333333333)"><rect width="6" height="6"></rect></g>
<g transform="translate(887.25,575.25) scale(4.4633333333333)"><rect width="6" height="6"></rect></g>
<g transform="translate(133.25,601.25) scale(4.4633333333333)"><rect width="6" height="6"></rect></g>
<g transform="translate(185.25,601.25) scale(4.4633333333333)"><rect width="6" height="6"></rect></g>
<g transform="translate(237.25,601.25) scale(4.4633333333333)"><rect width="6" height="6"></rect></g>
<g transform="translate(289.25,601.25) scale(4.4633333333333)"><rect width="6" height="6"></rect></g>
<g transform="translate(341.25,601.25) scale(4.4633333333333)"><rect width="6" height="6"></rect></g>
<g transform="translate(367.25,601.25) scale(4.4633333333333)"><rect width="6" height="6"></rect></g>
<g transform="translate(419.25,601.25) scale(4.4633333333333)"><rect width="6" height="6"></rect></g>
<g transform="translate(497.25,601.25) scale(4.4633333333333)"><rect width="6" height="6"></rect></g>
<g transform="translate(523.25,601.25) scale(4.4633333333333)"><rect width="6" height="6"></rect></g>
<g transform="translate(549.25,601.25) scale(4.4633333333333)"><rect width="6" height="6"></rect></g>
<g transform="translate(627.25,601.25) scale(4.4633333333333)"><rect width="6" height="6"></rect></g>
<g transform="translate(653.25,601.25) scale(4.4633333333333)"><rect width="6" height="6"></rect></g>
<g transform="translate(679.25,601.25) scale(4.4633333333333)"><rect width="6" height="6"></rect></g>
<g transform="translate(705.25,601.25) scale(4.4633333333333)"><rect width="6" height="6"></rect></g>
<g transform="translate(731.25,601.25) scale(4.4633333333333)"><rect width="6" height="6"></rect></g>
<g transform="translate(757.25,601.25) scale(4.4633333333333)"><rect width="6" height="6"></rect></g>
<g transform="translate(835.25,601.25) scale(4.4633333333333)"><rect width="6" height="6"></rect></g>
<g transform="translate(861.25,601.25) scale(4.4633333333333)"><rect width="6" height="6"></rect></g>
<g transform="translate(887.25,601.25) scale(4.4633333333333)"><rect width="6" height="6"></rect></g>
<g transform="translate(913.25,601.25) scale(4.4633333333333)"><rect width="6" height="6"></rect></g>
<g transform="translate(939.25,601.25) scale(4.4633333333333)"><rect width="6" height="6"></rect></g>
<g transform="translate(159.25,627.25) scale(4.4633333333333)"><rect width="6" height="6"></rect></g>
<g transform="translate(237.25,627.25) scale(4.4633333333333)"><rect width="6" height="6"></rect></g>
<g transform="translate(263.25,627.25) scale(4.4633333333333)"><rect width="6" height="6"></rect></g>
<g transform="translate(315.25,627.25) scale(4.4633333333333)"><rect width="6" height="6"></rect></g>
<g transform="translate(367.25,627.25) scale(4.4633333333333)"><rect width="6" height="6"></rect></g>
<g transform="translate(393.25,627.25) scale(4.4633333333333)"><rect width="6" height="6"></rect></g>
<g transform="translate(419.25,627.25) scale(4.4633333333333)"><rect width="6" height="6"></rect></g>
<g transform="translate(445.25,627.25) scale(4.4633333333333)"><rect width="6" height="6"></rect></g>
<g transform="translate(523.25,627.25) scale(4.4633333333333)"><rect width="6" height="6"></rect></g>
<g transform="translate(549.25,627.25) scale(4.4633333333333)"><rect width="6" height="6"></rect></g>
<g transform="translate(575.25,627.25) scale(4.4633333333333)"><rect width="6" height="6"></rect></g>
<g transform="translate(627.25,627.25) scale(4.4633333333333)"><rect width="6" height="6"></rect></g>
<g transform="translate(731.25,627.25) scale(4.4633333333333)"><rect width="6" height="6"></rect></g>
<g transform="translate(835.25,627.25) scale(4.4633333333333)"><rect width="6" height="6"></rect></g>
<g transform="translate(861.25,627.25) scale(4.4633333333333)"><rect width="6" height="6"></rect></g>
<g transform="translate(913.25,627.25) scale(4.4633333333333)"><rect width="6" height="6"></rect></g>
<g transform="translate(107.25,653.25) scale(4.4633333333333)"><rect width="6" height="6"></rect></g>
<g transform="translate(159.25,653.25) scale(4.4633333333333)"><rect width="6" height="6"></rect></g>
<g transform="translate(237.25,653.25) scale(4.4633333333333)"><rect width="6" height="6"></rect></g>
<g transform="translate(289.25,653.25) scale(4.4633333333333)"><rect width="6" height="6"></rect></g>
<g transform="translate(315.25,653.25) scale(4.4633333333333)"><rect width="6" height="6"></rect></g>
<g transform="translate(393.25,653.25) scale(4.4633333333333)"><rect width="6" height="6"></rect></g>
<g transform="translate(471.25,653.25) scale(4.4633333333333)"><rect width="6" height="6"></rect></g>
<g transform="translate(523.25,653.25) scale(4.4633333333333)"><rect width="6" height="6"></rect></g>
<g transform="translate(653.25,653.25) scale(4.4633333333333)"><rect width="6" height="6"></rect></g>
<g transform="translate(757.25,653.25) scale(4.4633333333333)"><rect width="6" height="6"></rect></g>
<g transform="translate(861.25,653.25) scale(4.4633333333333)"><rect width="6" height="6"></rect></g>
<g transform="translate(887.25,653.25) scale(4.4633333333333)"><rect width="6" height="6"></rect></g>
<g transform="translate(939.25,653.25) scale(4.4633333333333)"><rect width="6" height="6"></rect></g>
<g transform="translate(107.25,679.25) scale(4.4633333333333)"><rect width="6" height="6"></rect></g>
<g transform="translate(211.25,679.25) scale(4.4633333333333)"><rect width="6" height="6"></rect></g>
<g transform="translate(263.25,679.25) scale(4.4633333333333)"><rect width="6" height="6"></rect></g>
<g transform="translate(367.25,679.25) scale(4.4633333333333)"><rect width="6" height="6"></rect></g>
<g transform="translate(393.25,679.25) scale(4.4633333333333)"><rect width="6" height="6"></rect></g>
<g transform="translate(419.25,679.25) scale(4.4633333333333)"><rect width="6" height="6"></rect></g>
<g transform="translate(523.25,679.25) scale(4.4633333333333)"><rect width="6" height="6"></rect></g>
<g transform="translate(549.25,679.25) scale(4.4633333333333)"><rect width="6" height="6"></rect></g>
<g transform="translate(575.25,679.25) scale(4.4633333333333)"><rect width="6" height="6"></rect></g>
<g transform="translate(627.25,679.25) scale(4.4633333333333)"><rect width="6" height="6"></rect></g>
<g transform="translate(653.25,679.25) scale(4.4633333333333)"><rect width="6" height="6"></rect></g>
<g transform="translate(679.25,679.25) scale(4.4633333333333)"><rect width="6" height="6"></rect></g>
<g transform="translate(705.25,679.25) scale(4.4633333333333)"><rect width="6" height="6"></rect></g>
<g transform="translate(731.25,679.25) scale(4.4633333333333)"><rect width="6" height="6"></rect></g>
<g transform="translate(861.25,679.25) scale(4.4633333333333)"><rect width="6" height="6"></rect></g>
<g transform="translate(887.25,679.25) scale(4.4633333333333)"><rect width="6" height="6"></rect></g>
<g transform="translate(913.25,679.25) scale(4.4633333333333)"><rect width="6" height="6"></rect></g>
<g transform="translate(107.25,705.25) scale(4.4633333333333)"><rect width="6" height="6"></rect></g>
<g transform="translate(185.25,705.25) scale(4.4633333333333)"><rect width="6" height="6"></rect></g>
<g transform="translate(211.25,705.25) scale(4.4633333333333)"><rect width="6" height="6"></rect></g>
<g transform="translate(289.25,705.25) scale(4.4633333333333)"><rect width="6" height="6"></rect></g>
<g transform="translate(315.25,705.25) scale(4.4633333333333)"><rect width="6" height="6"></rect></g>
<g transform="translate(341.25,705.25) scale(4.4633333333333)"><rect width="6" height="6"></rect></g>
<g transform="translate(367.25,705.25) scale(4.4633333333333)"><rect width="6" height="6"></rect></g>
<g transform="translate(445.25,705.25) scale(4.4633333333333)"><rect width="6" height="6"></rect></g>
<g transform="translate(497.25,705.25) scale(4.4633333333333)"><rect width="6" height="6"></rect></g>
<g transform="translate(653.25,705.25) scale(4.4633333333333)"><rect width="6" height="6"></rect></g>
<g transform="translate(679.25,705.25) scale(4.4633333333333)"><rect width="6" height="6"></rect></g>
<g transform="translate(705.25,705.25) scale(4.4633333333333)"><rect width="6" height="6"></rect></g>
<g transform="translate(861.25,705.25) scale(4.4633333333333)"><rect width="6" height="6"></rect></g>
<g transform="translate(887.25,705.25) scale(4.4633333333333)"><rect width="6" height="6"></rect></g>
<g transform="translate(939.25,705.25) scale(4.4633333333333)"><rect width="6" height="6"></rect></g>
<g transform="translate(107.25,731.25) scale(4.4633333333333)"><rect width="6" height="6"></rect></g>
<g transform="translate(159.25,731.25) scale(4.4633333333333)"><rect width="6" height="6"></rect></g>
<g transform="translate(211.25,731.25) scale(4.4633333333333)"><rect width="6" height="6"></rect></g>
<g transform="translate(237.25,731.25) scale(4.4633333333333)"><rect width="6" height="6"></rect></g>
<g transform="translate(263.25,731.25) scale(4.4633333333333)"><rect width="6" height="6"></rect></g>
<g transform="translate(315.25,731.25) scale(4.4633333333333)"><rect width="6" height="6"></rect></g>
<g transform="translate(341.25,731.25) scale(4.4633333333333)"><rect width="6" height="6"></rect></g>
<g transform="translate(367.25,731.25) scale(4.4633333333333)"><rect width="6" height="6"></rect></g>
<g transform="translate(393.25,731.25) scale(4.4633333333333)"><rect width="6" height="6"></rect></g>
<g transform="translate(471.25,731.25) scale(4.4633333333333)"><rect width="6" height="6"></rect></g>
<g transform="translate(549.25,731.25) scale(4.4633333333333)"><rect width="6" height="6"></rect></g>
<g transform="translate(601.25,731.25) scale(4.4633333333333)"><rect width="6" height="6"></rect></g>
<g transform="translate(627.25,731.25) scale(4.4633333333333)"><rect width="6" height="6"></rect></g>
<g transform="translate(679.25,731.25) scale(4.4633333333333)"><rect width="6" height="6"></rect></g>
<g transform="translate(705.25,731.25) scale(4.4633333333333)"><rect width="6" height="6"></rect></g>
<g transform="translate(731.25,731.25) scale(4.4633333333333)"><rect width="6" height="6"></rect></g>
<g transform="translate(757.25,731.25) scale(4.4633333333333)"><rect width="6" height="6"></rect></g>
<g transform="translate(783.25,731.25) scale(4.4633333333333)"><rect width="6" height="6"></rect></g>
<g transform="translate(809.25,731.25) scale(4.4633333333333)"><rect width="6" height="6"></rect></g>
<g transform="translate(835.25,731.25) scale(4.4633333333333)"><rect width="6" height="6"></rect></g>
<g transform="translate(913.25,731.25) scale(4.4633333333333)"><rect width="6" height="6"></rect></g>
<g transform="translate(939.25,731.25) scale(4.4633333333333)"><rect width="6" height="6"></rect></g>
<g transform="translate(315.25,757.25) scale(4.4633333333333)"><rect width="6" height="6"></rect></g>
<g transform="translate(341.25,757.25) scale(4.4633333333333)"><rect width="6" height="6"></rect></g>
<g transform="translate(367.25,757.25) scale(4.4633333333333)"><rect width="6" height="6"></rect></g>
<g transform="translate(471.25,757.25) scale(4.4633333333333)"><rect width="6" height="6"></rect></g>
<g transform="translate(497.25,757.25) scale(4.4633333333333)"><rect width="6" height="6"></rect></g>
<g transform="translate(627.25,757.25) scale(4.4633333333333)"><rect width="6" height="6"></rect></g>
<g transform="translate(653.25,757.25) scale(4.4633333333333)"><rect width="6" height="6"></rect></g>
<g transform="translate(679.25,757.25) scale(4.4633333333333)"><rect width="6" height="6"></rect></g>
<g transform="translate(705.25,757.25) scale(4.4633333333333)"><rect width="6" height="6"></rect></g>
<g transform="translate(731.25,757.25) scale(4.4633333333333)"><rect width="6" height="6"></rect></g>
<g transform="translate(835.25,757.25) scale(4.4633333333333)"><rect width="6" height="6"></rect></g>
<g transform="translate(861.25,757.25) scale(4.4633333333333)"><rect width="6" height="6"></rect></g>
<g transform="translate(939.25,757.25) scale(4.4633333333333)"><rect width="6" height="6"></rect></g>
<g transform="translate(419.25,783.25) scale(4.4633333333333)"><rect width="6" height="6"></rect></g>
<g transform="translate(497.25,783.25) scale(4.4633333333333)"><rect width="6" height="6"></rect></g>
<g transform="translate(549.25,783.25) scale(4.4633333333333)"><rect width="6" height="6"></rect></g>
<g transform="translate(627.25,783.25) scale(4.4633333333333)"><rect width="6" height="6"></rect></g>
<g transform="translate(653.25,783.25) scale(4.4633333333333)"><rect width="6" height="6"></rect></g>
<g transform="translate(705.25,783.25) scale(4.4633333333333)"><rect width="6" height="6"></rect></g>
<g transform="translate(731.25,783.25) scale(4.4633333333333)"><rect width="6" height="6"></rect></g>
<g transform="translate(783.25,783.25) scale(4.4633333333333)"><rect width="6" height="6"></rect></g>
<g transform="translate(835.25,783.25) scale(4.4633333333333)"><rect width="6" height="6"></rect></g>
<g transform="translate(861.25,783.25) scale(4.4633333333333)"><rect width="6" height="6"></rect></g>
<g transform="translate(913.25,783.25) scale(4.4633333333333)"><rect width="6" height="6"></rect></g>
<g transform="translate(341.25,809.25) scale(4.4633333333333)"><rect width="6" height="6"></rect></g>
<g transform="translate(367.25,809.25) scale(4.4633333333333)"><rect width="6" height="6"></rect></g>
<g transform="translate(419.25,809.25) scale(4.4633333333333)"><rect width="6" height="6"></rect></g>
<g transform="translate(445.25,809.25) scale(4.4633333333333)"><rect width="6" height="6"></rect></g>
<g transform="translate(523.25,809.25) scale(4.4633333333333)"><rect width="6" height="6"></rect></g>
<g transform="translate(601.25,809.25) scale(4.4633333333333)"><rect width="6" height="6"></rect></g>
<g transform="translate(627.25,809.25) scale(4.4633333333333)"><rect width="6" height="6"></rect></g>
<g transform="translate(653.25,809.25) scale(4.4633333333333)"><rect width="6" height="6"></rect></g>
<g transform="translate(679.25,809.25) scale(4.4633333333333)"><rect width="6" height="6"></rect></g>
<g transform="translate(705.25,809.25) scale(4.4633333333333)"><rect width="6" height="6"></rect></g>
<g transform="translate(731.25,809.25) scale(4.4633333333333)"><rect width="6" height="6"></rect></g>
<g transform="translate(835.25,809.25) scale(4.4633333333333)"><rect width="6" height="6"></rect></g>
<g transform="translate(887.25,809.25) scale(4.4633333333333)"><rect width="6" height="6"></rect></g>
<g transform="translate(913.25,809.25) scale(4.4633333333333)"><rect width="6" height="6"></rect></g>
<g transform="translate(939.25,809.25) scale(4.4633333333333)"><rect width="6" height="6"></rect></g>
<g transform="translate(315.25,835.25) scale(4.4633333333333)"><rect width="6" height="6"></rect></g>
<g transform="translate(341.25,835.25) scale(4.4633333333333)"><rect width="6" height="6"></rect></g>
<g transform="translate(393.25,835.25) scale(4.4633333333333)"><rect width="6" height="6"></rect></g>
<g transform="translate(471.25,835.25) scale(4.4633333333333)"><rect width="6" height="6"></rect></g>
<g transform="translate(497.25,835.25) scale(4.4633333333333)"><rect width="6" height="6"></rect></g>
<g transform="translate(523.25,835.25) scale(4.4633333333333)"><rect width="6" height="6"></rect></g>
<g transform="translate(549.25,835.25) scale(4.4633333333333)"><rect width="6" height="6"></rect></g>
<g transform="translate(653.25,835.25) scale(4.4633333333333)"><rect width="6" height="6"></rect></g>
<g transform="translate(731.25,835.25) scale(4.4633333333333)"><rect width="6" height="6"></rect></g>
<g transform="translate(757.25,835.25) scale(4.4633333333333)"><rect width="6" height="6"></rect></g>
<g transform="translate(783.25,835.25) scale(4.4633333333333)"><rect width="6" height="6"></rect></g>
<g transform="translate(809.25,835.25) scale(4.4633333333333)"><rect width="6" height="6"></rect></g>
<g transform="translate(835.25,835.25) scale(4.4633333333333)"><rect width="6" height="6"></rect></g>
<g transform="translate(913.25,835.25) scale(4.4633333333333)"><rect width="6" height="6"></rect></g>
<g transform="translate(939.25,835.25) scale(4.4633333333333)"><rect width="6" height="6"></rect></g>
<g transform="translate(315.25,861.25) scale(4.4633333333333)"><rect width="6" height="6"></rect></g>
<g transform="translate(341.25,861.25) scale(4.4633333333333)"><rect width="6" height="6"></rect></g>
<g transform="translate(367.25,861.25) scale(4.4633333333333)"><rect width="6" height="6"></rect></g>
<g transform="translate(419.25,861.25) scale(4.4633333333333)"><rect width="6" height="6"></rect></g>
<g transform="translate(471.25,861.25) scale(4.4633333333333)"><rect width="6" height="6"></rect></g>
<g transform="translate(497.25,861.25) scale(4.4633333333333)"><rect width="6" height="6"></rect></g>
<g transform="translate(523.25,861.25) scale(4.4633333333333)"><rect width="6" height="6"></rect></g>
<g transform="translate(549.25,861.25) scale(4.4633333333333)"><rect width="6" height="6"></rect></g>
<g transform="translate(575.25,861.25) scale(4.4633333333333)"><rect width="6" height="6"></rect></g>
<g transform="translate(679.25,861.25) scale(4.4633333333333)"><rect width="6" height="6"></rect></g>
<g transform="translate(705.25,861.25) scale(4.4633333333333)"><rect width="6" height="6"></rect></g>
<g transform="translate(731.25,861.25) scale(4.4633333333333)"><rect width="6" height="6"></rect></g>
<g transform="translate(757.25,861.25) scale(4.4633333333333)"><rect width="6" height="6"></rect></g>
<g transform="translate(835.25,861.25) scale(4.4633333333333)"><rect width="6" height="6"></rect></g>
<g transform="translate(887.25,861.25) scale(4.4633333333333)"><rect width="6" height="6"></rect></g>
<g transform="translate(913.25,861.25) scale(4.4633333333333)"><rect width="6" height="6"></rect></g>
<g transform="translate(315.25,887.25) scale(4.4633333333333)"><rect width="6" height="6"></rect></g>
<g transform="translate(393.25,887.25) scale(4.4633333333333)"><rect width="6" height="6"></rect></g>
<g transform="translate(497.25,887.25) scale(4.4633333333333)"><rect width="6" height="6"></rect></g>
<g transform="translate(523.25,887.25) scale(4.4633333333333)"><rect width="6" height="6"></rect></g>
<g transform="translate(575.25,887.25) scale(4.4633333333333)"><rect width="6" height="6"></rect></g>
<g transform="translate(601.25,887.25) scale(4.4633333333333)"><rect width="6" height="6"></rect></g>
<g transform="translate(627.25,887.25) scale(4.4633333333333)"><rect width="6" height="6"></rect></g>
<g transform="translate(679.25,887.25) scale(4.4633333333333)"><rect width="6" height="6"></rect></g>
<g transform="translate(705.25,887.25) scale(4.4633333333333)"><rect width="6" height="6"></rect></g>
<g transform="translate(731.25,887.25) scale(4.4633333333333)"><rect width="6" height="6"></rect></g>
<g transform="translate(757.25,887.25) scale(4.4633333333333)"><rect width="6" height="6"></rect></g>
<g transform="translate(783.25,887.25) scale(4.4633333333333)"><rect width="6" height="6"></rect></g>
<g transform="translate(861.25,887.25) scale(4.4633333333333)"><rect width="6" height="6"></rect></g>
<g transform="translate(887.25,887.25) scale(4.4633333333333)"><rect width="6" height="6"></rect></g>
<g transform="translate(341.25,913.25) scale(4.4633333333333)"><rect width="6" height="6"></rect></g>
<g transform="translate(367.25,913.25) scale(4.4633333333333)"><rect width="6" height="6"></rect></g>
<g transform="translate(393.25,913.25) scale(4.4633333333333)"><rect width="6" height="6"></rect></g>
<g transform="translate(445.25,913.25) scale(4.4633333333333)"><rect width="6" height="6"></rect></g>
<g transform="translate(471.25,913.25) scale(4.4633333333333)"><rect width="6" height="6"></rect></g>
<g transform="translate(549.25,913.25) scale(4.4633333333333)"><rect width="6" height="6"></rect></g>
<g transform="translate(627.25,913.25) scale(4.4633333333333)"><rect width="6" height="6"></rect></g>
<g transform="translate(809.25,913.25) scale(4.4633333333333)"><rect width="6" height="6"></rect></g>
<g transform="translate(887.25,913.25) scale(4.4633333333333)"><rect width="6" height="6"></rect></g>
<g transform="translate(341.25,939.25) scale(4.4633333333333)"><rect width="6" height="6"></rect></g>
<g transform="translate(367.25,939.25) scale(4.4633333333333)"><rect width="6" height="6"></rect></g>
<g transform="translate(419.25,939.25) scale(4.4633333333333)"><rect width="6" height="6"></rect></g>
<g transform="translate(445.25,939.25) scale(4.4633333333333)"><rect width="6" height="6"></rect></g>
<g transform="translate(497.25,939.25) scale(4.4633333333333)"><rect width="6" height="6"></rect></g>
<g transform="translate(653.25,939.25) scale(4.4633333333333)"><rect width="6" height="6"></rect></g>
<g transform="translate(679.25,939.25) scale(4.4633333333333)"><rect width="6" height="6"></rect></g>
<g transform="translate(705.25,939.25) scale(4.4633333333333)"><rect width="6" height="6"></rect></g>
<g transform="translate(731.25,939.25) scale(4.4633333333333)"><rect width="6" height="6"></rect></g>
<g transform="translate(783.25,939.25) scale(4.4633333333333)"><rect width="6" height="6"></rect></g>
<g transform="translate(861.25,939.25) scale(4.4633333333333)"><rect width="6" height="6"></rect></g>
<g transform="translate(887.25,939.25) scale(4.4633333333333)"><rect width="6" height="6"></rect></g>
<g transform="translate(913.25,939.25) scale(4.4633333333333)"><rect width="6" height="6"></rect></g>
</g><g><g transform="translate(107.25,107.25)" fill="#000000"><g transform="scale(13)"><path d="M0,0v14h14V0H0z M12,12H2V2h10V12z"></path></g></g>
<g transform="translate(783.25,107.25)" fill="#000000"><g transform="scale(13)"><path d="M0,0v14h14V0H0z M12,12H2V2h10V12z"></path></g></g>
<g transform="translate(107.25,783.25)" fill="#000000"><g transform="scale(13)"><path d="M0,0v14h14V0H0z M12,12H2V2h10V12z"></path></g></g>
<g transform="translate(159.25,159.25)" fill="#000000"><g transform="scale(13)"><rect width="6" height="6"></rect></g></g>
<g transform="translate(835.25,159.25)" fill="#000000"><g transform="scale(13)"><rect width="6" height="6"></rect></g></g>
<g transform="translate(159.25,835.25)" fill="#000000"><g transform="scale(13)"><rect width="6" height="6"></rect></g></g></g>
<text fill="#FFFFFF" font-family="Arial, Helvetica, sans-serif" font-size="130px" text-anchor="middle" x="536.25" y="157.71875" transform="translate(0,1117.1875)">SCAN ME</text></svg>